G04 #@! TF.GenerationSoftware,KiCad,Pcbnew,5.0.2-bee76a0~70~ubuntu18.10.1*
G04 #@! TF.CreationDate,2019-09-06T12:11:08+02:00*
G04 #@! TF.ProjectId,Handylader_Fach_RS458_SMD_002,48616e64-796c-4616-9465-725f46616368,rev?*
G04 #@! TF.SameCoordinates,Original*
G04 #@! TF.FileFunction,Copper,L2,Bot*
G04 #@! TF.FilePolarity,Positive*
%FSLAX46Y46*%
G04 Gerber Fmt 4.6, Leading zero omitted, Abs format (unit mm)*
G04 Created by KiCad (PCBNEW 5.0.2-bee76a0~70~ubuntu18.10.1) date Fr 06 Sep 2019 12:11:08 CEST*
%MOMM*%
%LPD*%
G01*
G04 APERTURE LIST*
G04 #@! TA.AperFunction,ComponentPad*
%ADD10C,3.000000*%
G04 #@! TD*
G04 #@! TA.AperFunction,ComponentPad*
%ADD11C,2.100000*%
G04 #@! TD*
G04 #@! TA.AperFunction,ComponentPad*
%ADD12R,2.100000X2.100000*%
G04 #@! TD*
G04 #@! TA.AperFunction,ComponentPad*
%ADD13R,2.500000X2.500000*%
G04 #@! TD*
G04 #@! TA.AperFunction,ComponentPad*
%ADD14O,2.500000X2.500000*%
G04 #@! TD*
G04 #@! TA.AperFunction,ComponentPad*
%ADD15R,1.500000X2.500000*%
G04 #@! TD*
G04 #@! TA.AperFunction,ComponentPad*
%ADD16O,1.500000X2.500000*%
G04 #@! TD*
G04 #@! TA.AperFunction,ComponentPad*
%ADD17R,1.700000X1.700000*%
G04 #@! TD*
G04 #@! TA.AperFunction,ComponentPad*
%ADD18O,1.700000X1.700000*%
G04 #@! TD*
G04 #@! TA.AperFunction,ViaPad*
%ADD19C,0.800000*%
G04 #@! TD*
G04 #@! TA.AperFunction,Conductor*
%ADD20C,0.250000*%
G04 #@! TD*
G04 #@! TA.AperFunction,Conductor*
%ADD21C,0.254000*%
G04 #@! TD*
G04 APERTURE END LIST*
D10*
G04 #@! TO.P,J12,5*
G04 #@! TO.N,GND*
X92570000Y-35030000D03*
X92570000Y-48170000D03*
G04 #@! TD*
D11*
G04 #@! TO.P,J1,3*
G04 #@! TO.N,Net-(C1-Pad1)*
X85090000Y-24638000D03*
G04 #@! TO.P,J1,2*
G04 #@! TO.N,N/C*
X85090000Y-27178000D03*
D12*
G04 #@! TO.P,J1,1*
G04 #@! TO.N,AC-SENSE*
X85090000Y-29718000D03*
G04 #@! TD*
G04 #@! TO.P,J2,1*
G04 #@! TO.N,+12V*
X60960000Y-22352000D03*
D11*
G04 #@! TO.P,J2,2*
G04 #@! TO.N,N/C*
X58420000Y-22352000D03*
G04 #@! TO.P,J2,3*
G04 #@! TO.N,GND*
X55880000Y-22352000D03*
G04 #@! TD*
G04 #@! TO.P,J3,3*
G04 #@! TO.N,GND*
X42418000Y-22352000D03*
G04 #@! TO.P,J3,2*
G04 #@! TO.N,N/C*
X44958000Y-22352000D03*
D12*
G04 #@! TO.P,J3,1*
G04 #@! TO.N,+12V*
X47498000Y-22352000D03*
G04 #@! TD*
G04 #@! TO.P,J4,1*
G04 #@! TO.N,+5V*
X36830000Y-44450000D03*
D11*
G04 #@! TO.P,J4,2*
G04 #@! TO.N,Net-(J4-Pad2)*
X36830000Y-46990000D03*
G04 #@! TO.P,J4,3*
G04 #@! TO.N,GND*
X36830000Y-49530000D03*
G04 #@! TD*
D13*
G04 #@! TO.P,K1,1*
G04 #@! TO.N,+12V*
X63500000Y-69850000D03*
D14*
G04 #@! TO.P,K1,2*
G04 #@! TO.N,+5V*
X65500000Y-75850000D03*
G04 #@! TO.P,K1,3*
G04 #@! TO.N,RELAIS-OUT*
X77700000Y-75850000D03*
G04 #@! TO.P,K1,4*
G04 #@! TO.N,N/C*
X77700000Y-63850000D03*
G04 #@! TO.P,K1,5*
G04 #@! TO.N,RELAIS*
X65500000Y-63850000D03*
G04 #@! TD*
D15*
G04 #@! TO.P,U2,1*
G04 #@! TO.N,+12V*
X76200000Y-20425000D03*
D16*
G04 #@! TO.P,U2,2*
G04 #@! TO.N,GND*
X73660000Y-20425000D03*
G04 #@! TO.P,U2,3*
G04 #@! TO.N,+5V*
X71120000Y-20425000D03*
G04 #@! TD*
D17*
G04 #@! TO.P,J7,1*
G04 #@! TO.N,D6*
X38100000Y-60960000D03*
D18*
G04 #@! TO.P,J7,2*
G04 #@! TO.N,+5V*
X38100000Y-58420000D03*
G04 #@! TO.P,J7,3*
G04 #@! TO.N,GND*
X38100000Y-55880000D03*
G04 #@! TD*
G04 #@! TO.P,J9,3*
G04 #@! TO.N,GND*
X43180000Y-55880000D03*
G04 #@! TO.P,J9,2*
G04 #@! TO.N,+5V*
X43180000Y-58420000D03*
D17*
G04 #@! TO.P,J9,1*
G04 #@! TO.N,D5*
X43180000Y-60960000D03*
G04 #@! TD*
G04 #@! TO.P,J11,1*
G04 #@! TO.N,RELAIS-OUT*
X91440000Y-64770000D03*
D18*
G04 #@! TO.P,J11,2*
G04 #@! TO.N,GND*
X91440000Y-62230000D03*
G04 #@! TD*
D17*
G04 #@! TO.P,J8,1*
G04 #@! TO.N,RX*
X40640000Y-73660000D03*
D18*
G04 #@! TO.P,J8,2*
G04 #@! TO.N,TX*
X40640000Y-71120000D03*
G04 #@! TO.P,J8,3*
G04 #@! TO.N,GND*
X40640000Y-68580000D03*
G04 #@! TD*
D19*
G04 #@! TO.N,GND*
X62230000Y-26670000D03*
X74930000Y-55880000D03*
X58420000Y-44450000D03*
X76200000Y-24130000D03*
X41910000Y-49530000D03*
X53340000Y-63500000D03*
X72390000Y-33020000D03*
X54610000Y-36830000D03*
X44450000Y-43180000D03*
X54610000Y-68580000D03*
X85090000Y-41910000D03*
X78740000Y-46990000D03*
G04 #@! TO.N,RESET*
X73660000Y-52070000D03*
X67310000Y-43180000D03*
G04 #@! TO.N,RX*
X64770000Y-43180000D03*
G04 #@! TO.N,TX*
X63500000Y-41910000D03*
G04 #@! TD*
D20*
G04 #@! TO.N,RESET*
X73660000Y-52070000D02*
X67310000Y-45720000D01*
X67310000Y-45720000D02*
X67310000Y-43180000D01*
G04 #@! TO.N,RX*
X64770000Y-43180000D02*
X64770000Y-48260000D01*
X64770000Y-48260000D02*
X43180000Y-69850000D01*
X41740000Y-73660000D02*
X40640000Y-73660000D01*
X43180000Y-72220000D02*
X41740000Y-73660000D01*
X43180000Y-69850000D02*
X43180000Y-72220000D01*
G04 #@! TO.N,TX*
X63500000Y-48260000D02*
X63500000Y-41910000D01*
X40640000Y-71120000D02*
X63500000Y-48260000D01*
G04 #@! TD*
D21*
G04 #@! TO.N,GND*
G36*
X99595000Y-78005000D02*
X31877000Y-78005000D01*
X31877000Y-75850000D01*
X63578071Y-75850000D01*
X63724369Y-76585490D01*
X64140991Y-77209009D01*
X64764510Y-77625631D01*
X65314345Y-77735000D01*
X65685655Y-77735000D01*
X66235490Y-77625631D01*
X66859009Y-77209009D01*
X67275631Y-76585490D01*
X67421929Y-75850000D01*
X75778071Y-75850000D01*
X75924369Y-76585490D01*
X76340991Y-77209009D01*
X76964510Y-77625631D01*
X77514345Y-77735000D01*
X77885655Y-77735000D01*
X78435490Y-77625631D01*
X79059009Y-77209009D01*
X79475631Y-76585490D01*
X79621929Y-75850000D01*
X79475631Y-75114510D01*
X79059009Y-74490991D01*
X78435490Y-74074369D01*
X77885655Y-73965000D01*
X77514345Y-73965000D01*
X76964510Y-74074369D01*
X76340991Y-74490991D01*
X75924369Y-75114510D01*
X75778071Y-75850000D01*
X67421929Y-75850000D01*
X67275631Y-75114510D01*
X66859009Y-74490991D01*
X66235490Y-74074369D01*
X65685655Y-73965000D01*
X65314345Y-73965000D01*
X64764510Y-74074369D01*
X64140991Y-74490991D01*
X63724369Y-75114510D01*
X63578071Y-75850000D01*
X31877000Y-75850000D01*
X31877000Y-71945431D01*
X33325000Y-71945431D01*
X33325000Y-72834569D01*
X33665259Y-73656026D01*
X34293974Y-74284741D01*
X35115431Y-74625000D01*
X36004569Y-74625000D01*
X36826026Y-74284741D01*
X37454741Y-73656026D01*
X37795000Y-72834569D01*
X37795000Y-71945431D01*
X37454741Y-71123974D01*
X37450767Y-71120000D01*
X39125908Y-71120000D01*
X39241161Y-71699418D01*
X39569375Y-72190625D01*
X39587619Y-72202816D01*
X39542235Y-72211843D01*
X39332191Y-72352191D01*
X39191843Y-72562235D01*
X39142560Y-72810000D01*
X39142560Y-74510000D01*
X39191843Y-74757765D01*
X39332191Y-74967809D01*
X39542235Y-75108157D01*
X39790000Y-75157440D01*
X41490000Y-75157440D01*
X41737765Y-75108157D01*
X41947809Y-74967809D01*
X42088157Y-74757765D01*
X42137440Y-74510000D01*
X42137440Y-74308483D01*
X42287929Y-74207929D01*
X42330331Y-74144470D01*
X43664473Y-72810329D01*
X43727929Y-72767929D01*
X43895904Y-72516537D01*
X43940000Y-72294852D01*
X43940000Y-72294848D01*
X43954888Y-72220000D01*
X43940000Y-72145152D01*
X43940000Y-71945431D01*
X93015000Y-71945431D01*
X93015000Y-72834569D01*
X93355259Y-73656026D01*
X93983974Y-74284741D01*
X94805431Y-74625000D01*
X95694569Y-74625000D01*
X96516026Y-74284741D01*
X97144741Y-73656026D01*
X97485000Y-72834569D01*
X97485000Y-71945431D01*
X97144741Y-71123974D01*
X96516026Y-70495259D01*
X95694569Y-70155000D01*
X94805431Y-70155000D01*
X93983974Y-70495259D01*
X93355259Y-71123974D01*
X93015000Y-71945431D01*
X43940000Y-71945431D01*
X43940000Y-70164801D01*
X45504801Y-68600000D01*
X61602560Y-68600000D01*
X61602560Y-71100000D01*
X61651843Y-71347765D01*
X61792191Y-71557809D01*
X62002235Y-71698157D01*
X62250000Y-71747440D01*
X64750000Y-71747440D01*
X64997765Y-71698157D01*
X65207809Y-71557809D01*
X65348157Y-71347765D01*
X65397440Y-71100000D01*
X65397440Y-68600000D01*
X65348157Y-68352235D01*
X65207809Y-68142191D01*
X64997765Y-68001843D01*
X64750000Y-67952560D01*
X62250000Y-67952560D01*
X62002235Y-68001843D01*
X61792191Y-68142191D01*
X61651843Y-68352235D01*
X61602560Y-68600000D01*
X45504801Y-68600000D01*
X50254801Y-63850000D01*
X63578071Y-63850000D01*
X63724369Y-64585490D01*
X64140991Y-65209009D01*
X64764510Y-65625631D01*
X65314345Y-65735000D01*
X65685655Y-65735000D01*
X66235490Y-65625631D01*
X66859009Y-65209009D01*
X67275631Y-64585490D01*
X67421929Y-63850000D01*
X75778071Y-63850000D01*
X75924369Y-64585490D01*
X76340991Y-65209009D01*
X76964510Y-65625631D01*
X77514345Y-65735000D01*
X77885655Y-65735000D01*
X78435490Y-65625631D01*
X79059009Y-65209009D01*
X79475631Y-64585490D01*
X79608005Y-63920000D01*
X89942560Y-63920000D01*
X89942560Y-65620000D01*
X89991843Y-65867765D01*
X90132191Y-66077809D01*
X90342235Y-66218157D01*
X90590000Y-66267440D01*
X92290000Y-66267440D01*
X92537765Y-66218157D01*
X92747809Y-66077809D01*
X92888157Y-65867765D01*
X92937440Y-65620000D01*
X92937440Y-63920000D01*
X92888157Y-63672235D01*
X92747809Y-63462191D01*
X92537765Y-63321843D01*
X92434292Y-63301261D01*
X92711645Y-62996924D01*
X92881476Y-62586890D01*
X92760155Y-62357000D01*
X91567000Y-62357000D01*
X91567000Y-62377000D01*
X91313000Y-62377000D01*
X91313000Y-62357000D01*
X90119845Y-62357000D01*
X89998524Y-62586890D01*
X90168355Y-62996924D01*
X90445708Y-63301261D01*
X90342235Y-63321843D01*
X90132191Y-63462191D01*
X89991843Y-63672235D01*
X89942560Y-63920000D01*
X79608005Y-63920000D01*
X79621929Y-63850000D01*
X79475631Y-63114510D01*
X79059009Y-62490991D01*
X78435490Y-62074369D01*
X77885655Y-61965000D01*
X77514345Y-61965000D01*
X76964510Y-62074369D01*
X76340991Y-62490991D01*
X75924369Y-63114510D01*
X75778071Y-63850000D01*
X67421929Y-63850000D01*
X67275631Y-63114510D01*
X66859009Y-62490991D01*
X66235490Y-62074369D01*
X65685655Y-61965000D01*
X65314345Y-61965000D01*
X64764510Y-62074369D01*
X64140991Y-62490991D01*
X63724369Y-63114510D01*
X63578071Y-63850000D01*
X50254801Y-63850000D01*
X52231691Y-61873110D01*
X89998524Y-61873110D01*
X90119845Y-62103000D01*
X91313000Y-62103000D01*
X91313000Y-60909181D01*
X91567000Y-60909181D01*
X91567000Y-62103000D01*
X92760155Y-62103000D01*
X92881476Y-61873110D01*
X92711645Y-61463076D01*
X92321358Y-61034817D01*
X91796892Y-60788514D01*
X91567000Y-60909181D01*
X91313000Y-60909181D01*
X91083108Y-60788514D01*
X90558642Y-61034817D01*
X90168355Y-61463076D01*
X89998524Y-61873110D01*
X52231691Y-61873110D01*
X65254473Y-48850329D01*
X65317929Y-48807929D01*
X65360924Y-48743582D01*
X65485904Y-48556538D01*
X65495480Y-48508395D01*
X65530000Y-48334852D01*
X65530000Y-48334848D01*
X65544888Y-48260000D01*
X65530000Y-48185152D01*
X65530000Y-43883711D01*
X65647431Y-43766280D01*
X65805000Y-43385874D01*
X65805000Y-42974126D01*
X66275000Y-42974126D01*
X66275000Y-43385874D01*
X66432569Y-43766280D01*
X66550001Y-43883712D01*
X66550000Y-45645153D01*
X66535112Y-45720000D01*
X66550000Y-45794847D01*
X66550000Y-45794851D01*
X66594096Y-46016536D01*
X66762071Y-46267929D01*
X66825530Y-46310331D01*
X72625000Y-52109802D01*
X72625000Y-52275874D01*
X72782569Y-52656280D01*
X73073720Y-52947431D01*
X73454126Y-53105000D01*
X73865874Y-53105000D01*
X74246280Y-52947431D01*
X74537431Y-52656280D01*
X74695000Y-52275874D01*
X74695000Y-51864126D01*
X74537431Y-51483720D01*
X74246280Y-51192569D01*
X73865874Y-51035000D01*
X73699802Y-51035000D01*
X72348772Y-49683970D01*
X91235635Y-49683970D01*
X91395418Y-50002739D01*
X92186187Y-50312723D01*
X93035387Y-50296497D01*
X93744582Y-50002739D01*
X93904365Y-49683970D01*
X92570000Y-48349605D01*
X91235635Y-49683970D01*
X72348772Y-49683970D01*
X70450989Y-47786187D01*
X90427277Y-47786187D01*
X90443503Y-48635387D01*
X90737261Y-49344582D01*
X91056030Y-49504365D01*
X92390395Y-48170000D01*
X92749605Y-48170000D01*
X94083970Y-49504365D01*
X94402739Y-49344582D01*
X94712723Y-48553813D01*
X94696497Y-47704613D01*
X94402739Y-46995418D01*
X94083970Y-46835635D01*
X92749605Y-48170000D01*
X92390395Y-48170000D01*
X91056030Y-46835635D01*
X90737261Y-46995418D01*
X90427277Y-47786187D01*
X70450989Y-47786187D01*
X69320832Y-46656030D01*
X91235635Y-46656030D01*
X92570000Y-47990395D01*
X93904365Y-46656030D01*
X93744582Y-46337261D01*
X92953813Y-46027277D01*
X92104613Y-46043503D01*
X91395418Y-46337261D01*
X91235635Y-46656030D01*
X69320832Y-46656030D01*
X68070000Y-45405199D01*
X68070000Y-43883711D01*
X68187431Y-43766280D01*
X68345000Y-43385874D01*
X68345000Y-42974126D01*
X68187431Y-42593720D01*
X67896280Y-42302569D01*
X67515874Y-42145000D01*
X67104126Y-42145000D01*
X66723720Y-42302569D01*
X66432569Y-42593720D01*
X66275000Y-42974126D01*
X65805000Y-42974126D01*
X65647431Y-42593720D01*
X65356280Y-42302569D01*
X64975874Y-42145000D01*
X64564126Y-42145000D01*
X64514405Y-42165595D01*
X64535000Y-42115874D01*
X64535000Y-41704126D01*
X64377431Y-41323720D01*
X64086280Y-41032569D01*
X63705874Y-40875000D01*
X63294126Y-40875000D01*
X62913720Y-41032569D01*
X62622569Y-41323720D01*
X62465000Y-41704126D01*
X62465000Y-42115874D01*
X62622569Y-42496280D01*
X62740001Y-42613712D01*
X62740000Y-47945198D01*
X42125000Y-68560199D01*
X42125000Y-68452998D01*
X41960156Y-68452998D01*
X42081476Y-68223110D01*
X41911645Y-67813076D01*
X41521358Y-67384817D01*
X40996892Y-67138514D01*
X40767000Y-67259181D01*
X40767000Y-68453000D01*
X40787000Y-68453000D01*
X40787000Y-68707000D01*
X40767000Y-68707000D01*
X40767000Y-68727000D01*
X40513000Y-68727000D01*
X40513000Y-68707000D01*
X39319845Y-68707000D01*
X39198524Y-68936890D01*
X39368355Y-69346924D01*
X39758642Y-69775183D01*
X39888478Y-69836157D01*
X39569375Y-70049375D01*
X39241161Y-70540582D01*
X39125908Y-71120000D01*
X37450767Y-71120000D01*
X36826026Y-70495259D01*
X36004569Y-70155000D01*
X35115431Y-70155000D01*
X34293974Y-70495259D01*
X33665259Y-71123974D01*
X33325000Y-71945431D01*
X31877000Y-71945431D01*
X31877000Y-68223110D01*
X39198524Y-68223110D01*
X39319845Y-68453000D01*
X40513000Y-68453000D01*
X40513000Y-67259181D01*
X40283108Y-67138514D01*
X39758642Y-67384817D01*
X39368355Y-67813076D01*
X39198524Y-68223110D01*
X31877000Y-68223110D01*
X31877000Y-58420000D01*
X36585908Y-58420000D01*
X36701161Y-58999418D01*
X37029375Y-59490625D01*
X37047619Y-59502816D01*
X37002235Y-59511843D01*
X36792191Y-59652191D01*
X36651843Y-59862235D01*
X36602560Y-60110000D01*
X36602560Y-61810000D01*
X36651843Y-62057765D01*
X36792191Y-62267809D01*
X37002235Y-62408157D01*
X37250000Y-62457440D01*
X38950000Y-62457440D01*
X39197765Y-62408157D01*
X39407809Y-62267809D01*
X39548157Y-62057765D01*
X39597440Y-61810000D01*
X39597440Y-60110000D01*
X39548157Y-59862235D01*
X39407809Y-59652191D01*
X39197765Y-59511843D01*
X39152381Y-59502816D01*
X39170625Y-59490625D01*
X39498839Y-58999418D01*
X39614092Y-58420000D01*
X41665908Y-58420000D01*
X41781161Y-58999418D01*
X42109375Y-59490625D01*
X42127619Y-59502816D01*
X42082235Y-59511843D01*
X41872191Y-59652191D01*
X41731843Y-59862235D01*
X41682560Y-60110000D01*
X41682560Y-61810000D01*
X41731843Y-62057765D01*
X41872191Y-62267809D01*
X42082235Y-62408157D01*
X42330000Y-62457440D01*
X44030000Y-62457440D01*
X44277765Y-62408157D01*
X44487809Y-62267809D01*
X44628157Y-62057765D01*
X44677440Y-61810000D01*
X44677440Y-60110000D01*
X44628157Y-59862235D01*
X44487809Y-59652191D01*
X44277765Y-59511843D01*
X44232381Y-59502816D01*
X44250625Y-59490625D01*
X44578839Y-58999418D01*
X44694092Y-58420000D01*
X44578839Y-57840582D01*
X44250625Y-57349375D01*
X43931522Y-57136157D01*
X44061358Y-57075183D01*
X44451645Y-56646924D01*
X44621476Y-56236890D01*
X44500155Y-56007000D01*
X43307000Y-56007000D01*
X43307000Y-56027000D01*
X43053000Y-56027000D01*
X43053000Y-56007000D01*
X41859845Y-56007000D01*
X41738524Y-56236890D01*
X41908355Y-56646924D01*
X42298642Y-57075183D01*
X42428478Y-57136157D01*
X42109375Y-57349375D01*
X41781161Y-57840582D01*
X41665908Y-58420000D01*
X39614092Y-58420000D01*
X39498839Y-57840582D01*
X39170625Y-57349375D01*
X38851522Y-57136157D01*
X38981358Y-57075183D01*
X39371645Y-56646924D01*
X39541476Y-56236890D01*
X39420155Y-56007000D01*
X38227000Y-56007000D01*
X38227000Y-56027000D01*
X37973000Y-56027000D01*
X37973000Y-56007000D01*
X36779845Y-56007000D01*
X36658524Y-56236890D01*
X36828355Y-56646924D01*
X37218642Y-57075183D01*
X37348478Y-57136157D01*
X37029375Y-57349375D01*
X36701161Y-57840582D01*
X36585908Y-58420000D01*
X31877000Y-58420000D01*
X31877000Y-55523110D01*
X36658524Y-55523110D01*
X36779845Y-55753000D01*
X37973000Y-55753000D01*
X37973000Y-54559181D01*
X38227000Y-54559181D01*
X38227000Y-55753000D01*
X39420155Y-55753000D01*
X39541476Y-55523110D01*
X41738524Y-55523110D01*
X41859845Y-55753000D01*
X43053000Y-55753000D01*
X43053000Y-54559181D01*
X43307000Y-54559181D01*
X43307000Y-55753000D01*
X44500155Y-55753000D01*
X44621476Y-55523110D01*
X44451645Y-55113076D01*
X44061358Y-54684817D01*
X43536892Y-54438514D01*
X43307000Y-54559181D01*
X43053000Y-54559181D01*
X42823108Y-54438514D01*
X42298642Y-54684817D01*
X41908355Y-55113076D01*
X41738524Y-55523110D01*
X39541476Y-55523110D01*
X39371645Y-55113076D01*
X38981358Y-54684817D01*
X38456892Y-54438514D01*
X38227000Y-54559181D01*
X37973000Y-54559181D01*
X37743108Y-54438514D01*
X37218642Y-54684817D01*
X36828355Y-55113076D01*
X36658524Y-55523110D01*
X31877000Y-55523110D01*
X31877000Y-50718703D01*
X35820902Y-50718703D01*
X35925687Y-50990745D01*
X36553526Y-51225619D01*
X37223456Y-51202349D01*
X37734313Y-50990745D01*
X37839098Y-50718703D01*
X36830000Y-49709605D01*
X35820902Y-50718703D01*
X31877000Y-50718703D01*
X31877000Y-49253526D01*
X35134381Y-49253526D01*
X35157651Y-49923456D01*
X35369255Y-50434313D01*
X35641297Y-50539098D01*
X36650395Y-49530000D01*
X37009605Y-49530000D01*
X38018703Y-50539098D01*
X38290745Y-50434313D01*
X38525619Y-49806474D01*
X38502349Y-49136544D01*
X38290745Y-48625687D01*
X38018703Y-48520902D01*
X37009605Y-49530000D01*
X36650395Y-49530000D01*
X35641297Y-48520902D01*
X35369255Y-48625687D01*
X35134381Y-49253526D01*
X31877000Y-49253526D01*
X31877000Y-43400000D01*
X35132560Y-43400000D01*
X35132560Y-45500000D01*
X35181843Y-45747765D01*
X35322191Y-45957809D01*
X35416335Y-46020715D01*
X35401526Y-46035524D01*
X35145000Y-46654833D01*
X35145000Y-47325167D01*
X35401526Y-47944476D01*
X35875524Y-48418474D01*
X35914028Y-48434423D01*
X36830000Y-49350395D01*
X37745972Y-48434423D01*
X37784476Y-48418474D01*
X38258474Y-47944476D01*
X38515000Y-47325167D01*
X38515000Y-46654833D01*
X38258474Y-46035524D01*
X38243665Y-46020715D01*
X38337809Y-45957809D01*
X38478157Y-45747765D01*
X38527440Y-45500000D01*
X38527440Y-43400000D01*
X38478157Y-43152235D01*
X38337809Y-42942191D01*
X38127765Y-42801843D01*
X37880000Y-42752560D01*
X35780000Y-42752560D01*
X35532235Y-42801843D01*
X35322191Y-42942191D01*
X35181843Y-43152235D01*
X35132560Y-43400000D01*
X31877000Y-43400000D01*
X31877000Y-36543970D01*
X91235635Y-36543970D01*
X91395418Y-36862739D01*
X92186187Y-37172723D01*
X93035387Y-37156497D01*
X93744582Y-36862739D01*
X93904365Y-36543970D01*
X92570000Y-35209605D01*
X91235635Y-36543970D01*
X31877000Y-36543970D01*
X31877000Y-34646187D01*
X90427277Y-34646187D01*
X90443503Y-35495387D01*
X90737261Y-36204582D01*
X91056030Y-36364365D01*
X92390395Y-35030000D01*
X92749605Y-35030000D01*
X94083970Y-36364365D01*
X94402739Y-36204582D01*
X94712723Y-35413813D01*
X94696497Y-34564613D01*
X94402739Y-33855418D01*
X94083970Y-33695635D01*
X92749605Y-35030000D01*
X92390395Y-35030000D01*
X91056030Y-33695635D01*
X90737261Y-33855418D01*
X90427277Y-34646187D01*
X31877000Y-34646187D01*
X31877000Y-33516030D01*
X91235635Y-33516030D01*
X92570000Y-34850395D01*
X93904365Y-33516030D01*
X93744582Y-33197261D01*
X92953813Y-32887277D01*
X92104613Y-32903503D01*
X91395418Y-33197261D01*
X91235635Y-33516030D01*
X31877000Y-33516030D01*
X31877000Y-28668000D01*
X83392560Y-28668000D01*
X83392560Y-30768000D01*
X83441843Y-31015765D01*
X83582191Y-31225809D01*
X83792235Y-31366157D01*
X84040000Y-31415440D01*
X86140000Y-31415440D01*
X86387765Y-31366157D01*
X86597809Y-31225809D01*
X86738157Y-31015765D01*
X86787440Y-30768000D01*
X86787440Y-28668000D01*
X86738157Y-28420235D01*
X86597809Y-28210191D01*
X86503665Y-28147285D01*
X86518474Y-28132476D01*
X86775000Y-27513167D01*
X86775000Y-26842833D01*
X86518474Y-26223524D01*
X86202950Y-25908000D01*
X86518474Y-25592476D01*
X86775000Y-24973167D01*
X86775000Y-24302833D01*
X86518474Y-23683524D01*
X86044476Y-23209526D01*
X85425167Y-22953000D01*
X84754833Y-22953000D01*
X84135524Y-23209526D01*
X83661526Y-23683524D01*
X83405000Y-24302833D01*
X83405000Y-24973167D01*
X83661526Y-25592476D01*
X83977050Y-25908000D01*
X83661526Y-26223524D01*
X83405000Y-26842833D01*
X83405000Y-27513167D01*
X83661526Y-28132476D01*
X83676335Y-28147285D01*
X83582191Y-28210191D01*
X83441843Y-28420235D01*
X83392560Y-28668000D01*
X31877000Y-28668000D01*
X31877000Y-23540703D01*
X41408902Y-23540703D01*
X41513687Y-23812745D01*
X42141526Y-24047619D01*
X42811456Y-24024349D01*
X43322313Y-23812745D01*
X43427098Y-23540703D01*
X42418000Y-22531605D01*
X41408902Y-23540703D01*
X31877000Y-23540703D01*
X31877000Y-19875431D01*
X33325000Y-19875431D01*
X33325000Y-20764569D01*
X33665259Y-21586026D01*
X34293974Y-22214741D01*
X35115431Y-22555000D01*
X36004569Y-22555000D01*
X36826026Y-22214741D01*
X36965241Y-22075526D01*
X40722381Y-22075526D01*
X40745651Y-22745456D01*
X40957255Y-23256313D01*
X41229297Y-23361098D01*
X42238395Y-22352000D01*
X42597605Y-22352000D01*
X43513577Y-23267972D01*
X43529526Y-23306476D01*
X44003524Y-23780474D01*
X44622833Y-24037000D01*
X45293167Y-24037000D01*
X45912476Y-23780474D01*
X45927285Y-23765665D01*
X45990191Y-23859809D01*
X46200235Y-24000157D01*
X46448000Y-24049440D01*
X48548000Y-24049440D01*
X48795765Y-24000157D01*
X49005809Y-23859809D01*
X49146157Y-23649765D01*
X49167850Y-23540703D01*
X54870902Y-23540703D01*
X54975687Y-23812745D01*
X55603526Y-24047619D01*
X56273456Y-24024349D01*
X56784313Y-23812745D01*
X56889098Y-23540703D01*
X55880000Y-22531605D01*
X54870902Y-23540703D01*
X49167850Y-23540703D01*
X49195440Y-23402000D01*
X49195440Y-22075526D01*
X54184381Y-22075526D01*
X54207651Y-22745456D01*
X54419255Y-23256313D01*
X54691297Y-23361098D01*
X55700395Y-22352000D01*
X56059605Y-22352000D01*
X56975577Y-23267972D01*
X56991526Y-23306476D01*
X57465524Y-23780474D01*
X58084833Y-24037000D01*
X58755167Y-24037000D01*
X59374476Y-23780474D01*
X59389285Y-23765665D01*
X59452191Y-23859809D01*
X59662235Y-24000157D01*
X59910000Y-24049440D01*
X62010000Y-24049440D01*
X62257765Y-24000157D01*
X62467809Y-23859809D01*
X62608157Y-23649765D01*
X62657440Y-23402000D01*
X62657440Y-21302000D01*
X62608157Y-21054235D01*
X62467809Y-20844191D01*
X62257765Y-20703843D01*
X62010000Y-20654560D01*
X59910000Y-20654560D01*
X59662235Y-20703843D01*
X59452191Y-20844191D01*
X59389285Y-20938335D01*
X59374476Y-20923526D01*
X58755167Y-20667000D01*
X58084833Y-20667000D01*
X57465524Y-20923526D01*
X56991526Y-21397524D01*
X56975577Y-21436028D01*
X56059605Y-22352000D01*
X55700395Y-22352000D01*
X54691297Y-21342902D01*
X54419255Y-21447687D01*
X54184381Y-22075526D01*
X49195440Y-22075526D01*
X49195440Y-21302000D01*
X49167851Y-21163297D01*
X54870902Y-21163297D01*
X55880000Y-22172395D01*
X56889098Y-21163297D01*
X56784313Y-20891255D01*
X56156474Y-20656381D01*
X55486544Y-20679651D01*
X54975687Y-20891255D01*
X54870902Y-21163297D01*
X49167851Y-21163297D01*
X49146157Y-21054235D01*
X49005809Y-20844191D01*
X48795765Y-20703843D01*
X48548000Y-20654560D01*
X46448000Y-20654560D01*
X46200235Y-20703843D01*
X45990191Y-20844191D01*
X45927285Y-20938335D01*
X45912476Y-20923526D01*
X45293167Y-20667000D01*
X44622833Y-20667000D01*
X44003524Y-20923526D01*
X43529526Y-21397524D01*
X43513577Y-21436028D01*
X42597605Y-22352000D01*
X42238395Y-22352000D01*
X41229297Y-21342902D01*
X40957255Y-21447687D01*
X40722381Y-22075526D01*
X36965241Y-22075526D01*
X37454741Y-21586026D01*
X37629841Y-21163297D01*
X41408902Y-21163297D01*
X42418000Y-22172395D01*
X43427098Y-21163297D01*
X43322313Y-20891255D01*
X42694474Y-20656381D01*
X42024544Y-20679651D01*
X41513687Y-20891255D01*
X41408902Y-21163297D01*
X37629841Y-21163297D01*
X37795000Y-20764569D01*
X37795000Y-19875431D01*
X37759031Y-19788593D01*
X69735000Y-19788593D01*
X69735000Y-21061406D01*
X69815359Y-21465399D01*
X70121471Y-21923528D01*
X70579600Y-22229641D01*
X71120000Y-22337133D01*
X71660399Y-22229641D01*
X72118528Y-21923529D01*
X72405742Y-21493684D01*
X72429028Y-21572349D01*
X72770460Y-21994145D01*
X73247316Y-22253173D01*
X73318815Y-22267318D01*
X73533000Y-22144656D01*
X73533000Y-20552000D01*
X73513000Y-20552000D01*
X73513000Y-20298000D01*
X73533000Y-20298000D01*
X73533000Y-18705344D01*
X73787000Y-18705344D01*
X73787000Y-20298000D01*
X73807000Y-20298000D01*
X73807000Y-20552000D01*
X73787000Y-20552000D01*
X73787000Y-22144656D01*
X74001185Y-22267318D01*
X74072684Y-22253173D01*
X74549540Y-21994145D01*
X74803609Y-21680275D01*
X74851843Y-21922765D01*
X74992191Y-22132809D01*
X75202235Y-22273157D01*
X75450000Y-22322440D01*
X76950000Y-22322440D01*
X77197765Y-22273157D01*
X77407809Y-22132809D01*
X77548157Y-21922765D01*
X77597440Y-21675000D01*
X77597440Y-19875431D01*
X93015000Y-19875431D01*
X93015000Y-20764569D01*
X93355259Y-21586026D01*
X93983974Y-22214741D01*
X94805431Y-22555000D01*
X95694569Y-22555000D01*
X96516026Y-22214741D01*
X97144741Y-21586026D01*
X97485000Y-20764569D01*
X97485000Y-19875431D01*
X97144741Y-19053974D01*
X96516026Y-18425259D01*
X95694569Y-18085000D01*
X94805431Y-18085000D01*
X93983974Y-18425259D01*
X93355259Y-19053974D01*
X93015000Y-19875431D01*
X77597440Y-19875431D01*
X77597440Y-19175000D01*
X77548157Y-18927235D01*
X77407809Y-18717191D01*
X77197765Y-18576843D01*
X76950000Y-18527560D01*
X75450000Y-18527560D01*
X75202235Y-18576843D01*
X74992191Y-18717191D01*
X74851843Y-18927235D01*
X74803609Y-19169725D01*
X74549540Y-18855855D01*
X74072684Y-18596827D01*
X74001185Y-18582682D01*
X73787000Y-18705344D01*
X73533000Y-18705344D01*
X73318815Y-18582682D01*
X73247316Y-18596827D01*
X72770460Y-18855855D01*
X72429028Y-19277651D01*
X72405742Y-19356316D01*
X72118529Y-18926471D01*
X71660400Y-18620359D01*
X71120000Y-18512867D01*
X70579601Y-18620359D01*
X70121472Y-18926471D01*
X69815359Y-19384600D01*
X69735000Y-19788593D01*
X37759031Y-19788593D01*
X37454741Y-19053974D01*
X36826026Y-18425259D01*
X36004569Y-18085000D01*
X35115431Y-18085000D01*
X34293974Y-18425259D01*
X33665259Y-19053974D01*
X33325000Y-19875431D01*
X31877000Y-19875431D01*
X31877000Y-16637000D01*
X99595001Y-16637000D01*
X99595000Y-78005000D01*
X99595000Y-78005000D01*
G37*
X99595000Y-78005000D02*
X31877000Y-78005000D01*
X31877000Y-75850000D01*
X63578071Y-75850000D01*
X63724369Y-76585490D01*
X64140991Y-77209009D01*
X64764510Y-77625631D01*
X65314345Y-77735000D01*
X65685655Y-77735000D01*
X66235490Y-77625631D01*
X66859009Y-77209009D01*
X67275631Y-76585490D01*
X67421929Y-75850000D01*
X75778071Y-75850000D01*
X75924369Y-76585490D01*
X76340991Y-77209009D01*
X76964510Y-77625631D01*
X77514345Y-77735000D01*
X77885655Y-77735000D01*
X78435490Y-77625631D01*
X79059009Y-77209009D01*
X79475631Y-76585490D01*
X79621929Y-75850000D01*
X79475631Y-75114510D01*
X79059009Y-74490991D01*
X78435490Y-74074369D01*
X77885655Y-73965000D01*
X77514345Y-73965000D01*
X76964510Y-74074369D01*
X76340991Y-74490991D01*
X75924369Y-75114510D01*
X75778071Y-75850000D01*
X67421929Y-75850000D01*
X67275631Y-75114510D01*
X66859009Y-74490991D01*
X66235490Y-74074369D01*
X65685655Y-73965000D01*
X65314345Y-73965000D01*
X64764510Y-74074369D01*
X64140991Y-74490991D01*
X63724369Y-75114510D01*
X63578071Y-75850000D01*
X31877000Y-75850000D01*
X31877000Y-71945431D01*
X33325000Y-71945431D01*
X33325000Y-72834569D01*
X33665259Y-73656026D01*
X34293974Y-74284741D01*
X35115431Y-74625000D01*
X36004569Y-74625000D01*
X36826026Y-74284741D01*
X37454741Y-73656026D01*
X37795000Y-72834569D01*
X37795000Y-71945431D01*
X37454741Y-71123974D01*
X37450767Y-71120000D01*
X39125908Y-71120000D01*
X39241161Y-71699418D01*
X39569375Y-72190625D01*
X39587619Y-72202816D01*
X39542235Y-72211843D01*
X39332191Y-72352191D01*
X39191843Y-72562235D01*
X39142560Y-72810000D01*
X39142560Y-74510000D01*
X39191843Y-74757765D01*
X39332191Y-74967809D01*
X39542235Y-75108157D01*
X39790000Y-75157440D01*
X41490000Y-75157440D01*
X41737765Y-75108157D01*
X41947809Y-74967809D01*
X42088157Y-74757765D01*
X42137440Y-74510000D01*
X42137440Y-74308483D01*
X42287929Y-74207929D01*
X42330331Y-74144470D01*
X43664473Y-72810329D01*
X43727929Y-72767929D01*
X43895904Y-72516537D01*
X43940000Y-72294852D01*
X43940000Y-72294848D01*
X43954888Y-72220000D01*
X43940000Y-72145152D01*
X43940000Y-71945431D01*
X93015000Y-71945431D01*
X93015000Y-72834569D01*
X93355259Y-73656026D01*
X93983974Y-74284741D01*
X94805431Y-74625000D01*
X95694569Y-74625000D01*
X96516026Y-74284741D01*
X97144741Y-73656026D01*
X97485000Y-72834569D01*
X97485000Y-71945431D01*
X97144741Y-71123974D01*
X96516026Y-70495259D01*
X95694569Y-70155000D01*
X94805431Y-70155000D01*
X93983974Y-70495259D01*
X93355259Y-71123974D01*
X93015000Y-71945431D01*
X43940000Y-71945431D01*
X43940000Y-70164801D01*
X45504801Y-68600000D01*
X61602560Y-68600000D01*
X61602560Y-71100000D01*
X61651843Y-71347765D01*
X61792191Y-71557809D01*
X62002235Y-71698157D01*
X62250000Y-71747440D01*
X64750000Y-71747440D01*
X64997765Y-71698157D01*
X65207809Y-71557809D01*
X65348157Y-71347765D01*
X65397440Y-71100000D01*
X65397440Y-68600000D01*
X65348157Y-68352235D01*
X65207809Y-68142191D01*
X64997765Y-68001843D01*
X64750000Y-67952560D01*
X62250000Y-67952560D01*
X62002235Y-68001843D01*
X61792191Y-68142191D01*
X61651843Y-68352235D01*
X61602560Y-68600000D01*
X45504801Y-68600000D01*
X50254801Y-63850000D01*
X63578071Y-63850000D01*
X63724369Y-64585490D01*
X64140991Y-65209009D01*
X64764510Y-65625631D01*
X65314345Y-65735000D01*
X65685655Y-65735000D01*
X66235490Y-65625631D01*
X66859009Y-65209009D01*
X67275631Y-64585490D01*
X67421929Y-63850000D01*
X75778071Y-63850000D01*
X75924369Y-64585490D01*
X76340991Y-65209009D01*
X76964510Y-65625631D01*
X77514345Y-65735000D01*
X77885655Y-65735000D01*
X78435490Y-65625631D01*
X79059009Y-65209009D01*
X79475631Y-64585490D01*
X79608005Y-63920000D01*
X89942560Y-63920000D01*
X89942560Y-65620000D01*
X89991843Y-65867765D01*
X90132191Y-66077809D01*
X90342235Y-66218157D01*
X90590000Y-66267440D01*
X92290000Y-66267440D01*
X92537765Y-66218157D01*
X92747809Y-66077809D01*
X92888157Y-65867765D01*
X92937440Y-65620000D01*
X92937440Y-63920000D01*
X92888157Y-63672235D01*
X92747809Y-63462191D01*
X92537765Y-63321843D01*
X92434292Y-63301261D01*
X92711645Y-62996924D01*
X92881476Y-62586890D01*
X92760155Y-62357000D01*
X91567000Y-62357000D01*
X91567000Y-62377000D01*
X91313000Y-62377000D01*
X91313000Y-62357000D01*
X90119845Y-62357000D01*
X89998524Y-62586890D01*
X90168355Y-62996924D01*
X90445708Y-63301261D01*
X90342235Y-63321843D01*
X90132191Y-63462191D01*
X89991843Y-63672235D01*
X89942560Y-63920000D01*
X79608005Y-63920000D01*
X79621929Y-63850000D01*
X79475631Y-63114510D01*
X79059009Y-62490991D01*
X78435490Y-62074369D01*
X77885655Y-61965000D01*
X77514345Y-61965000D01*
X76964510Y-62074369D01*
X76340991Y-62490991D01*
X75924369Y-63114510D01*
X75778071Y-63850000D01*
X67421929Y-63850000D01*
X67275631Y-63114510D01*
X66859009Y-62490991D01*
X66235490Y-62074369D01*
X65685655Y-61965000D01*
X65314345Y-61965000D01*
X64764510Y-62074369D01*
X64140991Y-62490991D01*
X63724369Y-63114510D01*
X63578071Y-63850000D01*
X50254801Y-63850000D01*
X52231691Y-61873110D01*
X89998524Y-61873110D01*
X90119845Y-62103000D01*
X91313000Y-62103000D01*
X91313000Y-60909181D01*
X91567000Y-60909181D01*
X91567000Y-62103000D01*
X92760155Y-62103000D01*
X92881476Y-61873110D01*
X92711645Y-61463076D01*
X92321358Y-61034817D01*
X91796892Y-60788514D01*
X91567000Y-60909181D01*
X91313000Y-60909181D01*
X91083108Y-60788514D01*
X90558642Y-61034817D01*
X90168355Y-61463076D01*
X89998524Y-61873110D01*
X52231691Y-61873110D01*
X65254473Y-48850329D01*
X65317929Y-48807929D01*
X65360924Y-48743582D01*
X65485904Y-48556538D01*
X65495480Y-48508395D01*
X65530000Y-48334852D01*
X65530000Y-48334848D01*
X65544888Y-48260000D01*
X65530000Y-48185152D01*
X65530000Y-43883711D01*
X65647431Y-43766280D01*
X65805000Y-43385874D01*
X65805000Y-42974126D01*
X66275000Y-42974126D01*
X66275000Y-43385874D01*
X66432569Y-43766280D01*
X66550001Y-43883712D01*
X66550000Y-45645153D01*
X66535112Y-45720000D01*
X66550000Y-45794847D01*
X66550000Y-45794851D01*
X66594096Y-46016536D01*
X66762071Y-46267929D01*
X66825530Y-46310331D01*
X72625000Y-52109802D01*
X72625000Y-52275874D01*
X72782569Y-52656280D01*
X73073720Y-52947431D01*
X73454126Y-53105000D01*
X73865874Y-53105000D01*
X74246280Y-52947431D01*
X74537431Y-52656280D01*
X74695000Y-52275874D01*
X74695000Y-51864126D01*
X74537431Y-51483720D01*
X74246280Y-51192569D01*
X73865874Y-51035000D01*
X73699802Y-51035000D01*
X72348772Y-49683970D01*
X91235635Y-49683970D01*
X91395418Y-50002739D01*
X92186187Y-50312723D01*
X93035387Y-50296497D01*
X93744582Y-50002739D01*
X93904365Y-49683970D01*
X92570000Y-48349605D01*
X91235635Y-49683970D01*
X72348772Y-49683970D01*
X70450989Y-47786187D01*
X90427277Y-47786187D01*
X90443503Y-48635387D01*
X90737261Y-49344582D01*
X91056030Y-49504365D01*
X92390395Y-48170000D01*
X92749605Y-48170000D01*
X94083970Y-49504365D01*
X94402739Y-49344582D01*
X94712723Y-48553813D01*
X94696497Y-47704613D01*
X94402739Y-46995418D01*
X94083970Y-46835635D01*
X92749605Y-48170000D01*
X92390395Y-48170000D01*
X91056030Y-46835635D01*
X90737261Y-46995418D01*
X90427277Y-47786187D01*
X70450989Y-47786187D01*
X69320832Y-46656030D01*
X91235635Y-46656030D01*
X92570000Y-47990395D01*
X93904365Y-46656030D01*
X93744582Y-46337261D01*
X92953813Y-46027277D01*
X92104613Y-46043503D01*
X91395418Y-46337261D01*
X91235635Y-46656030D01*
X69320832Y-46656030D01*
X68070000Y-45405199D01*
X68070000Y-43883711D01*
X68187431Y-43766280D01*
X68345000Y-43385874D01*
X68345000Y-42974126D01*
X68187431Y-42593720D01*
X67896280Y-42302569D01*
X67515874Y-42145000D01*
X67104126Y-42145000D01*
X66723720Y-42302569D01*
X66432569Y-42593720D01*
X66275000Y-42974126D01*
X65805000Y-42974126D01*
X65647431Y-42593720D01*
X65356280Y-42302569D01*
X64975874Y-42145000D01*
X64564126Y-42145000D01*
X64514405Y-42165595D01*
X64535000Y-42115874D01*
X64535000Y-41704126D01*
X64377431Y-41323720D01*
X64086280Y-41032569D01*
X63705874Y-40875000D01*
X63294126Y-40875000D01*
X62913720Y-41032569D01*
X62622569Y-41323720D01*
X62465000Y-41704126D01*
X62465000Y-42115874D01*
X62622569Y-42496280D01*
X62740001Y-42613712D01*
X62740000Y-47945198D01*
X42125000Y-68560199D01*
X42125000Y-68452998D01*
X41960156Y-68452998D01*
X42081476Y-68223110D01*
X41911645Y-67813076D01*
X41521358Y-67384817D01*
X40996892Y-67138514D01*
X40767000Y-67259181D01*
X40767000Y-68453000D01*
X40787000Y-68453000D01*
X40787000Y-68707000D01*
X40767000Y-68707000D01*
X40767000Y-68727000D01*
X40513000Y-68727000D01*
X40513000Y-68707000D01*
X39319845Y-68707000D01*
X39198524Y-68936890D01*
X39368355Y-69346924D01*
X39758642Y-69775183D01*
X39888478Y-69836157D01*
X39569375Y-70049375D01*
X39241161Y-70540582D01*
X39125908Y-71120000D01*
X37450767Y-71120000D01*
X36826026Y-70495259D01*
X36004569Y-70155000D01*
X35115431Y-70155000D01*
X34293974Y-70495259D01*
X33665259Y-71123974D01*
X33325000Y-71945431D01*
X31877000Y-71945431D01*
X31877000Y-68223110D01*
X39198524Y-68223110D01*
X39319845Y-68453000D01*
X40513000Y-68453000D01*
X40513000Y-67259181D01*
X40283108Y-67138514D01*
X39758642Y-67384817D01*
X39368355Y-67813076D01*
X39198524Y-68223110D01*
X31877000Y-68223110D01*
X31877000Y-58420000D01*
X36585908Y-58420000D01*
X36701161Y-58999418D01*
X37029375Y-59490625D01*
X37047619Y-59502816D01*
X37002235Y-59511843D01*
X36792191Y-59652191D01*
X36651843Y-59862235D01*
X36602560Y-60110000D01*
X36602560Y-61810000D01*
X36651843Y-62057765D01*
X36792191Y-62267809D01*
X37002235Y-62408157D01*
X37250000Y-62457440D01*
X38950000Y-62457440D01*
X39197765Y-62408157D01*
X39407809Y-62267809D01*
X39548157Y-62057765D01*
X39597440Y-61810000D01*
X39597440Y-60110000D01*
X39548157Y-59862235D01*
X39407809Y-59652191D01*
X39197765Y-59511843D01*
X39152381Y-59502816D01*
X39170625Y-59490625D01*
X39498839Y-58999418D01*
X39614092Y-58420000D01*
X41665908Y-58420000D01*
X41781161Y-58999418D01*
X42109375Y-59490625D01*
X42127619Y-59502816D01*
X42082235Y-59511843D01*
X41872191Y-59652191D01*
X41731843Y-59862235D01*
X41682560Y-60110000D01*
X41682560Y-61810000D01*
X41731843Y-62057765D01*
X41872191Y-62267809D01*
X42082235Y-62408157D01*
X42330000Y-62457440D01*
X44030000Y-62457440D01*
X44277765Y-62408157D01*
X44487809Y-62267809D01*
X44628157Y-62057765D01*
X44677440Y-61810000D01*
X44677440Y-60110000D01*
X44628157Y-59862235D01*
X44487809Y-59652191D01*
X44277765Y-59511843D01*
X44232381Y-59502816D01*
X44250625Y-59490625D01*
X44578839Y-58999418D01*
X44694092Y-58420000D01*
X44578839Y-57840582D01*
X44250625Y-57349375D01*
X43931522Y-57136157D01*
X44061358Y-57075183D01*
X44451645Y-56646924D01*
X44621476Y-56236890D01*
X44500155Y-56007000D01*
X43307000Y-56007000D01*
X43307000Y-56027000D01*
X43053000Y-56027000D01*
X43053000Y-56007000D01*
X41859845Y-56007000D01*
X41738524Y-56236890D01*
X41908355Y-56646924D01*
X42298642Y-57075183D01*
X42428478Y-57136157D01*
X42109375Y-57349375D01*
X41781161Y-57840582D01*
X41665908Y-58420000D01*
X39614092Y-58420000D01*
X39498839Y-57840582D01*
X39170625Y-57349375D01*
X38851522Y-57136157D01*
X38981358Y-57075183D01*
X39371645Y-56646924D01*
X39541476Y-56236890D01*
X39420155Y-56007000D01*
X38227000Y-56007000D01*
X38227000Y-56027000D01*
X37973000Y-56027000D01*
X37973000Y-56007000D01*
X36779845Y-56007000D01*
X36658524Y-56236890D01*
X36828355Y-56646924D01*
X37218642Y-57075183D01*
X37348478Y-57136157D01*
X37029375Y-57349375D01*
X36701161Y-57840582D01*
X36585908Y-58420000D01*
X31877000Y-58420000D01*
X31877000Y-55523110D01*
X36658524Y-55523110D01*
X36779845Y-55753000D01*
X37973000Y-55753000D01*
X37973000Y-54559181D01*
X38227000Y-54559181D01*
X38227000Y-55753000D01*
X39420155Y-55753000D01*
X39541476Y-55523110D01*
X41738524Y-55523110D01*
X41859845Y-55753000D01*
X43053000Y-55753000D01*
X43053000Y-54559181D01*
X43307000Y-54559181D01*
X43307000Y-55753000D01*
X44500155Y-55753000D01*
X44621476Y-55523110D01*
X44451645Y-55113076D01*
X44061358Y-54684817D01*
X43536892Y-54438514D01*
X43307000Y-54559181D01*
X43053000Y-54559181D01*
X42823108Y-54438514D01*
X42298642Y-54684817D01*
X41908355Y-55113076D01*
X41738524Y-55523110D01*
X39541476Y-55523110D01*
X39371645Y-55113076D01*
X38981358Y-54684817D01*
X38456892Y-54438514D01*
X38227000Y-54559181D01*
X37973000Y-54559181D01*
X37743108Y-54438514D01*
X37218642Y-54684817D01*
X36828355Y-55113076D01*
X36658524Y-55523110D01*
X31877000Y-55523110D01*
X31877000Y-50718703D01*
X35820902Y-50718703D01*
X35925687Y-50990745D01*
X36553526Y-51225619D01*
X37223456Y-51202349D01*
X37734313Y-50990745D01*
X37839098Y-50718703D01*
X36830000Y-49709605D01*
X35820902Y-50718703D01*
X31877000Y-50718703D01*
X31877000Y-49253526D01*
X35134381Y-49253526D01*
X35157651Y-49923456D01*
X35369255Y-50434313D01*
X35641297Y-50539098D01*
X36650395Y-49530000D01*
X37009605Y-49530000D01*
X38018703Y-50539098D01*
X38290745Y-50434313D01*
X38525619Y-49806474D01*
X38502349Y-49136544D01*
X38290745Y-48625687D01*
X38018703Y-48520902D01*
X37009605Y-49530000D01*
X36650395Y-49530000D01*
X35641297Y-48520902D01*
X35369255Y-48625687D01*
X35134381Y-49253526D01*
X31877000Y-49253526D01*
X31877000Y-43400000D01*
X35132560Y-43400000D01*
X35132560Y-45500000D01*
X35181843Y-45747765D01*
X35322191Y-45957809D01*
X35416335Y-46020715D01*
X35401526Y-46035524D01*
X35145000Y-46654833D01*
X35145000Y-47325167D01*
X35401526Y-47944476D01*
X35875524Y-48418474D01*
X35914028Y-48434423D01*
X36830000Y-49350395D01*
X37745972Y-48434423D01*
X37784476Y-48418474D01*
X38258474Y-47944476D01*
X38515000Y-47325167D01*
X38515000Y-46654833D01*
X38258474Y-46035524D01*
X38243665Y-46020715D01*
X38337809Y-45957809D01*
X38478157Y-45747765D01*
X38527440Y-45500000D01*
X38527440Y-43400000D01*
X38478157Y-43152235D01*
X38337809Y-42942191D01*
X38127765Y-42801843D01*
X37880000Y-42752560D01*
X35780000Y-42752560D01*
X35532235Y-42801843D01*
X35322191Y-42942191D01*
X35181843Y-43152235D01*
X35132560Y-43400000D01*
X31877000Y-43400000D01*
X31877000Y-36543970D01*
X91235635Y-36543970D01*
X91395418Y-36862739D01*
X92186187Y-37172723D01*
X93035387Y-37156497D01*
X93744582Y-36862739D01*
X93904365Y-36543970D01*
X92570000Y-35209605D01*
X91235635Y-36543970D01*
X31877000Y-36543970D01*
X31877000Y-34646187D01*
X90427277Y-34646187D01*
X90443503Y-35495387D01*
X90737261Y-36204582D01*
X91056030Y-36364365D01*
X92390395Y-35030000D01*
X92749605Y-35030000D01*
X94083970Y-36364365D01*
X94402739Y-36204582D01*
X94712723Y-35413813D01*
X94696497Y-34564613D01*
X94402739Y-33855418D01*
X94083970Y-33695635D01*
X92749605Y-35030000D01*
X92390395Y-35030000D01*
X91056030Y-33695635D01*
X90737261Y-33855418D01*
X90427277Y-34646187D01*
X31877000Y-34646187D01*
X31877000Y-33516030D01*
X91235635Y-33516030D01*
X92570000Y-34850395D01*
X93904365Y-33516030D01*
X93744582Y-33197261D01*
X92953813Y-32887277D01*
X92104613Y-32903503D01*
X91395418Y-33197261D01*
X91235635Y-33516030D01*
X31877000Y-33516030D01*
X31877000Y-28668000D01*
X83392560Y-28668000D01*
X83392560Y-30768000D01*
X83441843Y-31015765D01*
X83582191Y-31225809D01*
X83792235Y-31366157D01*
X84040000Y-31415440D01*
X86140000Y-31415440D01*
X86387765Y-31366157D01*
X86597809Y-31225809D01*
X86738157Y-31015765D01*
X86787440Y-30768000D01*
X86787440Y-28668000D01*
X86738157Y-28420235D01*
X86597809Y-28210191D01*
X86503665Y-28147285D01*
X86518474Y-28132476D01*
X86775000Y-27513167D01*
X86775000Y-26842833D01*
X86518474Y-26223524D01*
X86202950Y-25908000D01*
X86518474Y-25592476D01*
X86775000Y-24973167D01*
X86775000Y-24302833D01*
X86518474Y-23683524D01*
X86044476Y-23209526D01*
X85425167Y-22953000D01*
X84754833Y-22953000D01*
X84135524Y-23209526D01*
X83661526Y-23683524D01*
X83405000Y-24302833D01*
X83405000Y-24973167D01*
X83661526Y-25592476D01*
X83977050Y-25908000D01*
X83661526Y-26223524D01*
X83405000Y-26842833D01*
X83405000Y-27513167D01*
X83661526Y-28132476D01*
X83676335Y-28147285D01*
X83582191Y-28210191D01*
X83441843Y-28420235D01*
X83392560Y-28668000D01*
X31877000Y-28668000D01*
X31877000Y-23540703D01*
X41408902Y-23540703D01*
X41513687Y-23812745D01*
X42141526Y-24047619D01*
X42811456Y-24024349D01*
X43322313Y-23812745D01*
X43427098Y-23540703D01*
X42418000Y-22531605D01*
X41408902Y-23540703D01*
X31877000Y-23540703D01*
X31877000Y-19875431D01*
X33325000Y-19875431D01*
X33325000Y-20764569D01*
X33665259Y-21586026D01*
X34293974Y-22214741D01*
X35115431Y-22555000D01*
X36004569Y-22555000D01*
X36826026Y-22214741D01*
X36965241Y-22075526D01*
X40722381Y-22075526D01*
X40745651Y-22745456D01*
X40957255Y-23256313D01*
X41229297Y-23361098D01*
X42238395Y-22352000D01*
X42597605Y-22352000D01*
X43513577Y-23267972D01*
X43529526Y-23306476D01*
X44003524Y-23780474D01*
X44622833Y-24037000D01*
X45293167Y-24037000D01*
X45912476Y-23780474D01*
X45927285Y-23765665D01*
X45990191Y-23859809D01*
X46200235Y-24000157D01*
X46448000Y-24049440D01*
X48548000Y-24049440D01*
X48795765Y-24000157D01*
X49005809Y-23859809D01*
X49146157Y-23649765D01*
X49167850Y-23540703D01*
X54870902Y-23540703D01*
X54975687Y-23812745D01*
X55603526Y-24047619D01*
X56273456Y-24024349D01*
X56784313Y-23812745D01*
X56889098Y-23540703D01*
X55880000Y-22531605D01*
X54870902Y-23540703D01*
X49167850Y-23540703D01*
X49195440Y-23402000D01*
X49195440Y-22075526D01*
X54184381Y-22075526D01*
X54207651Y-22745456D01*
X54419255Y-23256313D01*
X54691297Y-23361098D01*
X55700395Y-22352000D01*
X56059605Y-22352000D01*
X56975577Y-23267972D01*
X56991526Y-23306476D01*
X57465524Y-23780474D01*
X58084833Y-24037000D01*
X58755167Y-24037000D01*
X59374476Y-23780474D01*
X59389285Y-23765665D01*
X59452191Y-23859809D01*
X59662235Y-24000157D01*
X59910000Y-24049440D01*
X62010000Y-24049440D01*
X62257765Y-24000157D01*
X62467809Y-23859809D01*
X62608157Y-23649765D01*
X62657440Y-23402000D01*
X62657440Y-21302000D01*
X62608157Y-21054235D01*
X62467809Y-20844191D01*
X62257765Y-20703843D01*
X62010000Y-20654560D01*
X59910000Y-20654560D01*
X59662235Y-20703843D01*
X59452191Y-20844191D01*
X59389285Y-20938335D01*
X59374476Y-20923526D01*
X58755167Y-20667000D01*
X58084833Y-20667000D01*
X57465524Y-20923526D01*
X56991526Y-21397524D01*
X56975577Y-21436028D01*
X56059605Y-22352000D01*
X55700395Y-22352000D01*
X54691297Y-21342902D01*
X54419255Y-21447687D01*
X54184381Y-22075526D01*
X49195440Y-22075526D01*
X49195440Y-21302000D01*
X49167851Y-21163297D01*
X54870902Y-21163297D01*
X55880000Y-22172395D01*
X56889098Y-21163297D01*
X56784313Y-20891255D01*
X56156474Y-20656381D01*
X55486544Y-20679651D01*
X54975687Y-20891255D01*
X54870902Y-21163297D01*
X49167851Y-21163297D01*
X49146157Y-21054235D01*
X49005809Y-20844191D01*
X48795765Y-20703843D01*
X48548000Y-20654560D01*
X46448000Y-20654560D01*
X46200235Y-20703843D01*
X45990191Y-20844191D01*
X45927285Y-20938335D01*
X45912476Y-20923526D01*
X45293167Y-20667000D01*
X44622833Y-20667000D01*
X44003524Y-20923526D01*
X43529526Y-21397524D01*
X43513577Y-21436028D01*
X42597605Y-22352000D01*
X42238395Y-22352000D01*
X41229297Y-21342902D01*
X40957255Y-21447687D01*
X40722381Y-22075526D01*
X36965241Y-22075526D01*
X37454741Y-21586026D01*
X37629841Y-21163297D01*
X41408902Y-21163297D01*
X42418000Y-22172395D01*
X43427098Y-21163297D01*
X43322313Y-20891255D01*
X42694474Y-20656381D01*
X42024544Y-20679651D01*
X41513687Y-20891255D01*
X41408902Y-21163297D01*
X37629841Y-21163297D01*
X37795000Y-20764569D01*
X37795000Y-19875431D01*
X37759031Y-19788593D01*
X69735000Y-19788593D01*
X69735000Y-21061406D01*
X69815359Y-21465399D01*
X70121471Y-21923528D01*
X70579600Y-22229641D01*
X71120000Y-22337133D01*
X71660399Y-22229641D01*
X72118528Y-21923529D01*
X72405742Y-21493684D01*
X72429028Y-21572349D01*
X72770460Y-21994145D01*
X73247316Y-22253173D01*
X73318815Y-22267318D01*
X73533000Y-22144656D01*
X73533000Y-20552000D01*
X73513000Y-20552000D01*
X73513000Y-20298000D01*
X73533000Y-20298000D01*
X73533000Y-18705344D01*
X73787000Y-18705344D01*
X73787000Y-20298000D01*
X73807000Y-20298000D01*
X73807000Y-20552000D01*
X73787000Y-20552000D01*
X73787000Y-22144656D01*
X74001185Y-22267318D01*
X74072684Y-22253173D01*
X74549540Y-21994145D01*
X74803609Y-21680275D01*
X74851843Y-21922765D01*
X74992191Y-22132809D01*
X75202235Y-22273157D01*
X75450000Y-22322440D01*
X76950000Y-22322440D01*
X77197765Y-22273157D01*
X77407809Y-22132809D01*
X77548157Y-21922765D01*
X77597440Y-21675000D01*
X77597440Y-19875431D01*
X93015000Y-19875431D01*
X93015000Y-20764569D01*
X93355259Y-21586026D01*
X93983974Y-22214741D01*
X94805431Y-22555000D01*
X95694569Y-22555000D01*
X96516026Y-22214741D01*
X97144741Y-21586026D01*
X97485000Y-20764569D01*
X97485000Y-19875431D01*
X97144741Y-19053974D01*
X96516026Y-18425259D01*
X95694569Y-18085000D01*
X94805431Y-18085000D01*
X93983974Y-18425259D01*
X93355259Y-19053974D01*
X93015000Y-19875431D01*
X77597440Y-19875431D01*
X77597440Y-19175000D01*
X77548157Y-18927235D01*
X77407809Y-18717191D01*
X77197765Y-18576843D01*
X76950000Y-18527560D01*
X75450000Y-18527560D01*
X75202235Y-18576843D01*
X74992191Y-18717191D01*
X74851843Y-18927235D01*
X74803609Y-19169725D01*
X74549540Y-18855855D01*
X74072684Y-18596827D01*
X74001185Y-18582682D01*
X73787000Y-18705344D01*
X73533000Y-18705344D01*
X73318815Y-18582682D01*
X73247316Y-18596827D01*
X72770460Y-18855855D01*
X72429028Y-19277651D01*
X72405742Y-19356316D01*
X72118529Y-18926471D01*
X71660400Y-18620359D01*
X71120000Y-18512867D01*
X70579601Y-18620359D01*
X70121472Y-18926471D01*
X69815359Y-19384600D01*
X69735000Y-19788593D01*
X37759031Y-19788593D01*
X37454741Y-19053974D01*
X36826026Y-18425259D01*
X36004569Y-18085000D01*
X35115431Y-18085000D01*
X34293974Y-18425259D01*
X33665259Y-19053974D01*
X33325000Y-19875431D01*
X31877000Y-19875431D01*
X31877000Y-16637000D01*
X99595001Y-16637000D01*
X99595000Y-78005000D01*
G04 #@! TD*
M02*
