M48
;DRILL file {KiCad 5.0.2-bee76a0~70~ubuntu18.10.1} date Fr 06 Sep 2019 12:10:58 CEST
;FORMAT={-:-/ absolute / metric / decimal}
FMAT,2
METRIC,TZ
T1C0.400
T2C1.000
T3C1.100
T4C1.500
T5C2.300
T6C3.200
%
G90
G05
T1
X41.91Y-49.53
X44.45Y-43.18
X53.34Y-63.5
X54.61Y-36.83
X54.61Y-68.58
X58.42Y-44.45
X62.23Y-26.67
X63.5Y-41.91
X64.77Y-43.18
X67.31Y-43.18
X72.39Y-33.02
X73.66Y-52.07
X74.93Y-55.88
X76.2Y-24.13
X78.74Y-46.99
X85.09Y-41.91
T2
X43.18Y-55.88
X43.18Y-58.42
X43.18Y-60.96
X38.1Y-55.88
X38.1Y-58.42
X38.1Y-60.96
X91.44Y-62.23
X91.44Y-64.77
X40.64Y-68.58
X40.64Y-71.12
X40.64Y-73.66
X71.12Y-20.425
X73.66Y-20.425
X76.2Y-20.425
T3
X85.09Y-24.638
X85.09Y-27.178
X85.09Y-29.718
X36.83Y-44.45
X36.83Y-46.99
X36.83Y-49.53
X42.418Y-22.352
X44.958Y-22.352
X47.498Y-22.352
X55.88Y-22.352
X58.42Y-22.352
X60.96Y-22.352
T4
X63.5Y-69.85
X65.5Y-63.85
X65.5Y-75.85
X77.7Y-63.85
X77.7Y-75.85
T5
X92.57Y-35.03
X92.57Y-48.17
T6
X35.56Y-20.32
X95.25Y-20.32
X35.56Y-72.39
X95.25Y-72.39
T0
M30
