G04 #@! TF.GenerationSoftware,KiCad,Pcbnew,5.0.2-bee76a0~70~ubuntu18.10.1*
G04 #@! TF.CreationDate,2019-09-06T12:11:08+02:00*
G04 #@! TF.ProjectId,Handylader_Fach_RS458_SMD_002,48616e64-796c-4616-9465-725f46616368,rev?*
G04 #@! TF.SameCoordinates,Original*
G04 #@! TF.FileFunction,Soldermask,Top*
G04 #@! TF.FilePolarity,Negative*
%FSLAX46Y46*%
G04 Gerber Fmt 4.6, Leading zero omitted, Abs format (unit mm)*
G04 Created by KiCad (PCBNEW 5.0.2-bee76a0~70~ubuntu18.10.1) date Fr 06 Sep 2019 12:11:08 CEST*
%MOMM*%
%LPD*%
G01*
G04 APERTURE LIST*
%ADD10C,0.100000*%
G04 APERTURE END LIST*
D10*
G36*
X77811689Y-74553706D02*
X77955040Y-74567825D01*
X78200280Y-74642218D01*
X78200282Y-74642219D01*
X78426296Y-74763026D01*
X78624397Y-74925603D01*
X78786974Y-75123704D01*
X78786975Y-75123706D01*
X78907782Y-75349720D01*
X78982175Y-75594960D01*
X79007294Y-75850000D01*
X78982175Y-76105040D01*
X78907782Y-76350280D01*
X78907781Y-76350282D01*
X78786974Y-76576296D01*
X78624397Y-76774397D01*
X78426296Y-76936974D01*
X78426294Y-76936975D01*
X78200280Y-77057782D01*
X77955040Y-77132175D01*
X77811689Y-77146294D01*
X77763906Y-77151000D01*
X77636094Y-77151000D01*
X77588311Y-77146294D01*
X77444960Y-77132175D01*
X77199720Y-77057782D01*
X76973706Y-76936975D01*
X76973704Y-76936974D01*
X76775603Y-76774397D01*
X76613026Y-76576296D01*
X76492219Y-76350282D01*
X76492218Y-76350280D01*
X76417825Y-76105040D01*
X76392706Y-75850000D01*
X76417825Y-75594960D01*
X76492218Y-75349720D01*
X76613025Y-75123706D01*
X76613026Y-75123704D01*
X76775603Y-74925603D01*
X76973704Y-74763026D01*
X77199718Y-74642219D01*
X77199720Y-74642218D01*
X77444960Y-74567825D01*
X77588311Y-74553706D01*
X77636094Y-74549000D01*
X77763906Y-74549000D01*
X77811689Y-74553706D01*
X77811689Y-74553706D01*
G37*
G36*
X65611689Y-74553706D02*
X65755040Y-74567825D01*
X66000280Y-74642218D01*
X66000282Y-74642219D01*
X66226296Y-74763026D01*
X66424397Y-74925603D01*
X66586974Y-75123704D01*
X66586975Y-75123706D01*
X66707782Y-75349720D01*
X66782175Y-75594960D01*
X66807294Y-75850000D01*
X66782175Y-76105040D01*
X66707782Y-76350280D01*
X66707781Y-76350282D01*
X66586974Y-76576296D01*
X66424397Y-76774397D01*
X66226296Y-76936974D01*
X66226294Y-76936975D01*
X66000280Y-77057782D01*
X65755040Y-77132175D01*
X65611689Y-77146294D01*
X65563906Y-77151000D01*
X65436094Y-77151000D01*
X65388311Y-77146294D01*
X65244960Y-77132175D01*
X64999720Y-77057782D01*
X64773706Y-76936975D01*
X64773704Y-76936974D01*
X64575603Y-76774397D01*
X64413026Y-76576296D01*
X64292219Y-76350282D01*
X64292218Y-76350280D01*
X64217825Y-76105040D01*
X64192706Y-75850000D01*
X64217825Y-75594960D01*
X64292218Y-75349720D01*
X64413025Y-75123706D01*
X64413026Y-75123704D01*
X64575603Y-74925603D01*
X64773704Y-74763026D01*
X64999718Y-74642219D01*
X64999720Y-74642218D01*
X65244960Y-74567825D01*
X65388311Y-74553706D01*
X65436094Y-74549000D01*
X65563906Y-74549000D01*
X65611689Y-74553706D01*
X65611689Y-74553706D01*
G37*
G36*
X41541000Y-74561000D02*
X39739000Y-74561000D01*
X39739000Y-72759000D01*
X41541000Y-72759000D01*
X41541000Y-74561000D01*
X41541000Y-74561000D01*
G37*
G36*
X95625256Y-70781298D02*
X95731579Y-70802447D01*
X96032042Y-70926903D01*
X96056691Y-70943373D01*
X96302454Y-71107587D01*
X96532413Y-71337546D01*
X96532415Y-71337549D01*
X96713097Y-71607958D01*
X96822790Y-71872779D01*
X96837553Y-71908422D01*
X96901000Y-72227389D01*
X96901000Y-72552611D01*
X96837553Y-72871578D01*
X96713098Y-73172040D01*
X96532413Y-73442454D01*
X96302454Y-73672413D01*
X96302451Y-73672415D01*
X96032042Y-73853097D01*
X95731579Y-73977553D01*
X95625256Y-73998702D01*
X95412611Y-74041000D01*
X95087389Y-74041000D01*
X94874744Y-73998702D01*
X94768421Y-73977553D01*
X94467958Y-73853097D01*
X94197549Y-73672415D01*
X94197546Y-73672413D01*
X93967587Y-73442454D01*
X93786902Y-73172040D01*
X93662447Y-72871578D01*
X93599000Y-72552611D01*
X93599000Y-72227389D01*
X93662447Y-71908422D01*
X93677211Y-71872779D01*
X93786903Y-71607958D01*
X93967585Y-71337549D01*
X93967587Y-71337546D01*
X94197546Y-71107587D01*
X94443309Y-70943373D01*
X94467958Y-70926903D01*
X94768421Y-70802447D01*
X94874744Y-70781298D01*
X95087389Y-70739000D01*
X95412611Y-70739000D01*
X95625256Y-70781298D01*
X95625256Y-70781298D01*
G37*
G36*
X35935256Y-70781298D02*
X36041579Y-70802447D01*
X36342042Y-70926903D01*
X36366691Y-70943373D01*
X36612454Y-71107587D01*
X36842413Y-71337546D01*
X36842415Y-71337549D01*
X37023097Y-71607958D01*
X37132790Y-71872779D01*
X37147553Y-71908422D01*
X37211000Y-72227389D01*
X37211000Y-72552611D01*
X37147553Y-72871578D01*
X37023098Y-73172040D01*
X36842413Y-73442454D01*
X36612454Y-73672413D01*
X36612451Y-73672415D01*
X36342042Y-73853097D01*
X36041579Y-73977553D01*
X35935256Y-73998702D01*
X35722611Y-74041000D01*
X35397389Y-74041000D01*
X35184744Y-73998702D01*
X35078421Y-73977553D01*
X34777958Y-73853097D01*
X34507549Y-73672415D01*
X34507546Y-73672413D01*
X34277587Y-73442454D01*
X34096902Y-73172040D01*
X33972447Y-72871578D01*
X33909000Y-72552611D01*
X33909000Y-72227389D01*
X33972447Y-71908422D01*
X33987211Y-71872779D01*
X34096903Y-71607958D01*
X34277585Y-71337549D01*
X34277587Y-71337546D01*
X34507546Y-71107587D01*
X34753309Y-70943373D01*
X34777958Y-70926903D01*
X35078421Y-70802447D01*
X35184744Y-70781298D01*
X35397389Y-70739000D01*
X35722611Y-70739000D01*
X35935256Y-70781298D01*
X35935256Y-70781298D01*
G37*
G36*
X58609000Y-73405000D02*
X56707000Y-73405000D01*
X56707000Y-70803000D01*
X58609000Y-70803000D01*
X58609000Y-73405000D01*
X58609000Y-73405000D01*
G37*
G36*
X40750442Y-70225518D02*
X40816627Y-70232037D01*
X40929853Y-70266384D01*
X40986467Y-70283557D01*
X41125087Y-70357652D01*
X41142991Y-70367222D01*
X41178729Y-70396552D01*
X41280186Y-70479814D01*
X41363448Y-70581271D01*
X41392778Y-70617009D01*
X41392779Y-70617011D01*
X41476443Y-70773533D01*
X41493616Y-70830147D01*
X41527963Y-70943373D01*
X41545359Y-71120000D01*
X41527963Y-71296627D01*
X41515550Y-71337546D01*
X41476443Y-71466467D01*
X41402348Y-71605087D01*
X41392778Y-71622991D01*
X41363448Y-71658729D01*
X41280186Y-71760186D01*
X41178729Y-71843448D01*
X41142991Y-71872778D01*
X41142989Y-71872779D01*
X40986467Y-71956443D01*
X40929853Y-71973616D01*
X40816627Y-72007963D01*
X40750443Y-72014481D01*
X40684260Y-72021000D01*
X40595740Y-72021000D01*
X40529557Y-72014481D01*
X40463373Y-72007963D01*
X40350147Y-71973616D01*
X40293533Y-71956443D01*
X40137011Y-71872779D01*
X40137009Y-71872778D01*
X40101271Y-71843448D01*
X39999814Y-71760186D01*
X39916552Y-71658729D01*
X39887222Y-71622991D01*
X39877652Y-71605087D01*
X39803557Y-71466467D01*
X39764450Y-71337546D01*
X39752037Y-71296627D01*
X39734641Y-71120000D01*
X39752037Y-70943373D01*
X39786384Y-70830147D01*
X39803557Y-70773533D01*
X39887221Y-70617011D01*
X39887222Y-70617009D01*
X39916552Y-70581271D01*
X39999814Y-70479814D01*
X40101271Y-70396552D01*
X40137009Y-70367222D01*
X40154913Y-70357652D01*
X40293533Y-70283557D01*
X40350147Y-70266384D01*
X40463373Y-70232037D01*
X40529558Y-70225518D01*
X40595740Y-70219000D01*
X40684260Y-70219000D01*
X40750442Y-70225518D01*
X40750442Y-70225518D01*
G37*
G36*
X64801000Y-71151000D02*
X62199000Y-71151000D01*
X62199000Y-68549000D01*
X64801000Y-68549000D01*
X64801000Y-71151000D01*
X64801000Y-71151000D01*
G37*
G36*
X40750443Y-67685519D02*
X40816627Y-67692037D01*
X40929853Y-67726384D01*
X40986467Y-67743557D01*
X41125087Y-67817652D01*
X41142991Y-67827222D01*
X41178729Y-67856552D01*
X41280186Y-67939814D01*
X41363448Y-68041271D01*
X41392778Y-68077009D01*
X41392779Y-68077011D01*
X41476443Y-68233533D01*
X41476443Y-68233534D01*
X41527963Y-68403373D01*
X41545359Y-68580000D01*
X41527963Y-68756627D01*
X41493616Y-68869853D01*
X41476443Y-68926467D01*
X41402348Y-69065087D01*
X41392778Y-69082991D01*
X41363448Y-69118729D01*
X41280186Y-69220186D01*
X41178729Y-69303448D01*
X41142991Y-69332778D01*
X41142989Y-69332779D01*
X40986467Y-69416443D01*
X40929853Y-69433616D01*
X40816627Y-69467963D01*
X40750442Y-69474482D01*
X40684260Y-69481000D01*
X40595740Y-69481000D01*
X40529558Y-69474482D01*
X40463373Y-69467963D01*
X40350147Y-69433616D01*
X40293533Y-69416443D01*
X40137011Y-69332779D01*
X40137009Y-69332778D01*
X40101271Y-69303448D01*
X39999814Y-69220186D01*
X39916552Y-69118729D01*
X39887222Y-69082991D01*
X39877652Y-69065087D01*
X39803557Y-68926467D01*
X39786384Y-68869853D01*
X39752037Y-68756627D01*
X39734641Y-68580000D01*
X39752037Y-68403373D01*
X39803557Y-68233534D01*
X39803557Y-68233533D01*
X39887221Y-68077011D01*
X39887222Y-68077009D01*
X39916552Y-68041271D01*
X39999814Y-67939814D01*
X40101271Y-67856552D01*
X40137009Y-67827222D01*
X40154913Y-67817652D01*
X40293533Y-67743557D01*
X40350147Y-67726384D01*
X40463373Y-67692037D01*
X40529557Y-67685519D01*
X40595740Y-67679000D01*
X40684260Y-67679000D01*
X40750443Y-67685519D01*
X40750443Y-67685519D01*
G37*
G36*
X58609000Y-69405000D02*
X56707000Y-69405000D01*
X56707000Y-66803000D01*
X58609000Y-66803000D01*
X58609000Y-69405000D01*
X58609000Y-69405000D01*
G37*
G36*
X92341000Y-65671000D02*
X90539000Y-65671000D01*
X90539000Y-63869000D01*
X92341000Y-63869000D01*
X92341000Y-65671000D01*
X92341000Y-65671000D01*
G37*
G36*
X65611689Y-62553706D02*
X65755040Y-62567825D01*
X66000280Y-62642218D01*
X66000282Y-62642219D01*
X66226296Y-62763026D01*
X66424397Y-62925603D01*
X66586974Y-63123704D01*
X66586975Y-63123706D01*
X66707782Y-63349720D01*
X66782175Y-63594960D01*
X66807294Y-63850000D01*
X66782175Y-64105040D01*
X66707782Y-64350280D01*
X66707781Y-64350282D01*
X66586974Y-64576296D01*
X66424397Y-64774397D01*
X66226296Y-64936974D01*
X66226294Y-64936975D01*
X66000280Y-65057782D01*
X65755040Y-65132175D01*
X65611689Y-65146294D01*
X65563906Y-65151000D01*
X65436094Y-65151000D01*
X65388311Y-65146294D01*
X65244960Y-65132175D01*
X64999720Y-65057782D01*
X64773706Y-64936975D01*
X64773704Y-64936974D01*
X64575603Y-64774397D01*
X64413026Y-64576296D01*
X64292219Y-64350282D01*
X64292218Y-64350280D01*
X64217825Y-64105040D01*
X64192706Y-63850000D01*
X64217825Y-63594960D01*
X64292218Y-63349720D01*
X64413025Y-63123706D01*
X64413026Y-63123704D01*
X64575603Y-62925603D01*
X64773704Y-62763026D01*
X64999718Y-62642219D01*
X64999720Y-62642218D01*
X65244960Y-62567825D01*
X65388311Y-62553706D01*
X65436094Y-62549000D01*
X65563906Y-62549000D01*
X65611689Y-62553706D01*
X65611689Y-62553706D01*
G37*
G36*
X77811689Y-62553706D02*
X77955040Y-62567825D01*
X78200280Y-62642218D01*
X78200282Y-62642219D01*
X78426296Y-62763026D01*
X78624397Y-62925603D01*
X78786974Y-63123704D01*
X78786975Y-63123706D01*
X78907782Y-63349720D01*
X78982175Y-63594960D01*
X79007294Y-63850000D01*
X78982175Y-64105040D01*
X78907782Y-64350280D01*
X78907781Y-64350282D01*
X78786974Y-64576296D01*
X78624397Y-64774397D01*
X78426296Y-64936974D01*
X78426294Y-64936975D01*
X78200280Y-65057782D01*
X77955040Y-65132175D01*
X77811689Y-65146294D01*
X77763906Y-65151000D01*
X77636094Y-65151000D01*
X77588311Y-65146294D01*
X77444960Y-65132175D01*
X77199720Y-65057782D01*
X76973706Y-64936975D01*
X76973704Y-64936974D01*
X76775603Y-64774397D01*
X76613026Y-64576296D01*
X76492219Y-64350282D01*
X76492218Y-64350280D01*
X76417825Y-64105040D01*
X76392706Y-63850000D01*
X76417825Y-63594960D01*
X76492218Y-63349720D01*
X76613025Y-63123706D01*
X76613026Y-63123704D01*
X76775603Y-62925603D01*
X76973704Y-62763026D01*
X77199718Y-62642219D01*
X77199720Y-62642218D01*
X77444960Y-62567825D01*
X77588311Y-62553706D01*
X77636094Y-62549000D01*
X77763906Y-62549000D01*
X77811689Y-62553706D01*
X77811689Y-62553706D01*
G37*
G36*
X91547412Y-61335220D02*
X91616627Y-61342037D01*
X91720574Y-61373569D01*
X91786467Y-61393557D01*
X91882402Y-61444836D01*
X91942991Y-61477222D01*
X91978729Y-61506552D01*
X92080186Y-61589814D01*
X92163448Y-61691271D01*
X92192778Y-61727009D01*
X92192779Y-61727011D01*
X92276443Y-61883533D01*
X92276443Y-61883534D01*
X92327963Y-62053373D01*
X92345359Y-62230000D01*
X92327963Y-62406627D01*
X92293616Y-62519853D01*
X92276443Y-62576467D01*
X92241298Y-62642218D01*
X92192778Y-62732991D01*
X92168129Y-62763026D01*
X92080186Y-62870186D01*
X91978729Y-62953448D01*
X91942991Y-62982778D01*
X91942989Y-62982779D01*
X91786467Y-63066443D01*
X91729853Y-63083616D01*
X91616627Y-63117963D01*
X91558316Y-63123706D01*
X91484260Y-63131000D01*
X91395740Y-63131000D01*
X91321684Y-63123706D01*
X91263373Y-63117963D01*
X91150147Y-63083616D01*
X91093533Y-63066443D01*
X90937011Y-62982779D01*
X90937009Y-62982778D01*
X90901271Y-62953448D01*
X90799814Y-62870186D01*
X90711871Y-62763026D01*
X90687222Y-62732991D01*
X90638702Y-62642218D01*
X90603557Y-62576467D01*
X90586384Y-62519853D01*
X90552037Y-62406627D01*
X90534641Y-62230000D01*
X90552037Y-62053373D01*
X90603557Y-61883534D01*
X90603557Y-61883533D01*
X90687221Y-61727011D01*
X90687222Y-61727009D01*
X90716552Y-61691271D01*
X90799814Y-61589814D01*
X90901271Y-61506552D01*
X90937009Y-61477222D01*
X90997598Y-61444836D01*
X91093533Y-61393557D01*
X91159426Y-61373569D01*
X91263373Y-61342037D01*
X91332588Y-61335220D01*
X91395740Y-61329000D01*
X91484260Y-61329000D01*
X91547412Y-61335220D01*
X91547412Y-61335220D01*
G37*
G36*
X39001000Y-61861000D02*
X37199000Y-61861000D01*
X37199000Y-60059000D01*
X39001000Y-60059000D01*
X39001000Y-61861000D01*
X39001000Y-61861000D01*
G37*
G36*
X44081000Y-61861000D02*
X42279000Y-61861000D01*
X42279000Y-60059000D01*
X44081000Y-60059000D01*
X44081000Y-61861000D01*
X44081000Y-61861000D01*
G37*
G36*
X56222091Y-60438085D02*
X56256069Y-60448393D01*
X56287387Y-60465133D01*
X56314839Y-60487661D01*
X56337367Y-60515113D01*
X56354107Y-60546431D01*
X56364415Y-60580409D01*
X56368500Y-60621890D01*
X56368500Y-61298110D01*
X56364415Y-61339591D01*
X56354107Y-61373569D01*
X56337367Y-61404887D01*
X56314839Y-61432339D01*
X56287387Y-61454867D01*
X56256069Y-61471607D01*
X56222091Y-61481915D01*
X56180610Y-61486000D01*
X55579390Y-61486000D01*
X55537909Y-61481915D01*
X55503931Y-61471607D01*
X55472613Y-61454867D01*
X55445161Y-61432339D01*
X55422633Y-61404887D01*
X55405893Y-61373569D01*
X55395585Y-61339591D01*
X55391500Y-61298110D01*
X55391500Y-60621890D01*
X55395585Y-60580409D01*
X55405893Y-60546431D01*
X55422633Y-60515113D01*
X55445161Y-60487661D01*
X55472613Y-60465133D01*
X55503931Y-60448393D01*
X55537909Y-60438085D01*
X55579390Y-60434000D01*
X56180610Y-60434000D01*
X56222091Y-60438085D01*
X56222091Y-60438085D01*
G37*
G36*
X57797091Y-60438085D02*
X57831069Y-60448393D01*
X57862387Y-60465133D01*
X57889839Y-60487661D01*
X57912367Y-60515113D01*
X57929107Y-60546431D01*
X57939415Y-60580409D01*
X57943500Y-60621890D01*
X57943500Y-61298110D01*
X57939415Y-61339591D01*
X57929107Y-61373569D01*
X57912367Y-61404887D01*
X57889839Y-61432339D01*
X57862387Y-61454867D01*
X57831069Y-61471607D01*
X57797091Y-61481915D01*
X57755610Y-61486000D01*
X57154390Y-61486000D01*
X57112909Y-61481915D01*
X57078931Y-61471607D01*
X57047613Y-61454867D01*
X57020161Y-61432339D01*
X56997633Y-61404887D01*
X56980893Y-61373569D01*
X56970585Y-61339591D01*
X56966500Y-61298110D01*
X56966500Y-60621890D01*
X56970585Y-60580409D01*
X56980893Y-60546431D01*
X56997633Y-60515113D01*
X57020161Y-60487661D01*
X57047613Y-60465133D01*
X57078931Y-60448393D01*
X57112909Y-60438085D01*
X57154390Y-60434000D01*
X57755610Y-60434000D01*
X57797091Y-60438085D01*
X57797091Y-60438085D01*
G37*
G36*
X67026000Y-59381000D02*
X66324000Y-59381000D01*
X66324000Y-57779000D01*
X67026000Y-57779000D01*
X67026000Y-59381000D01*
X67026000Y-59381000D01*
G37*
G36*
X65756000Y-59381000D02*
X65054000Y-59381000D01*
X65054000Y-57779000D01*
X65756000Y-57779000D01*
X65756000Y-59381000D01*
X65756000Y-59381000D01*
G37*
G36*
X63216000Y-59381000D02*
X62514000Y-59381000D01*
X62514000Y-57779000D01*
X63216000Y-57779000D01*
X63216000Y-59381000D01*
X63216000Y-59381000D01*
G37*
G36*
X61946000Y-59381000D02*
X61244000Y-59381000D01*
X61244000Y-57779000D01*
X61946000Y-57779000D01*
X61946000Y-59381000D01*
X61946000Y-59381000D01*
G37*
G36*
X60676000Y-59381000D02*
X59974000Y-59381000D01*
X59974000Y-57779000D01*
X60676000Y-57779000D01*
X60676000Y-59381000D01*
X60676000Y-59381000D01*
G37*
G36*
X59406000Y-59381000D02*
X58704000Y-59381000D01*
X58704000Y-57779000D01*
X59406000Y-57779000D01*
X59406000Y-59381000D01*
X59406000Y-59381000D01*
G37*
G36*
X68296000Y-59381000D02*
X67594000Y-59381000D01*
X67594000Y-57779000D01*
X68296000Y-57779000D01*
X68296000Y-59381000D01*
X68296000Y-59381000D01*
G37*
G36*
X64486000Y-59381000D02*
X63784000Y-59381000D01*
X63784000Y-57779000D01*
X64486000Y-57779000D01*
X64486000Y-59381000D01*
X64486000Y-59381000D01*
G37*
G36*
X43290443Y-57525519D02*
X43356627Y-57532037D01*
X43469853Y-57566384D01*
X43526467Y-57583557D01*
X43665087Y-57657652D01*
X43682991Y-57667222D01*
X43718729Y-57696552D01*
X43820186Y-57779814D01*
X43903448Y-57881271D01*
X43932778Y-57917009D01*
X43932779Y-57917011D01*
X44016443Y-58073533D01*
X44016443Y-58073534D01*
X44067963Y-58243373D01*
X44085359Y-58420000D01*
X44067963Y-58596627D01*
X44033616Y-58709853D01*
X44016443Y-58766467D01*
X43942348Y-58905087D01*
X43932778Y-58922991D01*
X43903448Y-58958729D01*
X43820186Y-59060186D01*
X43718729Y-59143448D01*
X43682991Y-59172778D01*
X43682989Y-59172779D01*
X43526467Y-59256443D01*
X43469853Y-59273616D01*
X43356627Y-59307963D01*
X43290442Y-59314482D01*
X43224260Y-59321000D01*
X43135740Y-59321000D01*
X43069558Y-59314482D01*
X43003373Y-59307963D01*
X42890147Y-59273616D01*
X42833533Y-59256443D01*
X42677011Y-59172779D01*
X42677009Y-59172778D01*
X42641271Y-59143448D01*
X42539814Y-59060186D01*
X42456552Y-58958729D01*
X42427222Y-58922991D01*
X42417652Y-58905087D01*
X42343557Y-58766467D01*
X42326384Y-58709853D01*
X42292037Y-58596627D01*
X42274641Y-58420000D01*
X42292037Y-58243373D01*
X42343557Y-58073534D01*
X42343557Y-58073533D01*
X42427221Y-57917011D01*
X42427222Y-57917009D01*
X42456552Y-57881271D01*
X42539814Y-57779814D01*
X42641271Y-57696552D01*
X42677009Y-57667222D01*
X42694913Y-57657652D01*
X42833533Y-57583557D01*
X42890147Y-57566384D01*
X43003373Y-57532037D01*
X43069557Y-57525519D01*
X43135740Y-57519000D01*
X43224260Y-57519000D01*
X43290443Y-57525519D01*
X43290443Y-57525519D01*
G37*
G36*
X38210443Y-57525519D02*
X38276627Y-57532037D01*
X38389853Y-57566384D01*
X38446467Y-57583557D01*
X38585087Y-57657652D01*
X38602991Y-57667222D01*
X38638729Y-57696552D01*
X38740186Y-57779814D01*
X38823448Y-57881271D01*
X38852778Y-57917009D01*
X38852779Y-57917011D01*
X38936443Y-58073533D01*
X38936443Y-58073534D01*
X38987963Y-58243373D01*
X39005359Y-58420000D01*
X38987963Y-58596627D01*
X38953616Y-58709853D01*
X38936443Y-58766467D01*
X38862348Y-58905087D01*
X38852778Y-58922991D01*
X38823448Y-58958729D01*
X38740186Y-59060186D01*
X38638729Y-59143448D01*
X38602991Y-59172778D01*
X38602989Y-59172779D01*
X38446467Y-59256443D01*
X38389853Y-59273616D01*
X38276627Y-59307963D01*
X38210442Y-59314482D01*
X38144260Y-59321000D01*
X38055740Y-59321000D01*
X37989558Y-59314482D01*
X37923373Y-59307963D01*
X37810147Y-59273616D01*
X37753533Y-59256443D01*
X37597011Y-59172779D01*
X37597009Y-59172778D01*
X37561271Y-59143448D01*
X37459814Y-59060186D01*
X37376552Y-58958729D01*
X37347222Y-58922991D01*
X37337652Y-58905087D01*
X37263557Y-58766467D01*
X37246384Y-58709853D01*
X37212037Y-58596627D01*
X37194641Y-58420000D01*
X37212037Y-58243373D01*
X37263557Y-58073534D01*
X37263557Y-58073533D01*
X37347221Y-57917011D01*
X37347222Y-57917009D01*
X37376552Y-57881271D01*
X37459814Y-57779814D01*
X37561271Y-57696552D01*
X37597009Y-57667222D01*
X37614913Y-57657652D01*
X37753533Y-57583557D01*
X37810147Y-57566384D01*
X37923373Y-57532037D01*
X37989557Y-57525519D01*
X38055740Y-57519000D01*
X38144260Y-57519000D01*
X38210443Y-57525519D01*
X38210443Y-57525519D01*
G37*
G36*
X76751000Y-58761000D02*
X75649000Y-58761000D01*
X75649000Y-55509000D01*
X76751000Y-55509000D01*
X76751000Y-58761000D01*
X76751000Y-58761000D01*
G37*
G36*
X81831000Y-58761000D02*
X80729000Y-58761000D01*
X80729000Y-55509000D01*
X81831000Y-55509000D01*
X81831000Y-58761000D01*
X81831000Y-58761000D01*
G37*
G36*
X79291000Y-58761000D02*
X78189000Y-58761000D01*
X78189000Y-55509000D01*
X79291000Y-55509000D01*
X79291000Y-58761000D01*
X79291000Y-58761000D01*
G37*
G36*
X38210443Y-54985519D02*
X38276627Y-54992037D01*
X38389853Y-55026384D01*
X38446467Y-55043557D01*
X38585087Y-55117652D01*
X38602991Y-55127222D01*
X38638729Y-55156552D01*
X38740186Y-55239814D01*
X38823448Y-55341271D01*
X38852778Y-55377009D01*
X38852779Y-55377011D01*
X38936443Y-55533533D01*
X38936443Y-55533534D01*
X38987963Y-55703373D01*
X39005359Y-55880000D01*
X38987963Y-56056627D01*
X38953616Y-56169853D01*
X38936443Y-56226467D01*
X38862348Y-56365087D01*
X38852778Y-56382991D01*
X38823448Y-56418729D01*
X38740186Y-56520186D01*
X38638729Y-56603448D01*
X38602991Y-56632778D01*
X38602989Y-56632779D01*
X38446467Y-56716443D01*
X38389853Y-56733616D01*
X38276627Y-56767963D01*
X38210443Y-56774481D01*
X38144260Y-56781000D01*
X38055740Y-56781000D01*
X37989557Y-56774481D01*
X37923373Y-56767963D01*
X37810147Y-56733616D01*
X37753533Y-56716443D01*
X37597011Y-56632779D01*
X37597009Y-56632778D01*
X37561271Y-56603448D01*
X37459814Y-56520186D01*
X37376552Y-56418729D01*
X37347222Y-56382991D01*
X37337652Y-56365087D01*
X37263557Y-56226467D01*
X37246384Y-56169853D01*
X37212037Y-56056627D01*
X37194641Y-55880000D01*
X37212037Y-55703373D01*
X37263557Y-55533534D01*
X37263557Y-55533533D01*
X37347221Y-55377011D01*
X37347222Y-55377009D01*
X37376552Y-55341271D01*
X37459814Y-55239814D01*
X37561271Y-55156552D01*
X37597009Y-55127222D01*
X37614913Y-55117652D01*
X37753533Y-55043557D01*
X37810147Y-55026384D01*
X37923373Y-54992037D01*
X37989557Y-54985519D01*
X38055740Y-54979000D01*
X38144260Y-54979000D01*
X38210443Y-54985519D01*
X38210443Y-54985519D01*
G37*
G36*
X43290443Y-54985519D02*
X43356627Y-54992037D01*
X43469853Y-55026384D01*
X43526467Y-55043557D01*
X43665087Y-55117652D01*
X43682991Y-55127222D01*
X43718729Y-55156552D01*
X43820186Y-55239814D01*
X43903448Y-55341271D01*
X43932778Y-55377009D01*
X43932779Y-55377011D01*
X44016443Y-55533533D01*
X44016443Y-55533534D01*
X44067963Y-55703373D01*
X44085359Y-55880000D01*
X44067963Y-56056627D01*
X44033616Y-56169853D01*
X44016443Y-56226467D01*
X43942348Y-56365087D01*
X43932778Y-56382991D01*
X43903448Y-56418729D01*
X43820186Y-56520186D01*
X43718729Y-56603448D01*
X43682991Y-56632778D01*
X43682989Y-56632779D01*
X43526467Y-56716443D01*
X43469853Y-56733616D01*
X43356627Y-56767963D01*
X43290443Y-56774481D01*
X43224260Y-56781000D01*
X43135740Y-56781000D01*
X43069557Y-56774481D01*
X43003373Y-56767963D01*
X42890147Y-56733616D01*
X42833533Y-56716443D01*
X42677011Y-56632779D01*
X42677009Y-56632778D01*
X42641271Y-56603448D01*
X42539814Y-56520186D01*
X42456552Y-56418729D01*
X42427222Y-56382991D01*
X42417652Y-56365087D01*
X42343557Y-56226467D01*
X42326384Y-56169853D01*
X42292037Y-56056627D01*
X42274641Y-55880000D01*
X42292037Y-55703373D01*
X42343557Y-55533534D01*
X42343557Y-55533533D01*
X42427221Y-55377011D01*
X42427222Y-55377009D01*
X42456552Y-55341271D01*
X42539814Y-55239814D01*
X42641271Y-55156552D01*
X42677009Y-55127222D01*
X42694913Y-55117652D01*
X42833533Y-55043557D01*
X42890147Y-55026384D01*
X43003373Y-54992037D01*
X43069557Y-54985519D01*
X43135740Y-54979000D01*
X43224260Y-54979000D01*
X43290443Y-54985519D01*
X43290443Y-54985519D01*
G37*
G36*
X53121000Y-54811000D02*
X51019000Y-54811000D01*
X51019000Y-50209000D01*
X53121000Y-50209000D01*
X53121000Y-54811000D01*
X53121000Y-54811000D01*
G37*
G36*
X63216000Y-53981000D02*
X62514000Y-53981000D01*
X62514000Y-52379000D01*
X63216000Y-52379000D01*
X63216000Y-53981000D01*
X63216000Y-53981000D01*
G37*
G36*
X67026000Y-53981000D02*
X66324000Y-53981000D01*
X66324000Y-52379000D01*
X67026000Y-52379000D01*
X67026000Y-53981000D01*
X67026000Y-53981000D01*
G37*
G36*
X68296000Y-53981000D02*
X67594000Y-53981000D01*
X67594000Y-52379000D01*
X68296000Y-52379000D01*
X68296000Y-53981000D01*
X68296000Y-53981000D01*
G37*
G36*
X65756000Y-53981000D02*
X65054000Y-53981000D01*
X65054000Y-52379000D01*
X65756000Y-52379000D01*
X65756000Y-53981000D01*
X65756000Y-53981000D01*
G37*
G36*
X61946000Y-53981000D02*
X61244000Y-53981000D01*
X61244000Y-52379000D01*
X61946000Y-52379000D01*
X61946000Y-53981000D01*
X61946000Y-53981000D01*
G37*
G36*
X60676000Y-53981000D02*
X59974000Y-53981000D01*
X59974000Y-52379000D01*
X60676000Y-52379000D01*
X60676000Y-53981000D01*
X60676000Y-53981000D01*
G37*
G36*
X59406000Y-53981000D02*
X58704000Y-53981000D01*
X58704000Y-52379000D01*
X59406000Y-52379000D01*
X59406000Y-53981000D01*
X59406000Y-53981000D01*
G37*
G36*
X64486000Y-53981000D02*
X63784000Y-53981000D01*
X63784000Y-52379000D01*
X64486000Y-52379000D01*
X64486000Y-53981000D01*
X64486000Y-53981000D01*
G37*
G36*
X76751000Y-53711000D02*
X75649000Y-53711000D01*
X75649000Y-50459000D01*
X76751000Y-50459000D01*
X76751000Y-53711000D01*
X76751000Y-53711000D01*
G37*
G36*
X81831000Y-53711000D02*
X80729000Y-53711000D01*
X80729000Y-50459000D01*
X81831000Y-50459000D01*
X81831000Y-53711000D01*
X81831000Y-53711000D01*
G37*
G36*
X79291000Y-53711000D02*
X78189000Y-53711000D01*
X78189000Y-50459000D01*
X79291000Y-50459000D01*
X79291000Y-53711000D01*
X79291000Y-53711000D01*
G37*
G36*
X45274591Y-50278085D02*
X45308569Y-50288393D01*
X45339887Y-50305133D01*
X45367339Y-50327661D01*
X45389867Y-50355113D01*
X45406607Y-50386431D01*
X45416915Y-50420409D01*
X45421000Y-50461890D01*
X45421000Y-51138110D01*
X45416915Y-51179591D01*
X45406607Y-51213569D01*
X45389867Y-51244887D01*
X45367339Y-51272339D01*
X45339887Y-51294867D01*
X45308569Y-51311607D01*
X45274591Y-51321915D01*
X45233110Y-51326000D01*
X44631890Y-51326000D01*
X44590409Y-51321915D01*
X44556431Y-51311607D01*
X44525113Y-51294867D01*
X44497661Y-51272339D01*
X44475133Y-51244887D01*
X44458393Y-51213569D01*
X44448085Y-51179591D01*
X44444000Y-51138110D01*
X44444000Y-50461890D01*
X44448085Y-50420409D01*
X44458393Y-50386431D01*
X44475133Y-50355113D01*
X44497661Y-50327661D01*
X44525113Y-50305133D01*
X44556431Y-50288393D01*
X44590409Y-50278085D01*
X44631890Y-50274000D01*
X45233110Y-50274000D01*
X45274591Y-50278085D01*
X45274591Y-50278085D01*
G37*
G36*
X46849591Y-50278085D02*
X46883569Y-50288393D01*
X46914887Y-50305133D01*
X46942339Y-50327661D01*
X46964867Y-50355113D01*
X46981607Y-50386431D01*
X46991915Y-50420409D01*
X46996000Y-50461890D01*
X46996000Y-51138110D01*
X46991915Y-51179591D01*
X46981607Y-51213569D01*
X46964867Y-51244887D01*
X46942339Y-51272339D01*
X46914887Y-51294867D01*
X46883569Y-51311607D01*
X46849591Y-51321915D01*
X46808110Y-51326000D01*
X46206890Y-51326000D01*
X46165409Y-51321915D01*
X46131431Y-51311607D01*
X46100113Y-51294867D01*
X46072661Y-51272339D01*
X46050133Y-51244887D01*
X46033393Y-51213569D01*
X46023085Y-51179591D01*
X46019000Y-51138110D01*
X46019000Y-50461890D01*
X46023085Y-50420409D01*
X46033393Y-50386431D01*
X46050133Y-50355113D01*
X46072661Y-50327661D01*
X46100113Y-50305133D01*
X46131431Y-50288393D01*
X46165409Y-50278085D01*
X46206890Y-50274000D01*
X46808110Y-50274000D01*
X46849591Y-50278085D01*
X46849591Y-50278085D01*
G37*
G36*
X37044794Y-48450155D02*
X37151150Y-48471311D01*
X37221990Y-48500654D01*
X37351516Y-48554305D01*
X37351519Y-48554307D01*
X37530007Y-48673569D01*
X37531850Y-48674801D01*
X37685199Y-48828150D01*
X37805695Y-49008484D01*
X37888689Y-49208851D01*
X37931000Y-49421560D01*
X37931000Y-49638440D01*
X37888689Y-49851149D01*
X37805695Y-50051516D01*
X37685199Y-50231850D01*
X37531850Y-50385199D01*
X37531847Y-50385201D01*
X37531846Y-50385202D01*
X37404041Y-50470599D01*
X37351516Y-50505695D01*
X37221990Y-50559346D01*
X37151150Y-50588689D01*
X37044794Y-50609845D01*
X36938440Y-50631000D01*
X36721560Y-50631000D01*
X36615206Y-50609845D01*
X36508850Y-50588689D01*
X36438010Y-50559346D01*
X36308484Y-50505695D01*
X36255959Y-50470599D01*
X36128154Y-50385202D01*
X36128153Y-50385201D01*
X36128150Y-50385199D01*
X35974801Y-50231850D01*
X35854305Y-50051516D01*
X35771311Y-49851149D01*
X35729000Y-49638440D01*
X35729000Y-49421560D01*
X35771311Y-49208851D01*
X35854305Y-49008484D01*
X35974801Y-48828150D01*
X36128150Y-48674801D01*
X36129994Y-48673569D01*
X36308481Y-48554307D01*
X36308484Y-48554305D01*
X36438010Y-48500654D01*
X36508850Y-48471311D01*
X36615206Y-48450155D01*
X36721560Y-48429000D01*
X36938440Y-48429000D01*
X37044794Y-48450155D01*
X37044794Y-48450155D01*
G37*
G36*
X92922527Y-46658736D02*
X93022410Y-46678604D01*
X93304674Y-46795521D01*
X93558705Y-46965259D01*
X93774741Y-47181295D01*
X93944479Y-47435326D01*
X94061396Y-47717590D01*
X94081264Y-47817473D01*
X94121000Y-48017238D01*
X94121000Y-48322762D01*
X94081264Y-48522527D01*
X94061396Y-48622410D01*
X93944479Y-48904674D01*
X93774741Y-49158705D01*
X93558705Y-49374741D01*
X93304674Y-49544479D01*
X93022410Y-49661396D01*
X92922527Y-49681264D01*
X92722762Y-49721000D01*
X92417238Y-49721000D01*
X92217473Y-49681264D01*
X92117590Y-49661396D01*
X91835326Y-49544479D01*
X91581295Y-49374741D01*
X91365259Y-49158705D01*
X91195521Y-48904674D01*
X91078604Y-48622410D01*
X91058736Y-48522527D01*
X91019000Y-48322762D01*
X91019000Y-48017238D01*
X91058736Y-47817473D01*
X91078604Y-47717590D01*
X91195521Y-47435326D01*
X91365259Y-47181295D01*
X91581295Y-46965259D01*
X91835326Y-46795521D01*
X92117590Y-46678604D01*
X92217473Y-46658736D01*
X92417238Y-46619000D01*
X92722762Y-46619000D01*
X92922527Y-46658736D01*
X92922527Y-46658736D01*
G37*
G36*
X69176000Y-49551000D02*
X62924000Y-49551000D01*
X62924000Y-47849000D01*
X69176000Y-47849000D01*
X69176000Y-49551000D01*
X69176000Y-49551000D01*
G37*
G36*
X45274591Y-47738085D02*
X45308569Y-47748393D01*
X45339887Y-47765133D01*
X45367339Y-47787661D01*
X45389867Y-47815113D01*
X45406607Y-47846431D01*
X45416915Y-47880409D01*
X45421000Y-47921890D01*
X45421000Y-48598110D01*
X45416915Y-48639591D01*
X45406607Y-48673569D01*
X45389867Y-48704887D01*
X45367339Y-48732339D01*
X45339887Y-48754867D01*
X45308569Y-48771607D01*
X45274591Y-48781915D01*
X45233110Y-48786000D01*
X44631890Y-48786000D01*
X44590409Y-48781915D01*
X44556431Y-48771607D01*
X44525113Y-48754867D01*
X44497661Y-48732339D01*
X44475133Y-48704887D01*
X44458393Y-48673569D01*
X44448085Y-48639591D01*
X44444000Y-48598110D01*
X44444000Y-47921890D01*
X44448085Y-47880409D01*
X44458393Y-47846431D01*
X44475133Y-47815113D01*
X44497661Y-47787661D01*
X44525113Y-47765133D01*
X44556431Y-47748393D01*
X44590409Y-47738085D01*
X44631890Y-47734000D01*
X45233110Y-47734000D01*
X45274591Y-47738085D01*
X45274591Y-47738085D01*
G37*
G36*
X46849591Y-47738085D02*
X46883569Y-47748393D01*
X46914887Y-47765133D01*
X46942339Y-47787661D01*
X46964867Y-47815113D01*
X46981607Y-47846431D01*
X46991915Y-47880409D01*
X46996000Y-47921890D01*
X46996000Y-48598110D01*
X46991915Y-48639591D01*
X46981607Y-48673569D01*
X46964867Y-48704887D01*
X46942339Y-48732339D01*
X46914887Y-48754867D01*
X46883569Y-48771607D01*
X46849591Y-48781915D01*
X46808110Y-48786000D01*
X46206890Y-48786000D01*
X46165409Y-48781915D01*
X46131431Y-48771607D01*
X46100113Y-48754867D01*
X46072661Y-48732339D01*
X46050133Y-48704887D01*
X46033393Y-48673569D01*
X46023085Y-48639591D01*
X46019000Y-48598110D01*
X46019000Y-47921890D01*
X46023085Y-47880409D01*
X46033393Y-47846431D01*
X46050133Y-47815113D01*
X46072661Y-47787661D01*
X46100113Y-47765133D01*
X46131431Y-47748393D01*
X46165409Y-47738085D01*
X46206890Y-47734000D01*
X46808110Y-47734000D01*
X46849591Y-47738085D01*
X46849591Y-47738085D01*
G37*
G36*
X37044794Y-45910155D02*
X37151150Y-45931311D01*
X37221990Y-45960654D01*
X37351516Y-46014305D01*
X37351519Y-46014307D01*
X37530007Y-46133569D01*
X37531850Y-46134801D01*
X37685199Y-46288150D01*
X37685201Y-46288153D01*
X37685202Y-46288154D01*
X37733729Y-46360780D01*
X37805695Y-46468484D01*
X37837435Y-46545113D01*
X37888689Y-46668850D01*
X37931000Y-46881561D01*
X37931000Y-47098439D01*
X37898466Y-47262000D01*
X37888689Y-47311149D01*
X37805695Y-47511516D01*
X37685199Y-47691850D01*
X37531850Y-47845199D01*
X37531847Y-47845201D01*
X37531846Y-47845202D01*
X37404041Y-47930599D01*
X37351516Y-47965695D01*
X37227079Y-48017238D01*
X37151150Y-48048689D01*
X37044795Y-48069844D01*
X36938440Y-48091000D01*
X36721560Y-48091000D01*
X36615206Y-48069845D01*
X36508850Y-48048689D01*
X36432921Y-48017238D01*
X36308484Y-47965695D01*
X36255959Y-47930599D01*
X36128154Y-47845202D01*
X36128153Y-47845201D01*
X36128150Y-47845199D01*
X35974801Y-47691850D01*
X35854305Y-47511516D01*
X35771311Y-47311149D01*
X35761535Y-47262000D01*
X35729000Y-47098439D01*
X35729000Y-46881561D01*
X35771311Y-46668850D01*
X35822565Y-46545113D01*
X35854305Y-46468484D01*
X35926271Y-46360780D01*
X35974798Y-46288154D01*
X35974799Y-46288153D01*
X35974801Y-46288150D01*
X36128150Y-46134801D01*
X36129994Y-46133569D01*
X36308481Y-46014307D01*
X36308484Y-46014305D01*
X36438010Y-45960654D01*
X36508850Y-45931311D01*
X36615206Y-45910155D01*
X36721560Y-45889000D01*
X36938440Y-45889000D01*
X37044794Y-45910155D01*
X37044794Y-45910155D01*
G37*
G36*
X62651000Y-47576000D02*
X60949000Y-47576000D01*
X60949000Y-41324000D01*
X62651000Y-41324000D01*
X62651000Y-47576000D01*
X62651000Y-47576000D01*
G37*
G36*
X71151000Y-47576000D02*
X69449000Y-47576000D01*
X69449000Y-41324000D01*
X71151000Y-41324000D01*
X71151000Y-47576000D01*
X71151000Y-47576000D01*
G37*
G36*
X82892091Y-46468085D02*
X82926069Y-46478393D01*
X82957387Y-46495133D01*
X82984839Y-46517661D01*
X83007367Y-46545113D01*
X83024107Y-46576431D01*
X83034415Y-46610409D01*
X83038500Y-46651890D01*
X83038500Y-47328110D01*
X83034415Y-47369591D01*
X83024107Y-47403569D01*
X83007367Y-47434887D01*
X82984839Y-47462339D01*
X82957387Y-47484867D01*
X82926069Y-47501607D01*
X82892091Y-47511915D01*
X82850610Y-47516000D01*
X82249390Y-47516000D01*
X82207909Y-47511915D01*
X82173931Y-47501607D01*
X82142613Y-47484867D01*
X82115161Y-47462339D01*
X82092633Y-47434887D01*
X82075893Y-47403569D01*
X82065585Y-47369591D01*
X82061500Y-47328110D01*
X82061500Y-46651890D01*
X82065585Y-46610409D01*
X82075893Y-46576431D01*
X82092633Y-46545113D01*
X82115161Y-46517661D01*
X82142613Y-46495133D01*
X82173931Y-46478393D01*
X82207909Y-46468085D01*
X82249390Y-46464000D01*
X82850610Y-46464000D01*
X82892091Y-46468085D01*
X82892091Y-46468085D01*
G37*
G36*
X84467091Y-46468085D02*
X84501069Y-46478393D01*
X84532387Y-46495133D01*
X84559839Y-46517661D01*
X84582367Y-46545113D01*
X84599107Y-46576431D01*
X84609415Y-46610409D01*
X84613500Y-46651890D01*
X84613500Y-47328110D01*
X84609415Y-47369591D01*
X84599107Y-47403569D01*
X84582367Y-47434887D01*
X84559839Y-47462339D01*
X84532387Y-47484867D01*
X84501069Y-47501607D01*
X84467091Y-47511915D01*
X84425610Y-47516000D01*
X83824390Y-47516000D01*
X83782909Y-47511915D01*
X83748931Y-47501607D01*
X83717613Y-47484867D01*
X83690161Y-47462339D01*
X83667633Y-47434887D01*
X83650893Y-47403569D01*
X83640585Y-47369591D01*
X83636500Y-47328110D01*
X83636500Y-46651890D01*
X83640585Y-46610409D01*
X83650893Y-46576431D01*
X83667633Y-46545113D01*
X83690161Y-46517661D01*
X83717613Y-46495133D01*
X83748931Y-46478393D01*
X83782909Y-46468085D01*
X83824390Y-46464000D01*
X84425610Y-46464000D01*
X84467091Y-46468085D01*
X84467091Y-46468085D01*
G37*
G36*
X75754591Y-46214085D02*
X75788569Y-46224393D01*
X75819887Y-46241133D01*
X75847339Y-46263661D01*
X75869867Y-46291113D01*
X75886607Y-46322431D01*
X75896915Y-46356409D01*
X75901000Y-46397890D01*
X75901000Y-47074110D01*
X75896915Y-47115591D01*
X75886607Y-47149569D01*
X75869867Y-47180887D01*
X75847339Y-47208339D01*
X75819887Y-47230867D01*
X75788569Y-47247607D01*
X75754591Y-47257915D01*
X75713110Y-47262000D01*
X75111890Y-47262000D01*
X75070409Y-47257915D01*
X75036431Y-47247607D01*
X75005113Y-47230867D01*
X74977661Y-47208339D01*
X74955133Y-47180887D01*
X74938393Y-47149569D01*
X74928085Y-47115591D01*
X74924000Y-47074110D01*
X74924000Y-46397890D01*
X74928085Y-46356409D01*
X74938393Y-46322431D01*
X74955133Y-46291113D01*
X74977661Y-46263661D01*
X75005113Y-46241133D01*
X75036431Y-46224393D01*
X75070409Y-46214085D01*
X75111890Y-46210000D01*
X75713110Y-46210000D01*
X75754591Y-46214085D01*
X75754591Y-46214085D01*
G37*
G36*
X77329591Y-46214085D02*
X77363569Y-46224393D01*
X77394887Y-46241133D01*
X77422339Y-46263661D01*
X77444867Y-46291113D01*
X77461607Y-46322431D01*
X77471915Y-46356409D01*
X77476000Y-46397890D01*
X77476000Y-47074110D01*
X77471915Y-47115591D01*
X77461607Y-47149569D01*
X77444867Y-47180887D01*
X77422339Y-47208339D01*
X77394887Y-47230867D01*
X77363569Y-47247607D01*
X77329591Y-47257915D01*
X77288110Y-47262000D01*
X76686890Y-47262000D01*
X76645409Y-47257915D01*
X76611431Y-47247607D01*
X76580113Y-47230867D01*
X76552661Y-47208339D01*
X76530133Y-47180887D01*
X76513393Y-47149569D01*
X76503085Y-47115591D01*
X76499000Y-47074110D01*
X76499000Y-46397890D01*
X76503085Y-46356409D01*
X76513393Y-46322431D01*
X76530133Y-46291113D01*
X76552661Y-46263661D01*
X76580113Y-46241133D01*
X76611431Y-46224393D01*
X76645409Y-46214085D01*
X76686890Y-46210000D01*
X77288110Y-46210000D01*
X77329591Y-46214085D01*
X77329591Y-46214085D01*
G37*
G36*
X53121000Y-46311000D02*
X51019000Y-46311000D01*
X51019000Y-41709000D01*
X53121000Y-41709000D01*
X53121000Y-46311000D01*
X53121000Y-46311000D01*
G37*
G36*
X45274591Y-45198085D02*
X45308569Y-45208393D01*
X45339887Y-45225133D01*
X45367339Y-45247661D01*
X45389867Y-45275113D01*
X45406607Y-45306431D01*
X45416915Y-45340409D01*
X45421000Y-45381890D01*
X45421000Y-46058110D01*
X45416915Y-46099591D01*
X45406607Y-46133569D01*
X45389867Y-46164887D01*
X45367339Y-46192339D01*
X45339887Y-46214867D01*
X45308569Y-46231607D01*
X45274591Y-46241915D01*
X45233110Y-46246000D01*
X44631890Y-46246000D01*
X44590409Y-46241915D01*
X44556431Y-46231607D01*
X44525113Y-46214867D01*
X44497661Y-46192339D01*
X44475133Y-46164887D01*
X44458393Y-46133569D01*
X44448085Y-46099591D01*
X44444000Y-46058110D01*
X44444000Y-45381890D01*
X44448085Y-45340409D01*
X44458393Y-45306431D01*
X44475133Y-45275113D01*
X44497661Y-45247661D01*
X44525113Y-45225133D01*
X44556431Y-45208393D01*
X44590409Y-45198085D01*
X44631890Y-45194000D01*
X45233110Y-45194000D01*
X45274591Y-45198085D01*
X45274591Y-45198085D01*
G37*
G36*
X46849591Y-45198085D02*
X46883569Y-45208393D01*
X46914887Y-45225133D01*
X46942339Y-45247661D01*
X46964867Y-45275113D01*
X46981607Y-45306431D01*
X46991915Y-45340409D01*
X46996000Y-45381890D01*
X46996000Y-46058110D01*
X46991915Y-46099591D01*
X46981607Y-46133569D01*
X46964867Y-46164887D01*
X46942339Y-46192339D01*
X46914887Y-46214867D01*
X46883569Y-46231607D01*
X46849591Y-46241915D01*
X46808110Y-46246000D01*
X46206890Y-46246000D01*
X46165409Y-46241915D01*
X46131431Y-46231607D01*
X46100113Y-46214867D01*
X46072661Y-46192339D01*
X46050133Y-46164887D01*
X46033393Y-46133569D01*
X46023085Y-46099591D01*
X46019000Y-46058110D01*
X46019000Y-45381890D01*
X46023085Y-45340409D01*
X46033393Y-45306431D01*
X46050133Y-45275113D01*
X46072661Y-45247661D01*
X46100113Y-45225133D01*
X46131431Y-45208393D01*
X46165409Y-45198085D01*
X46206890Y-45194000D01*
X46808110Y-45194000D01*
X46849591Y-45198085D01*
X46849591Y-45198085D01*
G37*
G36*
X90551000Y-45751000D02*
X87249000Y-45751000D01*
X87249000Y-44449000D01*
X90551000Y-44449000D01*
X90551000Y-45751000D01*
X90551000Y-45751000D01*
G37*
G36*
X37931000Y-45551000D02*
X35729000Y-45551000D01*
X35729000Y-43349000D01*
X37931000Y-43349000D01*
X37931000Y-45551000D01*
X37931000Y-45551000D01*
G37*
G36*
X80834591Y-42658085D02*
X80868569Y-42668393D01*
X80899887Y-42685133D01*
X80927339Y-42707661D01*
X80949867Y-42735113D01*
X80966607Y-42766431D01*
X80976915Y-42800409D01*
X80981000Y-42841890D01*
X80981000Y-43518110D01*
X80976915Y-43559591D01*
X80966607Y-43593569D01*
X80949867Y-43624887D01*
X80927339Y-43652339D01*
X80899887Y-43674867D01*
X80868569Y-43691607D01*
X80834591Y-43701915D01*
X80793110Y-43706000D01*
X80191890Y-43706000D01*
X80150409Y-43701915D01*
X80116431Y-43691607D01*
X80085113Y-43674867D01*
X80057661Y-43652339D01*
X80035133Y-43624887D01*
X80018393Y-43593569D01*
X80008085Y-43559591D01*
X80004000Y-43518110D01*
X80004000Y-42841890D01*
X80008085Y-42800409D01*
X80018393Y-42766431D01*
X80035133Y-42735113D01*
X80057661Y-42707661D01*
X80085113Y-42685133D01*
X80116431Y-42668393D01*
X80150409Y-42658085D01*
X80191890Y-42654000D01*
X80793110Y-42654000D01*
X80834591Y-42658085D01*
X80834591Y-42658085D01*
G37*
G36*
X78599591Y-42658085D02*
X78633569Y-42668393D01*
X78664887Y-42685133D01*
X78692339Y-42707661D01*
X78714867Y-42735113D01*
X78731607Y-42766431D01*
X78741915Y-42800409D01*
X78746000Y-42841890D01*
X78746000Y-43518110D01*
X78741915Y-43559591D01*
X78731607Y-43593569D01*
X78714867Y-43624887D01*
X78692339Y-43652339D01*
X78664887Y-43674867D01*
X78633569Y-43691607D01*
X78599591Y-43701915D01*
X78558110Y-43706000D01*
X77956890Y-43706000D01*
X77915409Y-43701915D01*
X77881431Y-43691607D01*
X77850113Y-43674867D01*
X77822661Y-43652339D01*
X77800133Y-43624887D01*
X77783393Y-43593569D01*
X77773085Y-43559591D01*
X77769000Y-43518110D01*
X77769000Y-42841890D01*
X77773085Y-42800409D01*
X77783393Y-42766431D01*
X77800133Y-42735113D01*
X77822661Y-42707661D01*
X77850113Y-42685133D01*
X77881431Y-42668393D01*
X77915409Y-42658085D01*
X77956890Y-42654000D01*
X78558110Y-42654000D01*
X78599591Y-42658085D01*
X78599591Y-42658085D01*
G37*
G36*
X82409591Y-42658085D02*
X82443569Y-42668393D01*
X82474887Y-42685133D01*
X82502339Y-42707661D01*
X82524867Y-42735113D01*
X82541607Y-42766431D01*
X82551915Y-42800409D01*
X82556000Y-42841890D01*
X82556000Y-43518110D01*
X82551915Y-43559591D01*
X82541607Y-43593569D01*
X82524867Y-43624887D01*
X82502339Y-43652339D01*
X82474887Y-43674867D01*
X82443569Y-43691607D01*
X82409591Y-43701915D01*
X82368110Y-43706000D01*
X81766890Y-43706000D01*
X81725409Y-43701915D01*
X81691431Y-43691607D01*
X81660113Y-43674867D01*
X81632661Y-43652339D01*
X81610133Y-43624887D01*
X81593393Y-43593569D01*
X81583085Y-43559591D01*
X81579000Y-43518110D01*
X81579000Y-42841890D01*
X81583085Y-42800409D01*
X81593393Y-42766431D01*
X81610133Y-42735113D01*
X81632661Y-42707661D01*
X81660113Y-42685133D01*
X81691431Y-42668393D01*
X81725409Y-42658085D01*
X81766890Y-42654000D01*
X82368110Y-42654000D01*
X82409591Y-42658085D01*
X82409591Y-42658085D01*
G37*
G36*
X77024591Y-42658085D02*
X77058569Y-42668393D01*
X77089887Y-42685133D01*
X77117339Y-42707661D01*
X77139867Y-42735113D01*
X77156607Y-42766431D01*
X77166915Y-42800409D01*
X77171000Y-42841890D01*
X77171000Y-43518110D01*
X77166915Y-43559591D01*
X77156607Y-43593569D01*
X77139867Y-43624887D01*
X77117339Y-43652339D01*
X77089887Y-43674867D01*
X77058569Y-43691607D01*
X77024591Y-43701915D01*
X76983110Y-43706000D01*
X76381890Y-43706000D01*
X76340409Y-43701915D01*
X76306431Y-43691607D01*
X76275113Y-43674867D01*
X76247661Y-43652339D01*
X76225133Y-43624887D01*
X76208393Y-43593569D01*
X76198085Y-43559591D01*
X76194000Y-43518110D01*
X76194000Y-42841890D01*
X76198085Y-42800409D01*
X76208393Y-42766431D01*
X76225133Y-42735113D01*
X76247661Y-42707661D01*
X76275113Y-42685133D01*
X76306431Y-42668393D01*
X76340409Y-42658085D01*
X76381890Y-42654000D01*
X76983110Y-42654000D01*
X77024591Y-42658085D01*
X77024591Y-42658085D01*
G37*
G36*
X90551000Y-43251000D02*
X87249000Y-43251000D01*
X87249000Y-41949000D01*
X90551000Y-41949000D01*
X90551000Y-43251000D01*
X90551000Y-43251000D01*
G37*
G36*
X90551000Y-41251000D02*
X87249000Y-41251000D01*
X87249000Y-39949000D01*
X90551000Y-39949000D01*
X90551000Y-41251000D01*
X90551000Y-41251000D01*
G37*
G36*
X47637091Y-40118085D02*
X47671069Y-40128393D01*
X47702387Y-40145133D01*
X47729839Y-40167661D01*
X47752367Y-40195113D01*
X47769107Y-40226431D01*
X47779415Y-40260409D01*
X47783500Y-40301890D01*
X47783500Y-40978110D01*
X47779415Y-41019591D01*
X47769107Y-41053569D01*
X47752367Y-41084887D01*
X47729839Y-41112339D01*
X47702387Y-41134867D01*
X47671069Y-41151607D01*
X47637091Y-41161915D01*
X47595610Y-41166000D01*
X46994390Y-41166000D01*
X46952909Y-41161915D01*
X46918931Y-41151607D01*
X46887613Y-41134867D01*
X46860161Y-41112339D01*
X46837633Y-41084887D01*
X46820893Y-41053569D01*
X46810585Y-41019591D01*
X46806500Y-40978110D01*
X46806500Y-40301890D01*
X46810585Y-40260409D01*
X46820893Y-40226431D01*
X46837633Y-40195113D01*
X46860161Y-40167661D01*
X46887613Y-40145133D01*
X46918931Y-40128393D01*
X46952909Y-40118085D01*
X46994390Y-40114000D01*
X47595610Y-40114000D01*
X47637091Y-40118085D01*
X47637091Y-40118085D01*
G37*
G36*
X82409591Y-40118085D02*
X82443569Y-40128393D01*
X82474887Y-40145133D01*
X82502339Y-40167661D01*
X82524867Y-40195113D01*
X82541607Y-40226431D01*
X82551915Y-40260409D01*
X82556000Y-40301890D01*
X82556000Y-40978110D01*
X82551915Y-41019591D01*
X82541607Y-41053569D01*
X82524867Y-41084887D01*
X82502339Y-41112339D01*
X82474887Y-41134867D01*
X82443569Y-41151607D01*
X82409591Y-41161915D01*
X82368110Y-41166000D01*
X81766890Y-41166000D01*
X81725409Y-41161915D01*
X81691431Y-41151607D01*
X81660113Y-41134867D01*
X81632661Y-41112339D01*
X81610133Y-41084887D01*
X81593393Y-41053569D01*
X81583085Y-41019591D01*
X81579000Y-40978110D01*
X81579000Y-40301890D01*
X81583085Y-40260409D01*
X81593393Y-40226431D01*
X81610133Y-40195113D01*
X81632661Y-40167661D01*
X81660113Y-40145133D01*
X81691431Y-40128393D01*
X81725409Y-40118085D01*
X81766890Y-40114000D01*
X82368110Y-40114000D01*
X82409591Y-40118085D01*
X82409591Y-40118085D01*
G37*
G36*
X80834591Y-40118085D02*
X80868569Y-40128393D01*
X80899887Y-40145133D01*
X80927339Y-40167661D01*
X80949867Y-40195113D01*
X80966607Y-40226431D01*
X80976915Y-40260409D01*
X80981000Y-40301890D01*
X80981000Y-40978110D01*
X80976915Y-41019591D01*
X80966607Y-41053569D01*
X80949867Y-41084887D01*
X80927339Y-41112339D01*
X80899887Y-41134867D01*
X80868569Y-41151607D01*
X80834591Y-41161915D01*
X80793110Y-41166000D01*
X80191890Y-41166000D01*
X80150409Y-41161915D01*
X80116431Y-41151607D01*
X80085113Y-41134867D01*
X80057661Y-41112339D01*
X80035133Y-41084887D01*
X80018393Y-41053569D01*
X80008085Y-41019591D01*
X80004000Y-40978110D01*
X80004000Y-40301890D01*
X80008085Y-40260409D01*
X80018393Y-40226431D01*
X80035133Y-40195113D01*
X80057661Y-40167661D01*
X80085113Y-40145133D01*
X80116431Y-40128393D01*
X80150409Y-40118085D01*
X80191890Y-40114000D01*
X80793110Y-40114000D01*
X80834591Y-40118085D01*
X80834591Y-40118085D01*
G37*
G36*
X78599591Y-40118085D02*
X78633569Y-40128393D01*
X78664887Y-40145133D01*
X78692339Y-40167661D01*
X78714867Y-40195113D01*
X78731607Y-40226431D01*
X78741915Y-40260409D01*
X78746000Y-40301890D01*
X78746000Y-40978110D01*
X78741915Y-41019591D01*
X78731607Y-41053569D01*
X78714867Y-41084887D01*
X78692339Y-41112339D01*
X78664887Y-41134867D01*
X78633569Y-41151607D01*
X78599591Y-41161915D01*
X78558110Y-41166000D01*
X77956890Y-41166000D01*
X77915409Y-41161915D01*
X77881431Y-41151607D01*
X77850113Y-41134867D01*
X77822661Y-41112339D01*
X77800133Y-41084887D01*
X77783393Y-41053569D01*
X77773085Y-41019591D01*
X77769000Y-40978110D01*
X77769000Y-40301890D01*
X77773085Y-40260409D01*
X77783393Y-40226431D01*
X77800133Y-40195113D01*
X77822661Y-40167661D01*
X77850113Y-40145133D01*
X77881431Y-40128393D01*
X77915409Y-40118085D01*
X77956890Y-40114000D01*
X78558110Y-40114000D01*
X78599591Y-40118085D01*
X78599591Y-40118085D01*
G37*
G36*
X77024591Y-40118085D02*
X77058569Y-40128393D01*
X77089887Y-40145133D01*
X77117339Y-40167661D01*
X77139867Y-40195113D01*
X77156607Y-40226431D01*
X77166915Y-40260409D01*
X77171000Y-40301890D01*
X77171000Y-40978110D01*
X77166915Y-41019591D01*
X77156607Y-41053569D01*
X77139867Y-41084887D01*
X77117339Y-41112339D01*
X77089887Y-41134867D01*
X77058569Y-41151607D01*
X77024591Y-41161915D01*
X76983110Y-41166000D01*
X76381890Y-41166000D01*
X76340409Y-41161915D01*
X76306431Y-41151607D01*
X76275113Y-41134867D01*
X76247661Y-41112339D01*
X76225133Y-41084887D01*
X76208393Y-41053569D01*
X76198085Y-41019591D01*
X76194000Y-40978110D01*
X76194000Y-40301890D01*
X76198085Y-40260409D01*
X76208393Y-40226431D01*
X76225133Y-40195113D01*
X76247661Y-40167661D01*
X76275113Y-40145133D01*
X76306431Y-40128393D01*
X76340409Y-40118085D01*
X76381890Y-40114000D01*
X76983110Y-40114000D01*
X77024591Y-40118085D01*
X77024591Y-40118085D01*
G37*
G36*
X46062091Y-40118085D02*
X46096069Y-40128393D01*
X46127387Y-40145133D01*
X46154839Y-40167661D01*
X46177367Y-40195113D01*
X46194107Y-40226431D01*
X46204415Y-40260409D01*
X46208500Y-40301890D01*
X46208500Y-40978110D01*
X46204415Y-41019591D01*
X46194107Y-41053569D01*
X46177367Y-41084887D01*
X46154839Y-41112339D01*
X46127387Y-41134867D01*
X46096069Y-41151607D01*
X46062091Y-41161915D01*
X46020610Y-41166000D01*
X45419390Y-41166000D01*
X45377909Y-41161915D01*
X45343931Y-41151607D01*
X45312613Y-41134867D01*
X45285161Y-41112339D01*
X45262633Y-41084887D01*
X45245893Y-41053569D01*
X45235585Y-41019591D01*
X45231500Y-40978110D01*
X45231500Y-40301890D01*
X45235585Y-40260409D01*
X45245893Y-40226431D01*
X45262633Y-40195113D01*
X45285161Y-40167661D01*
X45312613Y-40145133D01*
X45343931Y-40128393D01*
X45377909Y-40118085D01*
X45419390Y-40114000D01*
X46020610Y-40114000D01*
X46062091Y-40118085D01*
X46062091Y-40118085D01*
G37*
G36*
X69176000Y-41051000D02*
X62924000Y-41051000D01*
X62924000Y-39349000D01*
X69176000Y-39349000D01*
X69176000Y-41051000D01*
X69176000Y-41051000D01*
G37*
G36*
X35419591Y-38848085D02*
X35453569Y-38858393D01*
X35484887Y-38875133D01*
X35512339Y-38897661D01*
X35534867Y-38925113D01*
X35551607Y-38956431D01*
X35561915Y-38990409D01*
X35566000Y-39031890D01*
X35566000Y-39708110D01*
X35561915Y-39749591D01*
X35551607Y-39783569D01*
X35534867Y-39814887D01*
X35512339Y-39842339D01*
X35484887Y-39864867D01*
X35453569Y-39881607D01*
X35419591Y-39891915D01*
X35378110Y-39896000D01*
X34776890Y-39896000D01*
X34735409Y-39891915D01*
X34701431Y-39881607D01*
X34670113Y-39864867D01*
X34642661Y-39842339D01*
X34620133Y-39814887D01*
X34603393Y-39783569D01*
X34593085Y-39749591D01*
X34589000Y-39708110D01*
X34589000Y-39031890D01*
X34593085Y-38990409D01*
X34603393Y-38956431D01*
X34620133Y-38925113D01*
X34642661Y-38897661D01*
X34670113Y-38875133D01*
X34701431Y-38858393D01*
X34735409Y-38848085D01*
X34776890Y-38844000D01*
X35378110Y-38844000D01*
X35419591Y-38848085D01*
X35419591Y-38848085D01*
G37*
G36*
X33844591Y-38848085D02*
X33878569Y-38858393D01*
X33909887Y-38875133D01*
X33937339Y-38897661D01*
X33959867Y-38925113D01*
X33976607Y-38956431D01*
X33986915Y-38990409D01*
X33991000Y-39031890D01*
X33991000Y-39708110D01*
X33986915Y-39749591D01*
X33976607Y-39783569D01*
X33959867Y-39814887D01*
X33937339Y-39842339D01*
X33909887Y-39864867D01*
X33878569Y-39881607D01*
X33844591Y-39891915D01*
X33803110Y-39896000D01*
X33201890Y-39896000D01*
X33160409Y-39891915D01*
X33126431Y-39881607D01*
X33095113Y-39864867D01*
X33067661Y-39842339D01*
X33045133Y-39814887D01*
X33028393Y-39783569D01*
X33018085Y-39749591D01*
X33014000Y-39708110D01*
X33014000Y-39031890D01*
X33018085Y-38990409D01*
X33028393Y-38956431D01*
X33045133Y-38925113D01*
X33067661Y-38897661D01*
X33095113Y-38875133D01*
X33126431Y-38858393D01*
X33160409Y-38848085D01*
X33201890Y-38844000D01*
X33803110Y-38844000D01*
X33844591Y-38848085D01*
X33844591Y-38848085D01*
G37*
G36*
X90551000Y-38751000D02*
X87249000Y-38751000D01*
X87249000Y-37449000D01*
X90551000Y-37449000D01*
X90551000Y-38751000D01*
X90551000Y-38751000D01*
G37*
G36*
X50659591Y-37578085D02*
X50693569Y-37588393D01*
X50724887Y-37605133D01*
X50752339Y-37627661D01*
X50774867Y-37655113D01*
X50791607Y-37686431D01*
X50801915Y-37720409D01*
X50806000Y-37761890D01*
X50806000Y-38438110D01*
X50801915Y-38479591D01*
X50791607Y-38513569D01*
X50774867Y-38544887D01*
X50752339Y-38572339D01*
X50724887Y-38594867D01*
X50693569Y-38611607D01*
X50659591Y-38621915D01*
X50618110Y-38626000D01*
X50016890Y-38626000D01*
X49975409Y-38621915D01*
X49941431Y-38611607D01*
X49910113Y-38594867D01*
X49882661Y-38572339D01*
X49860133Y-38544887D01*
X49843393Y-38513569D01*
X49833085Y-38479591D01*
X49829000Y-38438110D01*
X49829000Y-37761890D01*
X49833085Y-37720409D01*
X49843393Y-37686431D01*
X49860133Y-37655113D01*
X49882661Y-37627661D01*
X49910113Y-37605133D01*
X49941431Y-37588393D01*
X49975409Y-37578085D01*
X50016890Y-37574000D01*
X50618110Y-37574000D01*
X50659591Y-37578085D01*
X50659591Y-37578085D01*
G37*
G36*
X49084591Y-37578085D02*
X49118569Y-37588393D01*
X49149887Y-37605133D01*
X49177339Y-37627661D01*
X49199867Y-37655113D01*
X49216607Y-37686431D01*
X49226915Y-37720409D01*
X49231000Y-37761890D01*
X49231000Y-38438110D01*
X49226915Y-38479591D01*
X49216607Y-38513569D01*
X49199867Y-38544887D01*
X49177339Y-38572339D01*
X49149887Y-38594867D01*
X49118569Y-38611607D01*
X49084591Y-38621915D01*
X49043110Y-38626000D01*
X48441890Y-38626000D01*
X48400409Y-38621915D01*
X48366431Y-38611607D01*
X48335113Y-38594867D01*
X48307661Y-38572339D01*
X48285133Y-38544887D01*
X48268393Y-38513569D01*
X48258085Y-38479591D01*
X48254000Y-38438110D01*
X48254000Y-37761890D01*
X48258085Y-37720409D01*
X48268393Y-37686431D01*
X48285133Y-37655113D01*
X48307661Y-37627661D01*
X48335113Y-37605133D01*
X48366431Y-37588393D01*
X48400409Y-37578085D01*
X48441890Y-37574000D01*
X49043110Y-37574000D01*
X49084591Y-37578085D01*
X49084591Y-37578085D01*
G37*
G36*
X64070591Y-36562085D02*
X64104569Y-36572393D01*
X64135887Y-36589133D01*
X64163339Y-36611661D01*
X64185867Y-36639113D01*
X64202607Y-36670431D01*
X64212915Y-36704409D01*
X64217000Y-36745890D01*
X64217000Y-37422110D01*
X64212915Y-37463591D01*
X64202607Y-37497569D01*
X64185867Y-37528887D01*
X64163339Y-37556339D01*
X64135887Y-37578867D01*
X64104569Y-37595607D01*
X64070591Y-37605915D01*
X64029110Y-37610000D01*
X63427890Y-37610000D01*
X63386409Y-37605915D01*
X63352431Y-37595607D01*
X63321113Y-37578867D01*
X63293661Y-37556339D01*
X63271133Y-37528887D01*
X63254393Y-37497569D01*
X63244085Y-37463591D01*
X63240000Y-37422110D01*
X63240000Y-36745890D01*
X63244085Y-36704409D01*
X63254393Y-36670431D01*
X63271133Y-36639113D01*
X63293661Y-36611661D01*
X63321113Y-36589133D01*
X63352431Y-36572393D01*
X63386409Y-36562085D01*
X63427890Y-36558000D01*
X64029110Y-36558000D01*
X64070591Y-36562085D01*
X64070591Y-36562085D01*
G37*
G36*
X65645591Y-36562085D02*
X65679569Y-36572393D01*
X65710887Y-36589133D01*
X65738339Y-36611661D01*
X65760867Y-36639113D01*
X65777607Y-36670431D01*
X65787915Y-36704409D01*
X65792000Y-36745890D01*
X65792000Y-37422110D01*
X65787915Y-37463591D01*
X65777607Y-37497569D01*
X65760867Y-37528887D01*
X65738339Y-37556339D01*
X65710887Y-37578867D01*
X65679569Y-37595607D01*
X65645591Y-37605915D01*
X65604110Y-37610000D01*
X65002890Y-37610000D01*
X64961409Y-37605915D01*
X64927431Y-37595607D01*
X64896113Y-37578867D01*
X64868661Y-37556339D01*
X64846133Y-37528887D01*
X64829393Y-37497569D01*
X64819085Y-37463591D01*
X64815000Y-37422110D01*
X64815000Y-36745890D01*
X64819085Y-36704409D01*
X64829393Y-36670431D01*
X64846133Y-36639113D01*
X64868661Y-36611661D01*
X64896113Y-36589133D01*
X64927431Y-36572393D01*
X64961409Y-36562085D01*
X65002890Y-36558000D01*
X65604110Y-36558000D01*
X65645591Y-36562085D01*
X65645591Y-36562085D01*
G37*
G36*
X42251000Y-37381000D02*
X38999000Y-37381000D01*
X38999000Y-36279000D01*
X42251000Y-36279000D01*
X42251000Y-37381000D01*
X42251000Y-37381000D01*
G37*
G36*
X37201000Y-37381000D02*
X33949000Y-37381000D01*
X33949000Y-36279000D01*
X37201000Y-36279000D01*
X37201000Y-37381000D01*
X37201000Y-37381000D01*
G37*
G36*
X77329591Y-36308085D02*
X77363569Y-36318393D01*
X77394887Y-36335133D01*
X77422339Y-36357661D01*
X77444867Y-36385113D01*
X77461607Y-36416431D01*
X77471915Y-36450409D01*
X77476000Y-36491890D01*
X77476000Y-37168110D01*
X77471915Y-37209591D01*
X77461607Y-37243569D01*
X77444867Y-37274887D01*
X77422339Y-37302339D01*
X77394887Y-37324867D01*
X77363569Y-37341607D01*
X77329591Y-37351915D01*
X77288110Y-37356000D01*
X76686890Y-37356000D01*
X76645409Y-37351915D01*
X76611431Y-37341607D01*
X76580113Y-37324867D01*
X76552661Y-37302339D01*
X76530133Y-37274887D01*
X76513393Y-37243569D01*
X76503085Y-37209591D01*
X76499000Y-37168110D01*
X76499000Y-36491890D01*
X76503085Y-36450409D01*
X76513393Y-36416431D01*
X76530133Y-36385113D01*
X76552661Y-36357661D01*
X76580113Y-36335133D01*
X76611431Y-36318393D01*
X76645409Y-36308085D01*
X76686890Y-36304000D01*
X77288110Y-36304000D01*
X77329591Y-36308085D01*
X77329591Y-36308085D01*
G37*
G36*
X75754591Y-36308085D02*
X75788569Y-36318393D01*
X75819887Y-36335133D01*
X75847339Y-36357661D01*
X75869867Y-36385113D01*
X75886607Y-36416431D01*
X75896915Y-36450409D01*
X75901000Y-36491890D01*
X75901000Y-37168110D01*
X75896915Y-37209591D01*
X75886607Y-37243569D01*
X75869867Y-37274887D01*
X75847339Y-37302339D01*
X75819887Y-37324867D01*
X75788569Y-37341607D01*
X75754591Y-37351915D01*
X75713110Y-37356000D01*
X75111890Y-37356000D01*
X75070409Y-37351915D01*
X75036431Y-37341607D01*
X75005113Y-37324867D01*
X74977661Y-37302339D01*
X74955133Y-37274887D01*
X74938393Y-37243569D01*
X74928085Y-37209591D01*
X74924000Y-37168110D01*
X74924000Y-36491890D01*
X74928085Y-36450409D01*
X74938393Y-36416431D01*
X74955133Y-36385113D01*
X74977661Y-36357661D01*
X75005113Y-36335133D01*
X75036431Y-36318393D01*
X75070409Y-36308085D01*
X75111890Y-36304000D01*
X75713110Y-36304000D01*
X75754591Y-36308085D01*
X75754591Y-36308085D01*
G37*
G36*
X49084591Y-36054085D02*
X49118569Y-36064393D01*
X49149887Y-36081133D01*
X49177339Y-36103661D01*
X49199867Y-36131113D01*
X49216607Y-36162431D01*
X49226915Y-36196409D01*
X49231000Y-36237890D01*
X49231000Y-36914110D01*
X49226915Y-36955591D01*
X49216607Y-36989569D01*
X49199867Y-37020887D01*
X49177339Y-37048339D01*
X49149887Y-37070867D01*
X49118569Y-37087607D01*
X49084591Y-37097915D01*
X49043110Y-37102000D01*
X48441890Y-37102000D01*
X48400409Y-37097915D01*
X48366431Y-37087607D01*
X48335113Y-37070867D01*
X48307661Y-37048339D01*
X48285133Y-37020887D01*
X48268393Y-36989569D01*
X48258085Y-36955591D01*
X48254000Y-36914110D01*
X48254000Y-36237890D01*
X48258085Y-36196409D01*
X48268393Y-36162431D01*
X48285133Y-36131113D01*
X48307661Y-36103661D01*
X48335113Y-36081133D01*
X48366431Y-36064393D01*
X48400409Y-36054085D01*
X48441890Y-36050000D01*
X49043110Y-36050000D01*
X49084591Y-36054085D01*
X49084591Y-36054085D01*
G37*
G36*
X50659591Y-36054085D02*
X50693569Y-36064393D01*
X50724887Y-36081133D01*
X50752339Y-36103661D01*
X50774867Y-36131113D01*
X50791607Y-36162431D01*
X50801915Y-36196409D01*
X50806000Y-36237890D01*
X50806000Y-36914110D01*
X50801915Y-36955591D01*
X50791607Y-36989569D01*
X50774867Y-37020887D01*
X50752339Y-37048339D01*
X50724887Y-37070867D01*
X50693569Y-37087607D01*
X50659591Y-37097915D01*
X50618110Y-37102000D01*
X50016890Y-37102000D01*
X49975409Y-37097915D01*
X49941431Y-37087607D01*
X49910113Y-37070867D01*
X49882661Y-37048339D01*
X49860133Y-37020887D01*
X49843393Y-36989569D01*
X49833085Y-36955591D01*
X49829000Y-36914110D01*
X49829000Y-36237890D01*
X49833085Y-36196409D01*
X49843393Y-36162431D01*
X49860133Y-36131113D01*
X49882661Y-36103661D01*
X49910113Y-36081133D01*
X49941431Y-36064393D01*
X49975409Y-36054085D01*
X50016890Y-36050000D01*
X50618110Y-36050000D01*
X50659591Y-36054085D01*
X50659591Y-36054085D01*
G37*
G36*
X92922527Y-33518736D02*
X93022410Y-33538604D01*
X93304674Y-33655521D01*
X93558705Y-33825259D01*
X93774741Y-34041295D01*
X93944479Y-34295326D01*
X94052922Y-34557133D01*
X94061396Y-34577591D01*
X94121000Y-34877238D01*
X94121000Y-35182762D01*
X94090966Y-35333750D01*
X94061396Y-35482410D01*
X93944479Y-35764674D01*
X93774741Y-36018705D01*
X93558705Y-36234741D01*
X93304674Y-36404479D01*
X93022410Y-36521396D01*
X92922527Y-36541264D01*
X92722762Y-36581000D01*
X92417238Y-36581000D01*
X92217473Y-36541264D01*
X92117590Y-36521396D01*
X91835326Y-36404479D01*
X91581295Y-36234741D01*
X91365259Y-36018705D01*
X91195521Y-35764674D01*
X91078604Y-35482410D01*
X91049034Y-35333750D01*
X91019000Y-35182762D01*
X91019000Y-34877238D01*
X91078604Y-34577591D01*
X91087078Y-34557133D01*
X91195521Y-34295326D01*
X91365259Y-34041295D01*
X91581295Y-33825259D01*
X91835326Y-33655521D01*
X92117590Y-33538604D01*
X92217473Y-33518736D01*
X92417238Y-33479000D01*
X92722762Y-33479000D01*
X92922527Y-33518736D01*
X92922527Y-33518736D01*
G37*
G36*
X50659591Y-34530085D02*
X50693569Y-34540393D01*
X50724887Y-34557133D01*
X50752339Y-34579661D01*
X50774867Y-34607113D01*
X50791607Y-34638431D01*
X50801915Y-34672409D01*
X50806000Y-34713890D01*
X50806000Y-35390110D01*
X50801915Y-35431591D01*
X50791607Y-35465569D01*
X50774867Y-35496887D01*
X50752339Y-35524339D01*
X50724887Y-35546867D01*
X50693569Y-35563607D01*
X50659591Y-35573915D01*
X50618110Y-35578000D01*
X50016890Y-35578000D01*
X49975409Y-35573915D01*
X49941431Y-35563607D01*
X49910113Y-35546867D01*
X49882661Y-35524339D01*
X49860133Y-35496887D01*
X49843393Y-35465569D01*
X49833085Y-35431591D01*
X49829000Y-35390110D01*
X49829000Y-34713890D01*
X49833085Y-34672409D01*
X49843393Y-34638431D01*
X49860133Y-34607113D01*
X49882661Y-34579661D01*
X49910113Y-34557133D01*
X49941431Y-34540393D01*
X49975409Y-34530085D01*
X50016890Y-34526000D01*
X50618110Y-34526000D01*
X50659591Y-34530085D01*
X50659591Y-34530085D01*
G37*
G36*
X49084591Y-34530085D02*
X49118569Y-34540393D01*
X49149887Y-34557133D01*
X49177339Y-34579661D01*
X49199867Y-34607113D01*
X49216607Y-34638431D01*
X49226915Y-34672409D01*
X49231000Y-34713890D01*
X49231000Y-35390110D01*
X49226915Y-35431591D01*
X49216607Y-35465569D01*
X49199867Y-35496887D01*
X49177339Y-35524339D01*
X49149887Y-35546867D01*
X49118569Y-35563607D01*
X49084591Y-35573915D01*
X49043110Y-35578000D01*
X48441890Y-35578000D01*
X48400409Y-35573915D01*
X48366431Y-35563607D01*
X48335113Y-35546867D01*
X48307661Y-35524339D01*
X48285133Y-35496887D01*
X48268393Y-35465569D01*
X48258085Y-35431591D01*
X48254000Y-35390110D01*
X48254000Y-34713890D01*
X48258085Y-34672409D01*
X48268393Y-34638431D01*
X48285133Y-34607113D01*
X48307661Y-34579661D01*
X48335113Y-34557133D01*
X48366431Y-34540393D01*
X48400409Y-34530085D01*
X48441890Y-34526000D01*
X49043110Y-34526000D01*
X49084591Y-34530085D01*
X49084591Y-34530085D01*
G37*
G36*
X64166000Y-35276000D02*
X62514000Y-35276000D01*
X62514000Y-34574000D01*
X64166000Y-34574000D01*
X64166000Y-35276000D01*
X64166000Y-35276000D01*
G37*
G36*
X69566000Y-35276000D02*
X67914000Y-35276000D01*
X67914000Y-34574000D01*
X69566000Y-34574000D01*
X69566000Y-35276000D01*
X69566000Y-35276000D01*
G37*
G36*
X37201000Y-34841000D02*
X33949000Y-34841000D01*
X33949000Y-33739000D01*
X37201000Y-33739000D01*
X37201000Y-34841000D01*
X37201000Y-34841000D01*
G37*
G36*
X42251000Y-34841000D02*
X38999000Y-34841000D01*
X38999000Y-33739000D01*
X42251000Y-33739000D01*
X42251000Y-34841000D01*
X42251000Y-34841000D01*
G37*
G36*
X75754591Y-33768085D02*
X75788569Y-33778393D01*
X75819887Y-33795133D01*
X75847339Y-33817661D01*
X75869867Y-33845113D01*
X75886607Y-33876431D01*
X75896915Y-33910409D01*
X75901000Y-33951890D01*
X75901000Y-34628110D01*
X75896915Y-34669591D01*
X75886607Y-34703569D01*
X75869867Y-34734887D01*
X75847339Y-34762339D01*
X75819887Y-34784867D01*
X75788569Y-34801607D01*
X75754591Y-34811915D01*
X75713110Y-34816000D01*
X75111890Y-34816000D01*
X75070409Y-34811915D01*
X75036431Y-34801607D01*
X75005113Y-34784867D01*
X74977661Y-34762339D01*
X74955133Y-34734887D01*
X74938393Y-34703569D01*
X74928085Y-34669591D01*
X74924000Y-34628110D01*
X74924000Y-33951890D01*
X74928085Y-33910409D01*
X74938393Y-33876431D01*
X74955133Y-33845113D01*
X74977661Y-33817661D01*
X75005113Y-33795133D01*
X75036431Y-33778393D01*
X75070409Y-33768085D01*
X75111890Y-33764000D01*
X75713110Y-33764000D01*
X75754591Y-33768085D01*
X75754591Y-33768085D01*
G37*
G36*
X56704591Y-33768085D02*
X56738569Y-33778393D01*
X56769887Y-33795133D01*
X56797339Y-33817661D01*
X56819867Y-33845113D01*
X56836607Y-33876431D01*
X56846915Y-33910409D01*
X56851000Y-33951890D01*
X56851000Y-34628110D01*
X56846915Y-34669591D01*
X56836607Y-34703569D01*
X56819867Y-34734887D01*
X56797339Y-34762339D01*
X56769887Y-34784867D01*
X56738569Y-34801607D01*
X56704591Y-34811915D01*
X56663110Y-34816000D01*
X56061890Y-34816000D01*
X56020409Y-34811915D01*
X55986431Y-34801607D01*
X55955113Y-34784867D01*
X55927661Y-34762339D01*
X55905133Y-34734887D01*
X55888393Y-34703569D01*
X55878085Y-34669591D01*
X55874000Y-34628110D01*
X55874000Y-33951890D01*
X55878085Y-33910409D01*
X55888393Y-33876431D01*
X55905133Y-33845113D01*
X55927661Y-33817661D01*
X55955113Y-33795133D01*
X55986431Y-33778393D01*
X56020409Y-33768085D01*
X56061890Y-33764000D01*
X56663110Y-33764000D01*
X56704591Y-33768085D01*
X56704591Y-33768085D01*
G37*
G36*
X77329591Y-33768085D02*
X77363569Y-33778393D01*
X77394887Y-33795133D01*
X77422339Y-33817661D01*
X77444867Y-33845113D01*
X77461607Y-33876431D01*
X77471915Y-33910409D01*
X77476000Y-33951890D01*
X77476000Y-34628110D01*
X77471915Y-34669591D01*
X77461607Y-34703569D01*
X77444867Y-34734887D01*
X77422339Y-34762339D01*
X77394887Y-34784867D01*
X77363569Y-34801607D01*
X77329591Y-34811915D01*
X77288110Y-34816000D01*
X76686890Y-34816000D01*
X76645409Y-34811915D01*
X76611431Y-34801607D01*
X76580113Y-34784867D01*
X76552661Y-34762339D01*
X76530133Y-34734887D01*
X76513393Y-34703569D01*
X76503085Y-34669591D01*
X76499000Y-34628110D01*
X76499000Y-33951890D01*
X76503085Y-33910409D01*
X76513393Y-33876431D01*
X76530133Y-33845113D01*
X76552661Y-33817661D01*
X76580113Y-33795133D01*
X76611431Y-33778393D01*
X76645409Y-33768085D01*
X76686890Y-33764000D01*
X77288110Y-33764000D01*
X77329591Y-33768085D01*
X77329591Y-33768085D01*
G37*
G36*
X58279591Y-33768085D02*
X58313569Y-33778393D01*
X58344887Y-33795133D01*
X58372339Y-33817661D01*
X58394867Y-33845113D01*
X58411607Y-33876431D01*
X58421915Y-33910409D01*
X58426000Y-33951890D01*
X58426000Y-34628110D01*
X58421915Y-34669591D01*
X58411607Y-34703569D01*
X58394867Y-34734887D01*
X58372339Y-34762339D01*
X58344887Y-34784867D01*
X58313569Y-34801607D01*
X58279591Y-34811915D01*
X58238110Y-34816000D01*
X57636890Y-34816000D01*
X57595409Y-34811915D01*
X57561431Y-34801607D01*
X57530113Y-34784867D01*
X57502661Y-34762339D01*
X57480133Y-34734887D01*
X57463393Y-34703569D01*
X57453085Y-34669591D01*
X57449000Y-34628110D01*
X57449000Y-33951890D01*
X57453085Y-33910409D01*
X57463393Y-33876431D01*
X57480133Y-33845113D01*
X57502661Y-33817661D01*
X57530113Y-33795133D01*
X57561431Y-33778393D01*
X57595409Y-33768085D01*
X57636890Y-33764000D01*
X58238110Y-33764000D01*
X58279591Y-33768085D01*
X58279591Y-33768085D01*
G37*
G36*
X69566000Y-34006000D02*
X67914000Y-34006000D01*
X67914000Y-33304000D01*
X69566000Y-33304000D01*
X69566000Y-34006000D01*
X69566000Y-34006000D01*
G37*
G36*
X64166000Y-34006000D02*
X62514000Y-34006000D01*
X62514000Y-33304000D01*
X64166000Y-33304000D01*
X64166000Y-34006000D01*
X64166000Y-34006000D01*
G37*
G36*
X64166000Y-32736000D02*
X62514000Y-32736000D01*
X62514000Y-32034000D01*
X64166000Y-32034000D01*
X64166000Y-32736000D01*
X64166000Y-32736000D01*
G37*
G36*
X69566000Y-32736000D02*
X67914000Y-32736000D01*
X67914000Y-32034000D01*
X69566000Y-32034000D01*
X69566000Y-32736000D01*
X69566000Y-32736000D01*
G37*
G36*
X42251000Y-32301000D02*
X38999000Y-32301000D01*
X38999000Y-31199000D01*
X42251000Y-31199000D01*
X42251000Y-32301000D01*
X42251000Y-32301000D01*
G37*
G36*
X37201000Y-32301000D02*
X33949000Y-32301000D01*
X33949000Y-31199000D01*
X37201000Y-31199000D01*
X37201000Y-32301000D01*
X37201000Y-32301000D01*
G37*
G36*
X77329591Y-31228085D02*
X77363569Y-31238393D01*
X77394887Y-31255133D01*
X77422339Y-31277661D01*
X77444867Y-31305113D01*
X77461607Y-31336431D01*
X77471915Y-31370409D01*
X77476000Y-31411890D01*
X77476000Y-32088110D01*
X77471915Y-32129591D01*
X77461607Y-32163569D01*
X77444867Y-32194887D01*
X77422339Y-32222339D01*
X77394887Y-32244867D01*
X77363569Y-32261607D01*
X77329591Y-32271915D01*
X77288110Y-32276000D01*
X76686890Y-32276000D01*
X76645409Y-32271915D01*
X76611431Y-32261607D01*
X76580113Y-32244867D01*
X76552661Y-32222339D01*
X76530133Y-32194887D01*
X76513393Y-32163569D01*
X76503085Y-32129591D01*
X76499000Y-32088110D01*
X76499000Y-31411890D01*
X76503085Y-31370409D01*
X76513393Y-31336431D01*
X76530133Y-31305113D01*
X76552661Y-31277661D01*
X76580113Y-31255133D01*
X76611431Y-31238393D01*
X76645409Y-31228085D01*
X76686890Y-31224000D01*
X77288110Y-31224000D01*
X77329591Y-31228085D01*
X77329591Y-31228085D01*
G37*
G36*
X75754591Y-31228085D02*
X75788569Y-31238393D01*
X75819887Y-31255133D01*
X75847339Y-31277661D01*
X75869867Y-31305113D01*
X75886607Y-31336431D01*
X75896915Y-31370409D01*
X75901000Y-31411890D01*
X75901000Y-32088110D01*
X75896915Y-32129591D01*
X75886607Y-32163569D01*
X75869867Y-32194887D01*
X75847339Y-32222339D01*
X75819887Y-32244867D01*
X75788569Y-32261607D01*
X75754591Y-32271915D01*
X75713110Y-32276000D01*
X75111890Y-32276000D01*
X75070409Y-32271915D01*
X75036431Y-32261607D01*
X75005113Y-32244867D01*
X74977661Y-32222339D01*
X74955133Y-32194887D01*
X74938393Y-32163569D01*
X74928085Y-32129591D01*
X74924000Y-32088110D01*
X74924000Y-31411890D01*
X74928085Y-31370409D01*
X74938393Y-31336431D01*
X74955133Y-31305113D01*
X74977661Y-31277661D01*
X75005113Y-31255133D01*
X75036431Y-31238393D01*
X75070409Y-31228085D01*
X75111890Y-31224000D01*
X75713110Y-31224000D01*
X75754591Y-31228085D01*
X75754591Y-31228085D01*
G37*
G36*
X58279591Y-31228085D02*
X58313569Y-31238393D01*
X58344887Y-31255133D01*
X58372339Y-31277661D01*
X58394867Y-31305113D01*
X58411607Y-31336431D01*
X58421915Y-31370409D01*
X58426000Y-31411890D01*
X58426000Y-32088110D01*
X58421915Y-32129591D01*
X58411607Y-32163569D01*
X58394867Y-32194887D01*
X58372339Y-32222339D01*
X58344887Y-32244867D01*
X58313569Y-32261607D01*
X58279591Y-32271915D01*
X58238110Y-32276000D01*
X57636890Y-32276000D01*
X57595409Y-32271915D01*
X57561431Y-32261607D01*
X57530113Y-32244867D01*
X57502661Y-32222339D01*
X57480133Y-32194887D01*
X57463393Y-32163569D01*
X57453085Y-32129591D01*
X57449000Y-32088110D01*
X57449000Y-31411890D01*
X57453085Y-31370409D01*
X57463393Y-31336431D01*
X57480133Y-31305113D01*
X57502661Y-31277661D01*
X57530113Y-31255133D01*
X57561431Y-31238393D01*
X57595409Y-31228085D01*
X57636890Y-31224000D01*
X58238110Y-31224000D01*
X58279591Y-31228085D01*
X58279591Y-31228085D01*
G37*
G36*
X56704591Y-31228085D02*
X56738569Y-31238393D01*
X56769887Y-31255133D01*
X56797339Y-31277661D01*
X56819867Y-31305113D01*
X56836607Y-31336431D01*
X56846915Y-31370409D01*
X56851000Y-31411890D01*
X56851000Y-32088110D01*
X56846915Y-32129591D01*
X56836607Y-32163569D01*
X56819867Y-32194887D01*
X56797339Y-32222339D01*
X56769887Y-32244867D01*
X56738569Y-32261607D01*
X56704591Y-32271915D01*
X56663110Y-32276000D01*
X56061890Y-32276000D01*
X56020409Y-32271915D01*
X55986431Y-32261607D01*
X55955113Y-32244867D01*
X55927661Y-32222339D01*
X55905133Y-32194887D01*
X55888393Y-32163569D01*
X55878085Y-32129591D01*
X55874000Y-32088110D01*
X55874000Y-31411890D01*
X55878085Y-31370409D01*
X55888393Y-31336431D01*
X55905133Y-31305113D01*
X55927661Y-31277661D01*
X55955113Y-31255133D01*
X55986431Y-31238393D01*
X56020409Y-31228085D01*
X56061890Y-31224000D01*
X56663110Y-31224000D01*
X56704591Y-31228085D01*
X56704591Y-31228085D01*
G37*
G36*
X64166000Y-31466000D02*
X62514000Y-31466000D01*
X62514000Y-30764000D01*
X64166000Y-30764000D01*
X64166000Y-31466000D01*
X64166000Y-31466000D01*
G37*
G36*
X69566000Y-31466000D02*
X67914000Y-31466000D01*
X67914000Y-30764000D01*
X69566000Y-30764000D01*
X69566000Y-31466000D01*
X69566000Y-31466000D01*
G37*
G36*
X86191000Y-30819000D02*
X83989000Y-30819000D01*
X83989000Y-28617000D01*
X86191000Y-28617000D01*
X86191000Y-30819000D01*
X86191000Y-30819000D01*
G37*
G36*
X56704591Y-28688085D02*
X56738569Y-28698393D01*
X56769887Y-28715133D01*
X56797339Y-28737661D01*
X56819867Y-28765113D01*
X56836607Y-28796431D01*
X56846915Y-28830409D01*
X56851000Y-28871890D01*
X56851000Y-29548110D01*
X56846915Y-29589591D01*
X56836607Y-29623569D01*
X56819867Y-29654887D01*
X56797339Y-29682339D01*
X56769887Y-29704867D01*
X56738569Y-29721607D01*
X56704591Y-29731915D01*
X56663110Y-29736000D01*
X56061890Y-29736000D01*
X56020409Y-29731915D01*
X55986431Y-29721607D01*
X55955113Y-29704867D01*
X55927661Y-29682339D01*
X55905133Y-29654887D01*
X55888393Y-29623569D01*
X55878085Y-29589591D01*
X55874000Y-29548110D01*
X55874000Y-28871890D01*
X55878085Y-28830409D01*
X55888393Y-28796431D01*
X55905133Y-28765113D01*
X55927661Y-28737661D01*
X55955113Y-28715133D01*
X55986431Y-28698393D01*
X56020409Y-28688085D01*
X56061890Y-28684000D01*
X56663110Y-28684000D01*
X56704591Y-28688085D01*
X56704591Y-28688085D01*
G37*
G36*
X75754591Y-28688085D02*
X75788569Y-28698393D01*
X75819887Y-28715133D01*
X75847339Y-28737661D01*
X75869867Y-28765113D01*
X75886607Y-28796431D01*
X75896915Y-28830409D01*
X75901000Y-28871890D01*
X75901000Y-29548110D01*
X75896915Y-29589591D01*
X75886607Y-29623569D01*
X75869867Y-29654887D01*
X75847339Y-29682339D01*
X75819887Y-29704867D01*
X75788569Y-29721607D01*
X75754591Y-29731915D01*
X75713110Y-29736000D01*
X75111890Y-29736000D01*
X75070409Y-29731915D01*
X75036431Y-29721607D01*
X75005113Y-29704867D01*
X74977661Y-29682339D01*
X74955133Y-29654887D01*
X74938393Y-29623569D01*
X74928085Y-29589591D01*
X74924000Y-29548110D01*
X74924000Y-28871890D01*
X74928085Y-28830409D01*
X74938393Y-28796431D01*
X74955133Y-28765113D01*
X74977661Y-28737661D01*
X75005113Y-28715133D01*
X75036431Y-28698393D01*
X75070409Y-28688085D01*
X75111890Y-28684000D01*
X75713110Y-28684000D01*
X75754591Y-28688085D01*
X75754591Y-28688085D01*
G37*
G36*
X58279591Y-28688085D02*
X58313569Y-28698393D01*
X58344887Y-28715133D01*
X58372339Y-28737661D01*
X58394867Y-28765113D01*
X58411607Y-28796431D01*
X58421915Y-28830409D01*
X58426000Y-28871890D01*
X58426000Y-29548110D01*
X58421915Y-29589591D01*
X58411607Y-29623569D01*
X58394867Y-29654887D01*
X58372339Y-29682339D01*
X58344887Y-29704867D01*
X58313569Y-29721607D01*
X58279591Y-29731915D01*
X58238110Y-29736000D01*
X57636890Y-29736000D01*
X57595409Y-29731915D01*
X57561431Y-29721607D01*
X57530113Y-29704867D01*
X57502661Y-29682339D01*
X57480133Y-29654887D01*
X57463393Y-29623569D01*
X57453085Y-29589591D01*
X57449000Y-29548110D01*
X57449000Y-28871890D01*
X57453085Y-28830409D01*
X57463393Y-28796431D01*
X57480133Y-28765113D01*
X57502661Y-28737661D01*
X57530113Y-28715133D01*
X57561431Y-28698393D01*
X57595409Y-28688085D01*
X57636890Y-28684000D01*
X58238110Y-28684000D01*
X58279591Y-28688085D01*
X58279591Y-28688085D01*
G37*
G36*
X77329591Y-28688085D02*
X77363569Y-28698393D01*
X77394887Y-28715133D01*
X77422339Y-28737661D01*
X77444867Y-28765113D01*
X77461607Y-28796431D01*
X77471915Y-28830409D01*
X77476000Y-28871890D01*
X77476000Y-29548110D01*
X77471915Y-29589591D01*
X77461607Y-29623569D01*
X77444867Y-29654887D01*
X77422339Y-29682339D01*
X77394887Y-29704867D01*
X77363569Y-29721607D01*
X77329591Y-29731915D01*
X77288110Y-29736000D01*
X76686890Y-29736000D01*
X76645409Y-29731915D01*
X76611431Y-29721607D01*
X76580113Y-29704867D01*
X76552661Y-29682339D01*
X76530133Y-29654887D01*
X76513393Y-29623569D01*
X76503085Y-29589591D01*
X76499000Y-29548110D01*
X76499000Y-28871890D01*
X76503085Y-28830409D01*
X76513393Y-28796431D01*
X76530133Y-28765113D01*
X76552661Y-28737661D01*
X76580113Y-28715133D01*
X76611431Y-28698393D01*
X76645409Y-28688085D01*
X76686890Y-28684000D01*
X77288110Y-28684000D01*
X77329591Y-28688085D01*
X77329591Y-28688085D01*
G37*
G36*
X67169591Y-27418085D02*
X67203569Y-27428393D01*
X67234887Y-27445133D01*
X67262339Y-27467661D01*
X67284867Y-27495113D01*
X67301607Y-27526431D01*
X67311915Y-27560409D01*
X67316000Y-27601890D01*
X67316000Y-28278110D01*
X67311915Y-28319591D01*
X67301607Y-28353569D01*
X67284867Y-28384887D01*
X67262339Y-28412339D01*
X67234887Y-28434867D01*
X67203569Y-28451607D01*
X67169591Y-28461915D01*
X67128110Y-28466000D01*
X66526890Y-28466000D01*
X66485409Y-28461915D01*
X66451431Y-28451607D01*
X66420113Y-28434867D01*
X66392661Y-28412339D01*
X66370133Y-28384887D01*
X66353393Y-28353569D01*
X66343085Y-28319591D01*
X66339000Y-28278110D01*
X66339000Y-27601890D01*
X66343085Y-27560409D01*
X66353393Y-27526431D01*
X66370133Y-27495113D01*
X66392661Y-27467661D01*
X66420113Y-27445133D01*
X66451431Y-27428393D01*
X66485409Y-27418085D01*
X66526890Y-27414000D01*
X67128110Y-27414000D01*
X67169591Y-27418085D01*
X67169591Y-27418085D01*
G37*
G36*
X65594591Y-27418085D02*
X65628569Y-27428393D01*
X65659887Y-27445133D01*
X65687339Y-27467661D01*
X65709867Y-27495113D01*
X65726607Y-27526431D01*
X65736915Y-27560409D01*
X65741000Y-27601890D01*
X65741000Y-28278110D01*
X65736915Y-28319591D01*
X65726607Y-28353569D01*
X65709867Y-28384887D01*
X65687339Y-28412339D01*
X65659887Y-28434867D01*
X65628569Y-28451607D01*
X65594591Y-28461915D01*
X65553110Y-28466000D01*
X64951890Y-28466000D01*
X64910409Y-28461915D01*
X64876431Y-28451607D01*
X64845113Y-28434867D01*
X64817661Y-28412339D01*
X64795133Y-28384887D01*
X64778393Y-28353569D01*
X64768085Y-28319591D01*
X64764000Y-28278110D01*
X64764000Y-27601890D01*
X64768085Y-27560409D01*
X64778393Y-27526431D01*
X64795133Y-27495113D01*
X64817661Y-27467661D01*
X64845113Y-27445133D01*
X64876431Y-27428393D01*
X64910409Y-27418085D01*
X64951890Y-27414000D01*
X65553110Y-27414000D01*
X65594591Y-27418085D01*
X65594591Y-27418085D01*
G37*
G36*
X85304794Y-26098155D02*
X85411150Y-26119311D01*
X85481990Y-26148654D01*
X85611516Y-26202305D01*
X85791850Y-26322801D01*
X85945199Y-26476150D01*
X86065695Y-26656484D01*
X86119346Y-26786010D01*
X86148689Y-26856850D01*
X86191000Y-27069561D01*
X86191000Y-27286439D01*
X86148689Y-27499150D01*
X86137389Y-27526431D01*
X86065695Y-27699516D01*
X85945199Y-27879850D01*
X85791850Y-28033199D01*
X85611516Y-28153695D01*
X85481990Y-28207346D01*
X85411150Y-28236689D01*
X85304794Y-28257845D01*
X85198440Y-28279000D01*
X84981560Y-28279000D01*
X84875206Y-28257845D01*
X84768850Y-28236689D01*
X84698010Y-28207346D01*
X84568484Y-28153695D01*
X84388150Y-28033199D01*
X84234801Y-27879850D01*
X84114305Y-27699516D01*
X84042611Y-27526431D01*
X84031311Y-27499150D01*
X83989000Y-27286439D01*
X83989000Y-27069561D01*
X84031311Y-26856850D01*
X84060654Y-26786010D01*
X84114305Y-26656484D01*
X84234801Y-26476150D01*
X84388150Y-26322801D01*
X84568484Y-26202305D01*
X84698010Y-26148654D01*
X84768850Y-26119311D01*
X84875206Y-26098155D01*
X84981560Y-26077000D01*
X85198440Y-26077000D01*
X85304794Y-26098155D01*
X85304794Y-26098155D01*
G37*
G36*
X85304794Y-23558155D02*
X85411150Y-23579311D01*
X85481990Y-23608654D01*
X85611516Y-23662305D01*
X85791850Y-23782801D01*
X85945199Y-23936150D01*
X86065695Y-24116484D01*
X86148689Y-24316851D01*
X86191000Y-24529560D01*
X86191000Y-24746440D01*
X86148689Y-24959149D01*
X86065695Y-25159516D01*
X85945199Y-25339850D01*
X85791850Y-25493199D01*
X85611516Y-25613695D01*
X85481990Y-25667346D01*
X85411150Y-25696689D01*
X85304794Y-25717845D01*
X85198440Y-25739000D01*
X84981560Y-25739000D01*
X84875206Y-25717845D01*
X84768850Y-25696689D01*
X84698010Y-25667346D01*
X84568484Y-25613695D01*
X84388150Y-25493199D01*
X84234801Y-25339850D01*
X84114305Y-25159516D01*
X84031311Y-24959149D01*
X83989000Y-24746440D01*
X83989000Y-24529560D01*
X84031311Y-24316851D01*
X84114305Y-24116484D01*
X84234801Y-23936150D01*
X84388150Y-23782801D01*
X84568484Y-23662305D01*
X84698010Y-23608654D01*
X84768850Y-23579311D01*
X84875206Y-23558155D01*
X84981560Y-23537000D01*
X85198440Y-23537000D01*
X85304794Y-23558155D01*
X85304794Y-23558155D01*
G37*
G36*
X56094794Y-21272155D02*
X56201150Y-21293311D01*
X56271990Y-21322654D01*
X56401516Y-21376305D01*
X56401519Y-21376307D01*
X56577858Y-21494133D01*
X56581850Y-21496801D01*
X56735199Y-21650150D01*
X56735201Y-21650153D01*
X56735202Y-21650154D01*
X56785881Y-21726000D01*
X56855695Y-21830484D01*
X56938689Y-22030851D01*
X56981000Y-22243560D01*
X56981000Y-22460440D01*
X56938689Y-22673149D01*
X56855695Y-22873516D01*
X56735199Y-23053850D01*
X56581850Y-23207199D01*
X56401516Y-23327695D01*
X56271990Y-23381346D01*
X56201150Y-23410689D01*
X56094794Y-23431845D01*
X55988440Y-23453000D01*
X55771560Y-23453000D01*
X55665206Y-23431845D01*
X55558850Y-23410689D01*
X55488010Y-23381346D01*
X55358484Y-23327695D01*
X55178150Y-23207199D01*
X55024801Y-23053850D01*
X54904305Y-22873516D01*
X54821311Y-22673149D01*
X54779000Y-22460440D01*
X54779000Y-22243560D01*
X54821311Y-22030851D01*
X54904305Y-21830484D01*
X54974119Y-21726000D01*
X55024798Y-21650154D01*
X55024799Y-21650153D01*
X55024801Y-21650150D01*
X55178150Y-21496801D01*
X55182143Y-21494133D01*
X55358481Y-21376307D01*
X55358484Y-21376305D01*
X55488010Y-21322654D01*
X55558850Y-21293311D01*
X55665206Y-21272155D01*
X55771560Y-21251000D01*
X55988440Y-21251000D01*
X56094794Y-21272155D01*
X56094794Y-21272155D01*
G37*
G36*
X42632794Y-21272155D02*
X42739150Y-21293311D01*
X42809990Y-21322654D01*
X42939516Y-21376305D01*
X42939519Y-21376307D01*
X43115858Y-21494133D01*
X43119850Y-21496801D01*
X43273199Y-21650150D01*
X43273201Y-21650153D01*
X43273202Y-21650154D01*
X43323881Y-21726000D01*
X43393695Y-21830484D01*
X43476689Y-22030851D01*
X43519000Y-22243560D01*
X43519000Y-22460440D01*
X43476689Y-22673149D01*
X43393695Y-22873516D01*
X43273199Y-23053850D01*
X43119850Y-23207199D01*
X42939516Y-23327695D01*
X42809990Y-23381346D01*
X42739150Y-23410689D01*
X42632794Y-23431845D01*
X42526440Y-23453000D01*
X42309560Y-23453000D01*
X42203206Y-23431845D01*
X42096850Y-23410689D01*
X42026010Y-23381346D01*
X41896484Y-23327695D01*
X41716150Y-23207199D01*
X41562801Y-23053850D01*
X41442305Y-22873516D01*
X41359311Y-22673149D01*
X41317000Y-22460440D01*
X41317000Y-22243560D01*
X41359311Y-22030851D01*
X41442305Y-21830484D01*
X41512119Y-21726000D01*
X41562798Y-21650154D01*
X41562799Y-21650153D01*
X41562801Y-21650150D01*
X41716150Y-21496801D01*
X41720143Y-21494133D01*
X41896481Y-21376307D01*
X41896484Y-21376305D01*
X42026010Y-21322654D01*
X42096850Y-21293311D01*
X42203206Y-21272155D01*
X42309560Y-21251000D01*
X42526440Y-21251000D01*
X42632794Y-21272155D01*
X42632794Y-21272155D01*
G37*
G36*
X45172794Y-21272155D02*
X45279150Y-21293311D01*
X45349990Y-21322654D01*
X45479516Y-21376305D01*
X45479519Y-21376307D01*
X45655858Y-21494133D01*
X45659850Y-21496801D01*
X45813199Y-21650150D01*
X45813201Y-21650153D01*
X45813202Y-21650154D01*
X45863881Y-21726000D01*
X45933695Y-21830484D01*
X46016689Y-22030851D01*
X46059000Y-22243560D01*
X46059000Y-22460440D01*
X46016689Y-22673149D01*
X45933695Y-22873516D01*
X45813199Y-23053850D01*
X45659850Y-23207199D01*
X45479516Y-23327695D01*
X45349990Y-23381346D01*
X45279150Y-23410689D01*
X45172794Y-23431845D01*
X45066440Y-23453000D01*
X44849560Y-23453000D01*
X44743206Y-23431845D01*
X44636850Y-23410689D01*
X44566010Y-23381346D01*
X44436484Y-23327695D01*
X44256150Y-23207199D01*
X44102801Y-23053850D01*
X43982305Y-22873516D01*
X43899311Y-22673149D01*
X43857000Y-22460440D01*
X43857000Y-22243560D01*
X43899311Y-22030851D01*
X43982305Y-21830484D01*
X44052119Y-21726000D01*
X44102798Y-21650154D01*
X44102799Y-21650153D01*
X44102801Y-21650150D01*
X44256150Y-21496801D01*
X44260143Y-21494133D01*
X44436481Y-21376307D01*
X44436484Y-21376305D01*
X44566010Y-21322654D01*
X44636850Y-21293311D01*
X44743206Y-21272155D01*
X44849560Y-21251000D01*
X45066440Y-21251000D01*
X45172794Y-21272155D01*
X45172794Y-21272155D01*
G37*
G36*
X62061000Y-23453000D02*
X59859000Y-23453000D01*
X59859000Y-21251000D01*
X62061000Y-21251000D01*
X62061000Y-23453000D01*
X62061000Y-23453000D01*
G37*
G36*
X58634794Y-21272155D02*
X58741150Y-21293311D01*
X58811990Y-21322654D01*
X58941516Y-21376305D01*
X58941519Y-21376307D01*
X59117858Y-21494133D01*
X59121850Y-21496801D01*
X59275199Y-21650150D01*
X59275201Y-21650153D01*
X59275202Y-21650154D01*
X59325881Y-21726000D01*
X59395695Y-21830484D01*
X59478689Y-22030851D01*
X59521000Y-22243560D01*
X59521000Y-22460440D01*
X59478689Y-22673149D01*
X59395695Y-22873516D01*
X59275199Y-23053850D01*
X59121850Y-23207199D01*
X58941516Y-23327695D01*
X58811990Y-23381346D01*
X58741150Y-23410689D01*
X58634794Y-23431845D01*
X58528440Y-23453000D01*
X58311560Y-23453000D01*
X58205206Y-23431845D01*
X58098850Y-23410689D01*
X58028010Y-23381346D01*
X57898484Y-23327695D01*
X57718150Y-23207199D01*
X57564801Y-23053850D01*
X57444305Y-22873516D01*
X57361311Y-22673149D01*
X57319000Y-22460440D01*
X57319000Y-22243560D01*
X57361311Y-22030851D01*
X57444305Y-21830484D01*
X57514119Y-21726000D01*
X57564798Y-21650154D01*
X57564799Y-21650153D01*
X57564801Y-21650150D01*
X57718150Y-21496801D01*
X57722143Y-21494133D01*
X57898481Y-21376307D01*
X57898484Y-21376305D01*
X58028010Y-21322654D01*
X58098850Y-21293311D01*
X58205206Y-21272155D01*
X58311560Y-21251000D01*
X58528440Y-21251000D01*
X58634794Y-21272155D01*
X58634794Y-21272155D01*
G37*
G36*
X48599000Y-23453000D02*
X46397000Y-23453000D01*
X46397000Y-21251000D01*
X48599000Y-21251000D01*
X48599000Y-23453000D01*
X48599000Y-23453000D01*
G37*
G36*
X35935256Y-18711298D02*
X36041579Y-18732447D01*
X36342042Y-18856903D01*
X36608852Y-19035180D01*
X36612454Y-19037587D01*
X36842413Y-19267546D01*
X37023098Y-19537960D01*
X37147553Y-19838422D01*
X37211000Y-20157389D01*
X37211000Y-20482611D01*
X37147553Y-20801578D01*
X37023098Y-21102040D01*
X36842413Y-21372454D01*
X36612454Y-21602413D01*
X36612451Y-21602415D01*
X36342042Y-21783097D01*
X36041579Y-21907553D01*
X35935256Y-21928702D01*
X35722611Y-21971000D01*
X35397389Y-21971000D01*
X35184744Y-21928702D01*
X35078421Y-21907553D01*
X34777958Y-21783097D01*
X34507549Y-21602415D01*
X34507546Y-21602413D01*
X34277587Y-21372454D01*
X34096902Y-21102040D01*
X33972447Y-20801578D01*
X33909000Y-20482611D01*
X33909000Y-20157389D01*
X33972447Y-19838422D01*
X34096902Y-19537960D01*
X34277587Y-19267546D01*
X34507546Y-19037587D01*
X34511148Y-19035180D01*
X34777958Y-18856903D01*
X35078421Y-18732447D01*
X35184744Y-18711298D01*
X35397389Y-18669000D01*
X35722611Y-18669000D01*
X35935256Y-18711298D01*
X35935256Y-18711298D01*
G37*
G36*
X95625256Y-18711298D02*
X95731579Y-18732447D01*
X96032042Y-18856903D01*
X96298852Y-19035180D01*
X96302454Y-19037587D01*
X96532413Y-19267546D01*
X96713098Y-19537960D01*
X96837553Y-19838422D01*
X96901000Y-20157389D01*
X96901000Y-20482611D01*
X96837553Y-20801578D01*
X96713098Y-21102040D01*
X96532413Y-21372454D01*
X96302454Y-21602413D01*
X96302451Y-21602415D01*
X96032042Y-21783097D01*
X95731579Y-21907553D01*
X95625256Y-21928702D01*
X95412611Y-21971000D01*
X95087389Y-21971000D01*
X94874744Y-21928702D01*
X94768421Y-21907553D01*
X94467958Y-21783097D01*
X94197549Y-21602415D01*
X94197546Y-21602413D01*
X93967587Y-21372454D01*
X93786902Y-21102040D01*
X93662447Y-20801578D01*
X93599000Y-20482611D01*
X93599000Y-20157389D01*
X93662447Y-19838422D01*
X93786902Y-19537960D01*
X93967587Y-19267546D01*
X94197546Y-19037587D01*
X94201148Y-19035180D01*
X94467958Y-18856903D01*
X94768421Y-18732447D01*
X94874744Y-18711298D01*
X95087389Y-18669000D01*
X95412611Y-18669000D01*
X95625256Y-18711298D01*
X95625256Y-18711298D01*
G37*
G36*
X73817025Y-19135590D02*
X73968012Y-19181392D01*
X74107165Y-19255770D01*
X74229133Y-19355867D01*
X74329230Y-19477835D01*
X74403608Y-19616988D01*
X74449410Y-19767975D01*
X74461000Y-19885654D01*
X74461000Y-20964346D01*
X74449410Y-21082025D01*
X74403608Y-21233012D01*
X74329230Y-21372165D01*
X74229136Y-21494130D01*
X74229134Y-21494131D01*
X74229133Y-21494133D01*
X74168149Y-21544181D01*
X74107161Y-21594232D01*
X73968011Y-21668608D01*
X73817024Y-21714410D01*
X73660000Y-21729875D01*
X73502975Y-21714410D01*
X73351988Y-21668608D01*
X73212835Y-21594230D01*
X73090870Y-21494136D01*
X73090869Y-21494134D01*
X73090867Y-21494133D01*
X72994169Y-21376305D01*
X72990768Y-21372161D01*
X72916392Y-21233011D01*
X72870590Y-21082024D01*
X72859000Y-20964345D01*
X72859001Y-19885654D01*
X72870591Y-19767975D01*
X72916393Y-19616988D01*
X72990771Y-19477835D01*
X73090868Y-19355867D01*
X73212836Y-19255770D01*
X73351989Y-19181392D01*
X73502976Y-19135590D01*
X73660000Y-19120125D01*
X73817025Y-19135590D01*
X73817025Y-19135590D01*
G37*
G36*
X71277025Y-19135590D02*
X71428012Y-19181392D01*
X71567165Y-19255770D01*
X71689133Y-19355867D01*
X71789230Y-19477835D01*
X71863608Y-19616988D01*
X71909410Y-19767975D01*
X71921000Y-19885654D01*
X71921000Y-20964346D01*
X71909410Y-21082025D01*
X71863608Y-21233012D01*
X71789230Y-21372165D01*
X71689136Y-21494130D01*
X71689134Y-21494131D01*
X71689133Y-21494133D01*
X71628149Y-21544181D01*
X71567161Y-21594232D01*
X71428011Y-21668608D01*
X71277024Y-21714410D01*
X71120000Y-21729875D01*
X70962975Y-21714410D01*
X70811988Y-21668608D01*
X70672835Y-21594230D01*
X70550870Y-21494136D01*
X70550869Y-21494134D01*
X70550867Y-21494133D01*
X70454169Y-21376305D01*
X70450768Y-21372161D01*
X70376392Y-21233011D01*
X70330590Y-21082024D01*
X70319000Y-20964345D01*
X70319001Y-19885654D01*
X70330591Y-19767975D01*
X70376393Y-19616988D01*
X70450771Y-19477835D01*
X70550868Y-19355867D01*
X70672836Y-19255770D01*
X70811989Y-19181392D01*
X70962976Y-19135590D01*
X71120000Y-19120125D01*
X71277025Y-19135590D01*
X71277025Y-19135590D01*
G37*
G36*
X77001000Y-21726000D02*
X75399000Y-21726000D01*
X75399000Y-19124000D01*
X77001000Y-19124000D01*
X77001000Y-21726000D01*
X77001000Y-21726000D01*
G37*
M02*
