G04 #@! TF.GenerationSoftware,KiCad,Pcbnew,5.0.2-bee76a0~70~ubuntu18.10.1*
G04 #@! TF.CreationDate,2019-09-06T12:11:08+02:00*
G04 #@! TF.ProjectId,Handylader_Fach_RS458_SMD_002,48616e64-796c-4616-9465-725f46616368,rev?*
G04 #@! TF.SameCoordinates,Original*
G04 #@! TF.FileFunction,Soldermask,Bot*
G04 #@! TF.FilePolarity,Negative*
%FSLAX46Y46*%
G04 Gerber Fmt 4.6, Leading zero omitted, Abs format (unit mm)*
G04 Created by KiCad (PCBNEW 5.0.2-bee76a0~70~ubuntu18.10.1) date Fr 06 Sep 2019 12:11:08 CEST*
%MOMM*%
%LPD*%
G01*
G04 APERTURE LIST*
%ADD10C,0.100000*%
G04 APERTURE END LIST*
D10*
G36*
X77811689Y-74553706D02*
X77955040Y-74567825D01*
X78200280Y-74642218D01*
X78200282Y-74642219D01*
X78426296Y-74763026D01*
X78624397Y-74925603D01*
X78786974Y-75123704D01*
X78786975Y-75123706D01*
X78907782Y-75349720D01*
X78982175Y-75594960D01*
X79007294Y-75850000D01*
X78982175Y-76105040D01*
X78907782Y-76350280D01*
X78907781Y-76350282D01*
X78786974Y-76576296D01*
X78624397Y-76774397D01*
X78426296Y-76936974D01*
X78426294Y-76936975D01*
X78200280Y-77057782D01*
X77955040Y-77132175D01*
X77811689Y-77146294D01*
X77763906Y-77151000D01*
X77636094Y-77151000D01*
X77588311Y-77146294D01*
X77444960Y-77132175D01*
X77199720Y-77057782D01*
X76973706Y-76936975D01*
X76973704Y-76936974D01*
X76775603Y-76774397D01*
X76613026Y-76576296D01*
X76492219Y-76350282D01*
X76492218Y-76350280D01*
X76417825Y-76105040D01*
X76392706Y-75850000D01*
X76417825Y-75594960D01*
X76492218Y-75349720D01*
X76613025Y-75123706D01*
X76613026Y-75123704D01*
X76775603Y-74925603D01*
X76973704Y-74763026D01*
X77199718Y-74642219D01*
X77199720Y-74642218D01*
X77444960Y-74567825D01*
X77588311Y-74553706D01*
X77636094Y-74549000D01*
X77763906Y-74549000D01*
X77811689Y-74553706D01*
X77811689Y-74553706D01*
G37*
G36*
X65611689Y-74553706D02*
X65755040Y-74567825D01*
X66000280Y-74642218D01*
X66000282Y-74642219D01*
X66226296Y-74763026D01*
X66424397Y-74925603D01*
X66586974Y-75123704D01*
X66586975Y-75123706D01*
X66707782Y-75349720D01*
X66782175Y-75594960D01*
X66807294Y-75850000D01*
X66782175Y-76105040D01*
X66707782Y-76350280D01*
X66707781Y-76350282D01*
X66586974Y-76576296D01*
X66424397Y-76774397D01*
X66226296Y-76936974D01*
X66226294Y-76936975D01*
X66000280Y-77057782D01*
X65755040Y-77132175D01*
X65611689Y-77146294D01*
X65563906Y-77151000D01*
X65436094Y-77151000D01*
X65388311Y-77146294D01*
X65244960Y-77132175D01*
X64999720Y-77057782D01*
X64773706Y-76936975D01*
X64773704Y-76936974D01*
X64575603Y-76774397D01*
X64413026Y-76576296D01*
X64292219Y-76350282D01*
X64292218Y-76350280D01*
X64217825Y-76105040D01*
X64192706Y-75850000D01*
X64217825Y-75594960D01*
X64292218Y-75349720D01*
X64413025Y-75123706D01*
X64413026Y-75123704D01*
X64575603Y-74925603D01*
X64773704Y-74763026D01*
X64999718Y-74642219D01*
X64999720Y-74642218D01*
X65244960Y-74567825D01*
X65388311Y-74553706D01*
X65436094Y-74549000D01*
X65563906Y-74549000D01*
X65611689Y-74553706D01*
X65611689Y-74553706D01*
G37*
G36*
X41541000Y-74561000D02*
X39739000Y-74561000D01*
X39739000Y-72759000D01*
X41541000Y-72759000D01*
X41541000Y-74561000D01*
X41541000Y-74561000D01*
G37*
G36*
X95625256Y-70781298D02*
X95731579Y-70802447D01*
X96032042Y-70926903D01*
X96056691Y-70943373D01*
X96302454Y-71107587D01*
X96532413Y-71337546D01*
X96532415Y-71337549D01*
X96713097Y-71607958D01*
X96822790Y-71872779D01*
X96837553Y-71908422D01*
X96901000Y-72227389D01*
X96901000Y-72552611D01*
X96837553Y-72871578D01*
X96713098Y-73172040D01*
X96532413Y-73442454D01*
X96302454Y-73672413D01*
X96302451Y-73672415D01*
X96032042Y-73853097D01*
X95731579Y-73977553D01*
X95625256Y-73998702D01*
X95412611Y-74041000D01*
X95087389Y-74041000D01*
X94874744Y-73998702D01*
X94768421Y-73977553D01*
X94467958Y-73853097D01*
X94197549Y-73672415D01*
X94197546Y-73672413D01*
X93967587Y-73442454D01*
X93786902Y-73172040D01*
X93662447Y-72871578D01*
X93599000Y-72552611D01*
X93599000Y-72227389D01*
X93662447Y-71908422D01*
X93677211Y-71872779D01*
X93786903Y-71607958D01*
X93967585Y-71337549D01*
X93967587Y-71337546D01*
X94197546Y-71107587D01*
X94443309Y-70943373D01*
X94467958Y-70926903D01*
X94768421Y-70802447D01*
X94874744Y-70781298D01*
X95087389Y-70739000D01*
X95412611Y-70739000D01*
X95625256Y-70781298D01*
X95625256Y-70781298D01*
G37*
G36*
X35935256Y-70781298D02*
X36041579Y-70802447D01*
X36342042Y-70926903D01*
X36366691Y-70943373D01*
X36612454Y-71107587D01*
X36842413Y-71337546D01*
X36842415Y-71337549D01*
X37023097Y-71607958D01*
X37132790Y-71872779D01*
X37147553Y-71908422D01*
X37211000Y-72227389D01*
X37211000Y-72552611D01*
X37147553Y-72871578D01*
X37023098Y-73172040D01*
X36842413Y-73442454D01*
X36612454Y-73672413D01*
X36612451Y-73672415D01*
X36342042Y-73853097D01*
X36041579Y-73977553D01*
X35935256Y-73998702D01*
X35722611Y-74041000D01*
X35397389Y-74041000D01*
X35184744Y-73998702D01*
X35078421Y-73977553D01*
X34777958Y-73853097D01*
X34507549Y-73672415D01*
X34507546Y-73672413D01*
X34277587Y-73442454D01*
X34096902Y-73172040D01*
X33972447Y-72871578D01*
X33909000Y-72552611D01*
X33909000Y-72227389D01*
X33972447Y-71908422D01*
X33987211Y-71872779D01*
X34096903Y-71607958D01*
X34277585Y-71337549D01*
X34277587Y-71337546D01*
X34507546Y-71107587D01*
X34753309Y-70943373D01*
X34777958Y-70926903D01*
X35078421Y-70802447D01*
X35184744Y-70781298D01*
X35397389Y-70739000D01*
X35722611Y-70739000D01*
X35935256Y-70781298D01*
X35935256Y-70781298D01*
G37*
G36*
X40750442Y-70225518D02*
X40816627Y-70232037D01*
X40929853Y-70266384D01*
X40986467Y-70283557D01*
X41125087Y-70357652D01*
X41142991Y-70367222D01*
X41178729Y-70396552D01*
X41280186Y-70479814D01*
X41363448Y-70581271D01*
X41392778Y-70617009D01*
X41392779Y-70617011D01*
X41476443Y-70773533D01*
X41476443Y-70773534D01*
X41527963Y-70943373D01*
X41545359Y-71120000D01*
X41527963Y-71296627D01*
X41515550Y-71337546D01*
X41476443Y-71466467D01*
X41402348Y-71605087D01*
X41392778Y-71622991D01*
X41363448Y-71658729D01*
X41280186Y-71760186D01*
X41178729Y-71843448D01*
X41142991Y-71872778D01*
X41142989Y-71872779D01*
X40986467Y-71956443D01*
X40929853Y-71973616D01*
X40816627Y-72007963D01*
X40750443Y-72014481D01*
X40684260Y-72021000D01*
X40595740Y-72021000D01*
X40529557Y-72014481D01*
X40463373Y-72007963D01*
X40350147Y-71973616D01*
X40293533Y-71956443D01*
X40137011Y-71872779D01*
X40137009Y-71872778D01*
X40101271Y-71843448D01*
X39999814Y-71760186D01*
X39916552Y-71658729D01*
X39887222Y-71622991D01*
X39877652Y-71605087D01*
X39803557Y-71466467D01*
X39764450Y-71337546D01*
X39752037Y-71296627D01*
X39734641Y-71120000D01*
X39752037Y-70943373D01*
X39803557Y-70773534D01*
X39803557Y-70773533D01*
X39887221Y-70617011D01*
X39887222Y-70617009D01*
X39916552Y-70581271D01*
X39999814Y-70479814D01*
X40101271Y-70396552D01*
X40137009Y-70367222D01*
X40154913Y-70357652D01*
X40293533Y-70283557D01*
X40350147Y-70266384D01*
X40463373Y-70232037D01*
X40529558Y-70225518D01*
X40595740Y-70219000D01*
X40684260Y-70219000D01*
X40750442Y-70225518D01*
X40750442Y-70225518D01*
G37*
G36*
X64801000Y-71151000D02*
X62199000Y-71151000D01*
X62199000Y-68549000D01*
X64801000Y-68549000D01*
X64801000Y-71151000D01*
X64801000Y-71151000D01*
G37*
G36*
X40750443Y-67685519D02*
X40816627Y-67692037D01*
X40929853Y-67726384D01*
X40986467Y-67743557D01*
X41125087Y-67817652D01*
X41142991Y-67827222D01*
X41178729Y-67856552D01*
X41280186Y-67939814D01*
X41363448Y-68041271D01*
X41392778Y-68077009D01*
X41392779Y-68077011D01*
X41476443Y-68233533D01*
X41476443Y-68233534D01*
X41527963Y-68403373D01*
X41545359Y-68580000D01*
X41527963Y-68756627D01*
X41493616Y-68869853D01*
X41476443Y-68926467D01*
X41402348Y-69065087D01*
X41392778Y-69082991D01*
X41363448Y-69118729D01*
X41280186Y-69220186D01*
X41178729Y-69303448D01*
X41142991Y-69332778D01*
X41142989Y-69332779D01*
X40986467Y-69416443D01*
X40929853Y-69433616D01*
X40816627Y-69467963D01*
X40750442Y-69474482D01*
X40684260Y-69481000D01*
X40595740Y-69481000D01*
X40529558Y-69474482D01*
X40463373Y-69467963D01*
X40350147Y-69433616D01*
X40293533Y-69416443D01*
X40137011Y-69332779D01*
X40137009Y-69332778D01*
X40101271Y-69303448D01*
X39999814Y-69220186D01*
X39916552Y-69118729D01*
X39887222Y-69082991D01*
X39877652Y-69065087D01*
X39803557Y-68926467D01*
X39786384Y-68869853D01*
X39752037Y-68756627D01*
X39734641Y-68580000D01*
X39752037Y-68403373D01*
X39803557Y-68233534D01*
X39803557Y-68233533D01*
X39887221Y-68077011D01*
X39887222Y-68077009D01*
X39916552Y-68041271D01*
X39999814Y-67939814D01*
X40101271Y-67856552D01*
X40137009Y-67827222D01*
X40154913Y-67817652D01*
X40293533Y-67743557D01*
X40350147Y-67726384D01*
X40463373Y-67692037D01*
X40529557Y-67685519D01*
X40595740Y-67679000D01*
X40684260Y-67679000D01*
X40750443Y-67685519D01*
X40750443Y-67685519D01*
G37*
G36*
X92341000Y-65671000D02*
X90539000Y-65671000D01*
X90539000Y-63869000D01*
X92341000Y-63869000D01*
X92341000Y-65671000D01*
X92341000Y-65671000D01*
G37*
G36*
X65611689Y-62553706D02*
X65755040Y-62567825D01*
X66000280Y-62642218D01*
X66000282Y-62642219D01*
X66226296Y-62763026D01*
X66424397Y-62925603D01*
X66586974Y-63123704D01*
X66586975Y-63123706D01*
X66707782Y-63349720D01*
X66782175Y-63594960D01*
X66807294Y-63850000D01*
X66782175Y-64105040D01*
X66707782Y-64350280D01*
X66707781Y-64350282D01*
X66586974Y-64576296D01*
X66424397Y-64774397D01*
X66226296Y-64936974D01*
X66226294Y-64936975D01*
X66000280Y-65057782D01*
X65755040Y-65132175D01*
X65611689Y-65146294D01*
X65563906Y-65151000D01*
X65436094Y-65151000D01*
X65388311Y-65146294D01*
X65244960Y-65132175D01*
X64999720Y-65057782D01*
X64773706Y-64936975D01*
X64773704Y-64936974D01*
X64575603Y-64774397D01*
X64413026Y-64576296D01*
X64292219Y-64350282D01*
X64292218Y-64350280D01*
X64217825Y-64105040D01*
X64192706Y-63850000D01*
X64217825Y-63594960D01*
X64292218Y-63349720D01*
X64413025Y-63123706D01*
X64413026Y-63123704D01*
X64575603Y-62925603D01*
X64773704Y-62763026D01*
X64999718Y-62642219D01*
X64999720Y-62642218D01*
X65244960Y-62567825D01*
X65388311Y-62553706D01*
X65436094Y-62549000D01*
X65563906Y-62549000D01*
X65611689Y-62553706D01*
X65611689Y-62553706D01*
G37*
G36*
X77811689Y-62553706D02*
X77955040Y-62567825D01*
X78200280Y-62642218D01*
X78200282Y-62642219D01*
X78426296Y-62763026D01*
X78624397Y-62925603D01*
X78786974Y-63123704D01*
X78786975Y-63123706D01*
X78907782Y-63349720D01*
X78982175Y-63594960D01*
X79007294Y-63850000D01*
X78982175Y-64105040D01*
X78907782Y-64350280D01*
X78907781Y-64350282D01*
X78786974Y-64576296D01*
X78624397Y-64774397D01*
X78426296Y-64936974D01*
X78426294Y-64936975D01*
X78200280Y-65057782D01*
X77955040Y-65132175D01*
X77811689Y-65146294D01*
X77763906Y-65151000D01*
X77636094Y-65151000D01*
X77588311Y-65146294D01*
X77444960Y-65132175D01*
X77199720Y-65057782D01*
X76973706Y-64936975D01*
X76973704Y-64936974D01*
X76775603Y-64774397D01*
X76613026Y-64576296D01*
X76492219Y-64350282D01*
X76492218Y-64350280D01*
X76417825Y-64105040D01*
X76392706Y-63850000D01*
X76417825Y-63594960D01*
X76492218Y-63349720D01*
X76613025Y-63123706D01*
X76613026Y-63123704D01*
X76775603Y-62925603D01*
X76973704Y-62763026D01*
X77199718Y-62642219D01*
X77199720Y-62642218D01*
X77444960Y-62567825D01*
X77588311Y-62553706D01*
X77636094Y-62549000D01*
X77763906Y-62549000D01*
X77811689Y-62553706D01*
X77811689Y-62553706D01*
G37*
G36*
X91550443Y-61335519D02*
X91616627Y-61342037D01*
X91729853Y-61376384D01*
X91786467Y-61393557D01*
X91925087Y-61467652D01*
X91942991Y-61477222D01*
X91978729Y-61506552D01*
X92080186Y-61589814D01*
X92163448Y-61691271D01*
X92192778Y-61727009D01*
X92192779Y-61727011D01*
X92276443Y-61883533D01*
X92276443Y-61883534D01*
X92327963Y-62053373D01*
X92345359Y-62230000D01*
X92327963Y-62406627D01*
X92293616Y-62519853D01*
X92276443Y-62576467D01*
X92241298Y-62642218D01*
X92192778Y-62732991D01*
X92168129Y-62763026D01*
X92080186Y-62870186D01*
X91978729Y-62953448D01*
X91942991Y-62982778D01*
X91942989Y-62982779D01*
X91786467Y-63066443D01*
X91729853Y-63083616D01*
X91616627Y-63117963D01*
X91558316Y-63123706D01*
X91484260Y-63131000D01*
X91395740Y-63131000D01*
X91321684Y-63123706D01*
X91263373Y-63117963D01*
X91150147Y-63083616D01*
X91093533Y-63066443D01*
X90937011Y-62982779D01*
X90937009Y-62982778D01*
X90901271Y-62953448D01*
X90799814Y-62870186D01*
X90711871Y-62763026D01*
X90687222Y-62732991D01*
X90638702Y-62642218D01*
X90603557Y-62576467D01*
X90586384Y-62519853D01*
X90552037Y-62406627D01*
X90534641Y-62230000D01*
X90552037Y-62053373D01*
X90603557Y-61883534D01*
X90603557Y-61883533D01*
X90687221Y-61727011D01*
X90687222Y-61727009D01*
X90716552Y-61691271D01*
X90799814Y-61589814D01*
X90901271Y-61506552D01*
X90937009Y-61477222D01*
X90954913Y-61467652D01*
X91093533Y-61393557D01*
X91150147Y-61376384D01*
X91263373Y-61342037D01*
X91329557Y-61335519D01*
X91395740Y-61329000D01*
X91484260Y-61329000D01*
X91550443Y-61335519D01*
X91550443Y-61335519D01*
G37*
G36*
X44081000Y-61861000D02*
X42279000Y-61861000D01*
X42279000Y-60059000D01*
X44081000Y-60059000D01*
X44081000Y-61861000D01*
X44081000Y-61861000D01*
G37*
G36*
X39001000Y-61861000D02*
X37199000Y-61861000D01*
X37199000Y-60059000D01*
X39001000Y-60059000D01*
X39001000Y-61861000D01*
X39001000Y-61861000D01*
G37*
G36*
X38210443Y-57525519D02*
X38276627Y-57532037D01*
X38389853Y-57566384D01*
X38446467Y-57583557D01*
X38585087Y-57657652D01*
X38602991Y-57667222D01*
X38638729Y-57696552D01*
X38740186Y-57779814D01*
X38823448Y-57881271D01*
X38852778Y-57917009D01*
X38852779Y-57917011D01*
X38936443Y-58073533D01*
X38936443Y-58073534D01*
X38987963Y-58243373D01*
X39005359Y-58420000D01*
X38987963Y-58596627D01*
X38953616Y-58709853D01*
X38936443Y-58766467D01*
X38862348Y-58905087D01*
X38852778Y-58922991D01*
X38823448Y-58958729D01*
X38740186Y-59060186D01*
X38638729Y-59143448D01*
X38602991Y-59172778D01*
X38602989Y-59172779D01*
X38446467Y-59256443D01*
X38389853Y-59273616D01*
X38276627Y-59307963D01*
X38210442Y-59314482D01*
X38144260Y-59321000D01*
X38055740Y-59321000D01*
X37989558Y-59314482D01*
X37923373Y-59307963D01*
X37810147Y-59273616D01*
X37753533Y-59256443D01*
X37597011Y-59172779D01*
X37597009Y-59172778D01*
X37561271Y-59143448D01*
X37459814Y-59060186D01*
X37376552Y-58958729D01*
X37347222Y-58922991D01*
X37337652Y-58905087D01*
X37263557Y-58766467D01*
X37246384Y-58709853D01*
X37212037Y-58596627D01*
X37194641Y-58420000D01*
X37212037Y-58243373D01*
X37263557Y-58073534D01*
X37263557Y-58073533D01*
X37347221Y-57917011D01*
X37347222Y-57917009D01*
X37376552Y-57881271D01*
X37459814Y-57779814D01*
X37561271Y-57696552D01*
X37597009Y-57667222D01*
X37614913Y-57657652D01*
X37753533Y-57583557D01*
X37810147Y-57566384D01*
X37923373Y-57532037D01*
X37989557Y-57525519D01*
X38055740Y-57519000D01*
X38144260Y-57519000D01*
X38210443Y-57525519D01*
X38210443Y-57525519D01*
G37*
G36*
X43290443Y-57525519D02*
X43356627Y-57532037D01*
X43469853Y-57566384D01*
X43526467Y-57583557D01*
X43665087Y-57657652D01*
X43682991Y-57667222D01*
X43718729Y-57696552D01*
X43820186Y-57779814D01*
X43903448Y-57881271D01*
X43932778Y-57917009D01*
X43932779Y-57917011D01*
X44016443Y-58073533D01*
X44016443Y-58073534D01*
X44067963Y-58243373D01*
X44085359Y-58420000D01*
X44067963Y-58596627D01*
X44033616Y-58709853D01*
X44016443Y-58766467D01*
X43942348Y-58905087D01*
X43932778Y-58922991D01*
X43903448Y-58958729D01*
X43820186Y-59060186D01*
X43718729Y-59143448D01*
X43682991Y-59172778D01*
X43682989Y-59172779D01*
X43526467Y-59256443D01*
X43469853Y-59273616D01*
X43356627Y-59307963D01*
X43290442Y-59314482D01*
X43224260Y-59321000D01*
X43135740Y-59321000D01*
X43069558Y-59314482D01*
X43003373Y-59307963D01*
X42890147Y-59273616D01*
X42833533Y-59256443D01*
X42677011Y-59172779D01*
X42677009Y-59172778D01*
X42641271Y-59143448D01*
X42539814Y-59060186D01*
X42456552Y-58958729D01*
X42427222Y-58922991D01*
X42417652Y-58905087D01*
X42343557Y-58766467D01*
X42326384Y-58709853D01*
X42292037Y-58596627D01*
X42274641Y-58420000D01*
X42292037Y-58243373D01*
X42343557Y-58073534D01*
X42343557Y-58073533D01*
X42427221Y-57917011D01*
X42427222Y-57917009D01*
X42456552Y-57881271D01*
X42539814Y-57779814D01*
X42641271Y-57696552D01*
X42677009Y-57667222D01*
X42694913Y-57657652D01*
X42833533Y-57583557D01*
X42890147Y-57566384D01*
X43003373Y-57532037D01*
X43069557Y-57525519D01*
X43135740Y-57519000D01*
X43224260Y-57519000D01*
X43290443Y-57525519D01*
X43290443Y-57525519D01*
G37*
G36*
X38210443Y-54985519D02*
X38276627Y-54992037D01*
X38389853Y-55026384D01*
X38446467Y-55043557D01*
X38585087Y-55117652D01*
X38602991Y-55127222D01*
X38638729Y-55156552D01*
X38740186Y-55239814D01*
X38823448Y-55341271D01*
X38852778Y-55377009D01*
X38852779Y-55377011D01*
X38936443Y-55533533D01*
X38936443Y-55533534D01*
X38987963Y-55703373D01*
X39005359Y-55880000D01*
X38987963Y-56056627D01*
X38953616Y-56169853D01*
X38936443Y-56226467D01*
X38862348Y-56365087D01*
X38852778Y-56382991D01*
X38823448Y-56418729D01*
X38740186Y-56520186D01*
X38638729Y-56603448D01*
X38602991Y-56632778D01*
X38602989Y-56632779D01*
X38446467Y-56716443D01*
X38389853Y-56733616D01*
X38276627Y-56767963D01*
X38210443Y-56774481D01*
X38144260Y-56781000D01*
X38055740Y-56781000D01*
X37989557Y-56774481D01*
X37923373Y-56767963D01*
X37810147Y-56733616D01*
X37753533Y-56716443D01*
X37597011Y-56632779D01*
X37597009Y-56632778D01*
X37561271Y-56603448D01*
X37459814Y-56520186D01*
X37376552Y-56418729D01*
X37347222Y-56382991D01*
X37337652Y-56365087D01*
X37263557Y-56226467D01*
X37246384Y-56169853D01*
X37212037Y-56056627D01*
X37194641Y-55880000D01*
X37212037Y-55703373D01*
X37263557Y-55533534D01*
X37263557Y-55533533D01*
X37347221Y-55377011D01*
X37347222Y-55377009D01*
X37376552Y-55341271D01*
X37459814Y-55239814D01*
X37561271Y-55156552D01*
X37597009Y-55127222D01*
X37614913Y-55117652D01*
X37753533Y-55043557D01*
X37810147Y-55026384D01*
X37923373Y-54992037D01*
X37989557Y-54985519D01*
X38055740Y-54979000D01*
X38144260Y-54979000D01*
X38210443Y-54985519D01*
X38210443Y-54985519D01*
G37*
G36*
X43290443Y-54985519D02*
X43356627Y-54992037D01*
X43469853Y-55026384D01*
X43526467Y-55043557D01*
X43665087Y-55117652D01*
X43682991Y-55127222D01*
X43718729Y-55156552D01*
X43820186Y-55239814D01*
X43903448Y-55341271D01*
X43932778Y-55377009D01*
X43932779Y-55377011D01*
X44016443Y-55533533D01*
X44016443Y-55533534D01*
X44067963Y-55703373D01*
X44085359Y-55880000D01*
X44067963Y-56056627D01*
X44033616Y-56169853D01*
X44016443Y-56226467D01*
X43942348Y-56365087D01*
X43932778Y-56382991D01*
X43903448Y-56418729D01*
X43820186Y-56520186D01*
X43718729Y-56603448D01*
X43682991Y-56632778D01*
X43682989Y-56632779D01*
X43526467Y-56716443D01*
X43469853Y-56733616D01*
X43356627Y-56767963D01*
X43290443Y-56774481D01*
X43224260Y-56781000D01*
X43135740Y-56781000D01*
X43069557Y-56774481D01*
X43003373Y-56767963D01*
X42890147Y-56733616D01*
X42833533Y-56716443D01*
X42677011Y-56632779D01*
X42677009Y-56632778D01*
X42641271Y-56603448D01*
X42539814Y-56520186D01*
X42456552Y-56418729D01*
X42427222Y-56382991D01*
X42417652Y-56365087D01*
X42343557Y-56226467D01*
X42326384Y-56169853D01*
X42292037Y-56056627D01*
X42274641Y-55880000D01*
X42292037Y-55703373D01*
X42343557Y-55533534D01*
X42343557Y-55533533D01*
X42427221Y-55377011D01*
X42427222Y-55377009D01*
X42456552Y-55341271D01*
X42539814Y-55239814D01*
X42641271Y-55156552D01*
X42677009Y-55127222D01*
X42694913Y-55117652D01*
X42833533Y-55043557D01*
X42890147Y-55026384D01*
X43003373Y-54992037D01*
X43069557Y-54985519D01*
X43135740Y-54979000D01*
X43224260Y-54979000D01*
X43290443Y-54985519D01*
X43290443Y-54985519D01*
G37*
G36*
X37044794Y-48450155D02*
X37151150Y-48471311D01*
X37221990Y-48500654D01*
X37351516Y-48554305D01*
X37351519Y-48554307D01*
X37453441Y-48622409D01*
X37531850Y-48674801D01*
X37685199Y-48828150D01*
X37805695Y-49008484D01*
X37888689Y-49208851D01*
X37931000Y-49421560D01*
X37931000Y-49638440D01*
X37888689Y-49851149D01*
X37805695Y-50051516D01*
X37685199Y-50231850D01*
X37531850Y-50385199D01*
X37351516Y-50505695D01*
X37221990Y-50559346D01*
X37151150Y-50588689D01*
X37044794Y-50609845D01*
X36938440Y-50631000D01*
X36721560Y-50631000D01*
X36615206Y-50609845D01*
X36508850Y-50588689D01*
X36438010Y-50559346D01*
X36308484Y-50505695D01*
X36128150Y-50385199D01*
X35974801Y-50231850D01*
X35854305Y-50051516D01*
X35771311Y-49851149D01*
X35729000Y-49638440D01*
X35729000Y-49421560D01*
X35771311Y-49208851D01*
X35854305Y-49008484D01*
X35974801Y-48828150D01*
X36128150Y-48674801D01*
X36206560Y-48622409D01*
X36308481Y-48554307D01*
X36308484Y-48554305D01*
X36438010Y-48500654D01*
X36508850Y-48471311D01*
X36615206Y-48450155D01*
X36721560Y-48429000D01*
X36938440Y-48429000D01*
X37044794Y-48450155D01*
X37044794Y-48450155D01*
G37*
G36*
X92922527Y-46658736D02*
X93022410Y-46678604D01*
X93304674Y-46795521D01*
X93558705Y-46965259D01*
X93774741Y-47181295D01*
X93944479Y-47435326D01*
X94050734Y-47691850D01*
X94061396Y-47717591D01*
X94121000Y-48017238D01*
X94121000Y-48322762D01*
X94081264Y-48522527D01*
X94061396Y-48622410D01*
X93944479Y-48904674D01*
X93774741Y-49158705D01*
X93558705Y-49374741D01*
X93304674Y-49544479D01*
X93022410Y-49661396D01*
X92922527Y-49681264D01*
X92722762Y-49721000D01*
X92417238Y-49721000D01*
X92217473Y-49681264D01*
X92117590Y-49661396D01*
X91835326Y-49544479D01*
X91581295Y-49374741D01*
X91365259Y-49158705D01*
X91195521Y-48904674D01*
X91078604Y-48622410D01*
X91058736Y-48522527D01*
X91019000Y-48322762D01*
X91019000Y-48017238D01*
X91078604Y-47717591D01*
X91089266Y-47691850D01*
X91195521Y-47435326D01*
X91365259Y-47181295D01*
X91581295Y-46965259D01*
X91835326Y-46795521D01*
X92117590Y-46678604D01*
X92217473Y-46658736D01*
X92417238Y-46619000D01*
X92722762Y-46619000D01*
X92922527Y-46658736D01*
X92922527Y-46658736D01*
G37*
G36*
X37044794Y-45910155D02*
X37151150Y-45931311D01*
X37221990Y-45960654D01*
X37351516Y-46014305D01*
X37531850Y-46134801D01*
X37685199Y-46288150D01*
X37805695Y-46468484D01*
X37888689Y-46668851D01*
X37931000Y-46881560D01*
X37931000Y-47098440D01*
X37888689Y-47311149D01*
X37805695Y-47511516D01*
X37685199Y-47691850D01*
X37531850Y-47845199D01*
X37351516Y-47965695D01*
X37227079Y-48017238D01*
X37151150Y-48048689D01*
X37044795Y-48069844D01*
X36938440Y-48091000D01*
X36721560Y-48091000D01*
X36615206Y-48069845D01*
X36508850Y-48048689D01*
X36432921Y-48017238D01*
X36308484Y-47965695D01*
X36128150Y-47845199D01*
X35974801Y-47691850D01*
X35854305Y-47511516D01*
X35771311Y-47311149D01*
X35729000Y-47098440D01*
X35729000Y-46881560D01*
X35771311Y-46668851D01*
X35854305Y-46468484D01*
X35974801Y-46288150D01*
X36128150Y-46134801D01*
X36308484Y-46014305D01*
X36438010Y-45960654D01*
X36508850Y-45931311D01*
X36615206Y-45910155D01*
X36721560Y-45889000D01*
X36938440Y-45889000D01*
X37044794Y-45910155D01*
X37044794Y-45910155D01*
G37*
G36*
X37931000Y-45551000D02*
X35729000Y-45551000D01*
X35729000Y-43349000D01*
X37931000Y-43349000D01*
X37931000Y-45551000D01*
X37931000Y-45551000D01*
G37*
G36*
X92922527Y-33518736D02*
X93022410Y-33538604D01*
X93304674Y-33655521D01*
X93558705Y-33825259D01*
X93774741Y-34041295D01*
X93944479Y-34295326D01*
X94061396Y-34577590D01*
X94121000Y-34877240D01*
X94121000Y-35182760D01*
X94061396Y-35482410D01*
X93944479Y-35764674D01*
X93774741Y-36018705D01*
X93558705Y-36234741D01*
X93304674Y-36404479D01*
X93022410Y-36521396D01*
X92922527Y-36541264D01*
X92722762Y-36581000D01*
X92417238Y-36581000D01*
X92217473Y-36541264D01*
X92117590Y-36521396D01*
X91835326Y-36404479D01*
X91581295Y-36234741D01*
X91365259Y-36018705D01*
X91195521Y-35764674D01*
X91078604Y-35482410D01*
X91019000Y-35182760D01*
X91019000Y-34877240D01*
X91078604Y-34577590D01*
X91195521Y-34295326D01*
X91365259Y-34041295D01*
X91581295Y-33825259D01*
X91835326Y-33655521D01*
X92117590Y-33538604D01*
X92217473Y-33518736D01*
X92417238Y-33479000D01*
X92722762Y-33479000D01*
X92922527Y-33518736D01*
X92922527Y-33518736D01*
G37*
G36*
X86191000Y-30819000D02*
X83989000Y-30819000D01*
X83989000Y-28617000D01*
X86191000Y-28617000D01*
X86191000Y-30819000D01*
X86191000Y-30819000D01*
G37*
G36*
X85304794Y-26098155D02*
X85411150Y-26119311D01*
X85481990Y-26148654D01*
X85611516Y-26202305D01*
X85791850Y-26322801D01*
X85945199Y-26476150D01*
X86065695Y-26656484D01*
X86148689Y-26856851D01*
X86191000Y-27069560D01*
X86191000Y-27286440D01*
X86148689Y-27499149D01*
X86065695Y-27699516D01*
X85945199Y-27879850D01*
X85791850Y-28033199D01*
X85611516Y-28153695D01*
X85481990Y-28207346D01*
X85411150Y-28236689D01*
X85304794Y-28257845D01*
X85198440Y-28279000D01*
X84981560Y-28279000D01*
X84875206Y-28257845D01*
X84768850Y-28236689D01*
X84698010Y-28207346D01*
X84568484Y-28153695D01*
X84388150Y-28033199D01*
X84234801Y-27879850D01*
X84114305Y-27699516D01*
X84031311Y-27499149D01*
X83989000Y-27286440D01*
X83989000Y-27069560D01*
X84031311Y-26856851D01*
X84114305Y-26656484D01*
X84234801Y-26476150D01*
X84388150Y-26322801D01*
X84568484Y-26202305D01*
X84698010Y-26148654D01*
X84768850Y-26119311D01*
X84875206Y-26098155D01*
X84981560Y-26077000D01*
X85198440Y-26077000D01*
X85304794Y-26098155D01*
X85304794Y-26098155D01*
G37*
G36*
X85304794Y-23558155D02*
X85411150Y-23579311D01*
X85481990Y-23608654D01*
X85611516Y-23662305D01*
X85791850Y-23782801D01*
X85945199Y-23936150D01*
X86065695Y-24116484D01*
X86148689Y-24316851D01*
X86191000Y-24529560D01*
X86191000Y-24746440D01*
X86148689Y-24959149D01*
X86065695Y-25159516D01*
X85945199Y-25339850D01*
X85791850Y-25493199D01*
X85611516Y-25613695D01*
X85481990Y-25667346D01*
X85411150Y-25696689D01*
X85304794Y-25717845D01*
X85198440Y-25739000D01*
X84981560Y-25739000D01*
X84875206Y-25717845D01*
X84768850Y-25696689D01*
X84698010Y-25667346D01*
X84568484Y-25613695D01*
X84388150Y-25493199D01*
X84234801Y-25339850D01*
X84114305Y-25159516D01*
X84031311Y-24959149D01*
X83989000Y-24746440D01*
X83989000Y-24529560D01*
X84031311Y-24316851D01*
X84114305Y-24116484D01*
X84234801Y-23936150D01*
X84388150Y-23782801D01*
X84568484Y-23662305D01*
X84698010Y-23608654D01*
X84768850Y-23579311D01*
X84875206Y-23558155D01*
X84981560Y-23537000D01*
X85198440Y-23537000D01*
X85304794Y-23558155D01*
X85304794Y-23558155D01*
G37*
G36*
X56094794Y-21272155D02*
X56201150Y-21293311D01*
X56271990Y-21322654D01*
X56401516Y-21376305D01*
X56401519Y-21376307D01*
X56577858Y-21494133D01*
X56581850Y-21496801D01*
X56735199Y-21650150D01*
X56735201Y-21650153D01*
X56735202Y-21650154D01*
X56785881Y-21726000D01*
X56855695Y-21830484D01*
X56938689Y-22030851D01*
X56981000Y-22243560D01*
X56981000Y-22460440D01*
X56938689Y-22673149D01*
X56855695Y-22873516D01*
X56735199Y-23053850D01*
X56581850Y-23207199D01*
X56401516Y-23327695D01*
X56271990Y-23381346D01*
X56201150Y-23410689D01*
X56094794Y-23431845D01*
X55988440Y-23453000D01*
X55771560Y-23453000D01*
X55665206Y-23431845D01*
X55558850Y-23410689D01*
X55488010Y-23381346D01*
X55358484Y-23327695D01*
X55178150Y-23207199D01*
X55024801Y-23053850D01*
X54904305Y-22873516D01*
X54821311Y-22673149D01*
X54779000Y-22460440D01*
X54779000Y-22243560D01*
X54821311Y-22030851D01*
X54904305Y-21830484D01*
X54974119Y-21726000D01*
X55024798Y-21650154D01*
X55024799Y-21650153D01*
X55024801Y-21650150D01*
X55178150Y-21496801D01*
X55182143Y-21494133D01*
X55358481Y-21376307D01*
X55358484Y-21376305D01*
X55488010Y-21322654D01*
X55558850Y-21293311D01*
X55665206Y-21272155D01*
X55771560Y-21251000D01*
X55988440Y-21251000D01*
X56094794Y-21272155D01*
X56094794Y-21272155D01*
G37*
G36*
X42632794Y-21272155D02*
X42739150Y-21293311D01*
X42809990Y-21322654D01*
X42939516Y-21376305D01*
X42939519Y-21376307D01*
X43115858Y-21494133D01*
X43119850Y-21496801D01*
X43273199Y-21650150D01*
X43273201Y-21650153D01*
X43273202Y-21650154D01*
X43323881Y-21726000D01*
X43393695Y-21830484D01*
X43476689Y-22030851D01*
X43519000Y-22243560D01*
X43519000Y-22460440D01*
X43476689Y-22673149D01*
X43393695Y-22873516D01*
X43273199Y-23053850D01*
X43119850Y-23207199D01*
X42939516Y-23327695D01*
X42809990Y-23381346D01*
X42739150Y-23410689D01*
X42632794Y-23431845D01*
X42526440Y-23453000D01*
X42309560Y-23453000D01*
X42203206Y-23431845D01*
X42096850Y-23410689D01*
X42026010Y-23381346D01*
X41896484Y-23327695D01*
X41716150Y-23207199D01*
X41562801Y-23053850D01*
X41442305Y-22873516D01*
X41359311Y-22673149D01*
X41317000Y-22460440D01*
X41317000Y-22243560D01*
X41359311Y-22030851D01*
X41442305Y-21830484D01*
X41512119Y-21726000D01*
X41562798Y-21650154D01*
X41562799Y-21650153D01*
X41562801Y-21650150D01*
X41716150Y-21496801D01*
X41720143Y-21494133D01*
X41896481Y-21376307D01*
X41896484Y-21376305D01*
X42026010Y-21322654D01*
X42096850Y-21293311D01*
X42203206Y-21272155D01*
X42309560Y-21251000D01*
X42526440Y-21251000D01*
X42632794Y-21272155D01*
X42632794Y-21272155D01*
G37*
G36*
X45172794Y-21272155D02*
X45279150Y-21293311D01*
X45349990Y-21322654D01*
X45479516Y-21376305D01*
X45479519Y-21376307D01*
X45655858Y-21494133D01*
X45659850Y-21496801D01*
X45813199Y-21650150D01*
X45813201Y-21650153D01*
X45813202Y-21650154D01*
X45863881Y-21726000D01*
X45933695Y-21830484D01*
X46016689Y-22030851D01*
X46059000Y-22243560D01*
X46059000Y-22460440D01*
X46016689Y-22673149D01*
X45933695Y-22873516D01*
X45813199Y-23053850D01*
X45659850Y-23207199D01*
X45479516Y-23327695D01*
X45349990Y-23381346D01*
X45279150Y-23410689D01*
X45172794Y-23431845D01*
X45066440Y-23453000D01*
X44849560Y-23453000D01*
X44743206Y-23431845D01*
X44636850Y-23410689D01*
X44566010Y-23381346D01*
X44436484Y-23327695D01*
X44256150Y-23207199D01*
X44102801Y-23053850D01*
X43982305Y-22873516D01*
X43899311Y-22673149D01*
X43857000Y-22460440D01*
X43857000Y-22243560D01*
X43899311Y-22030851D01*
X43982305Y-21830484D01*
X44052119Y-21726000D01*
X44102798Y-21650154D01*
X44102799Y-21650153D01*
X44102801Y-21650150D01*
X44256150Y-21496801D01*
X44260143Y-21494133D01*
X44436481Y-21376307D01*
X44436484Y-21376305D01*
X44566010Y-21322654D01*
X44636850Y-21293311D01*
X44743206Y-21272155D01*
X44849560Y-21251000D01*
X45066440Y-21251000D01*
X45172794Y-21272155D01*
X45172794Y-21272155D01*
G37*
G36*
X58634794Y-21272155D02*
X58741150Y-21293311D01*
X58811990Y-21322654D01*
X58941516Y-21376305D01*
X58941519Y-21376307D01*
X59117858Y-21494133D01*
X59121850Y-21496801D01*
X59275199Y-21650150D01*
X59275201Y-21650153D01*
X59275202Y-21650154D01*
X59325881Y-21726000D01*
X59395695Y-21830484D01*
X59478689Y-22030851D01*
X59521000Y-22243560D01*
X59521000Y-22460440D01*
X59478689Y-22673149D01*
X59395695Y-22873516D01*
X59275199Y-23053850D01*
X59121850Y-23207199D01*
X58941516Y-23327695D01*
X58811990Y-23381346D01*
X58741150Y-23410689D01*
X58634794Y-23431845D01*
X58528440Y-23453000D01*
X58311560Y-23453000D01*
X58205206Y-23431845D01*
X58098850Y-23410689D01*
X58028010Y-23381346D01*
X57898484Y-23327695D01*
X57718150Y-23207199D01*
X57564801Y-23053850D01*
X57444305Y-22873516D01*
X57361311Y-22673149D01*
X57319000Y-22460440D01*
X57319000Y-22243560D01*
X57361311Y-22030851D01*
X57444305Y-21830484D01*
X57514119Y-21726000D01*
X57564798Y-21650154D01*
X57564799Y-21650153D01*
X57564801Y-21650150D01*
X57718150Y-21496801D01*
X57722143Y-21494133D01*
X57898481Y-21376307D01*
X57898484Y-21376305D01*
X58028010Y-21322654D01*
X58098850Y-21293311D01*
X58205206Y-21272155D01*
X58311560Y-21251000D01*
X58528440Y-21251000D01*
X58634794Y-21272155D01*
X58634794Y-21272155D01*
G37*
G36*
X48599000Y-23453000D02*
X46397000Y-23453000D01*
X46397000Y-21251000D01*
X48599000Y-21251000D01*
X48599000Y-23453000D01*
X48599000Y-23453000D01*
G37*
G36*
X62061000Y-23453000D02*
X59859000Y-23453000D01*
X59859000Y-21251000D01*
X62061000Y-21251000D01*
X62061000Y-23453000D01*
X62061000Y-23453000D01*
G37*
G36*
X95625256Y-18711298D02*
X95731579Y-18732447D01*
X96032042Y-18856903D01*
X96298852Y-19035180D01*
X96302454Y-19037587D01*
X96532413Y-19267546D01*
X96713098Y-19537960D01*
X96837553Y-19838422D01*
X96901000Y-20157389D01*
X96901000Y-20482611D01*
X96837553Y-20801578D01*
X96713098Y-21102040D01*
X96532413Y-21372454D01*
X96302454Y-21602413D01*
X96302451Y-21602415D01*
X96032042Y-21783097D01*
X95731579Y-21907553D01*
X95625256Y-21928702D01*
X95412611Y-21971000D01*
X95087389Y-21971000D01*
X94874744Y-21928702D01*
X94768421Y-21907553D01*
X94467958Y-21783097D01*
X94197549Y-21602415D01*
X94197546Y-21602413D01*
X93967587Y-21372454D01*
X93786902Y-21102040D01*
X93662447Y-20801578D01*
X93599000Y-20482611D01*
X93599000Y-20157389D01*
X93662447Y-19838422D01*
X93786902Y-19537960D01*
X93967587Y-19267546D01*
X94197546Y-19037587D01*
X94201148Y-19035180D01*
X94467958Y-18856903D01*
X94768421Y-18732447D01*
X94874744Y-18711298D01*
X95087389Y-18669000D01*
X95412611Y-18669000D01*
X95625256Y-18711298D01*
X95625256Y-18711298D01*
G37*
G36*
X35935256Y-18711298D02*
X36041579Y-18732447D01*
X36342042Y-18856903D01*
X36608852Y-19035180D01*
X36612454Y-19037587D01*
X36842413Y-19267546D01*
X37023098Y-19537960D01*
X37147553Y-19838422D01*
X37211000Y-20157389D01*
X37211000Y-20482611D01*
X37147553Y-20801578D01*
X37023098Y-21102040D01*
X36842413Y-21372454D01*
X36612454Y-21602413D01*
X36612451Y-21602415D01*
X36342042Y-21783097D01*
X36041579Y-21907553D01*
X35935256Y-21928702D01*
X35722611Y-21971000D01*
X35397389Y-21971000D01*
X35184744Y-21928702D01*
X35078421Y-21907553D01*
X34777958Y-21783097D01*
X34507549Y-21602415D01*
X34507546Y-21602413D01*
X34277587Y-21372454D01*
X34096902Y-21102040D01*
X33972447Y-20801578D01*
X33909000Y-20482611D01*
X33909000Y-20157389D01*
X33972447Y-19838422D01*
X34096902Y-19537960D01*
X34277587Y-19267546D01*
X34507546Y-19037587D01*
X34511148Y-19035180D01*
X34777958Y-18856903D01*
X35078421Y-18732447D01*
X35184744Y-18711298D01*
X35397389Y-18669000D01*
X35722611Y-18669000D01*
X35935256Y-18711298D01*
X35935256Y-18711298D01*
G37*
G36*
X71277025Y-19135590D02*
X71428012Y-19181392D01*
X71567165Y-19255770D01*
X71689133Y-19355867D01*
X71789230Y-19477835D01*
X71863608Y-19616988D01*
X71909410Y-19767975D01*
X71921000Y-19885654D01*
X71921000Y-20964346D01*
X71909410Y-21082025D01*
X71863608Y-21233012D01*
X71789230Y-21372165D01*
X71689136Y-21494130D01*
X71689134Y-21494131D01*
X71689133Y-21494133D01*
X71628149Y-21544181D01*
X71567161Y-21594232D01*
X71428011Y-21668608D01*
X71277024Y-21714410D01*
X71120000Y-21729875D01*
X70962975Y-21714410D01*
X70811988Y-21668608D01*
X70672835Y-21594230D01*
X70550870Y-21494136D01*
X70550869Y-21494134D01*
X70550867Y-21494133D01*
X70454169Y-21376305D01*
X70450768Y-21372161D01*
X70376392Y-21233011D01*
X70330590Y-21082024D01*
X70319000Y-20964345D01*
X70319001Y-19885654D01*
X70330591Y-19767975D01*
X70376393Y-19616988D01*
X70450771Y-19477835D01*
X70550868Y-19355867D01*
X70672836Y-19255770D01*
X70811989Y-19181392D01*
X70962976Y-19135590D01*
X71120000Y-19120125D01*
X71277025Y-19135590D01*
X71277025Y-19135590D01*
G37*
G36*
X73817025Y-19135590D02*
X73968012Y-19181392D01*
X74107165Y-19255770D01*
X74229133Y-19355867D01*
X74329230Y-19477835D01*
X74403608Y-19616988D01*
X74449410Y-19767975D01*
X74461000Y-19885654D01*
X74461000Y-20964346D01*
X74449410Y-21082025D01*
X74403608Y-21233012D01*
X74329230Y-21372165D01*
X74229136Y-21494130D01*
X74229134Y-21494131D01*
X74229133Y-21494133D01*
X74168149Y-21544181D01*
X74107161Y-21594232D01*
X73968011Y-21668608D01*
X73817024Y-21714410D01*
X73660000Y-21729875D01*
X73502975Y-21714410D01*
X73351988Y-21668608D01*
X73212835Y-21594230D01*
X73090870Y-21494136D01*
X73090869Y-21494134D01*
X73090867Y-21494133D01*
X72994169Y-21376305D01*
X72990768Y-21372161D01*
X72916392Y-21233011D01*
X72870590Y-21082024D01*
X72859000Y-20964345D01*
X72859001Y-19885654D01*
X72870591Y-19767975D01*
X72916393Y-19616988D01*
X72990771Y-19477835D01*
X73090868Y-19355867D01*
X73212836Y-19255770D01*
X73351989Y-19181392D01*
X73502976Y-19135590D01*
X73660000Y-19120125D01*
X73817025Y-19135590D01*
X73817025Y-19135590D01*
G37*
G36*
X77001000Y-21726000D02*
X75399000Y-21726000D01*
X75399000Y-19124000D01*
X77001000Y-19124000D01*
X77001000Y-21726000D01*
X77001000Y-21726000D01*
G37*
M02*
